<?xml version="1.0" standalone="no"?>
<!DOCTYPE svg PUBLIC "-//W3C//DTD SVG 20010904//EN"
 "http://www.w3.org/TR/2001/REC-SVG-20010904/DTD/svg10.dtd">
<svg version="1.0" xmlns="http://www.w3.org/2000/svg"
 width="1024.000000pt" height="1024.000000pt" viewBox="0 0 1024.000000 1024.000000"
 preserveAspectRatio="xMidYMid meet">

<g transform="translate(0.000000,1024.000000) scale(0.100000,-0.100000)"
fill="#000000" stroke="none">
<path d="M0 5120 l0 -5120 5120 0 5120 0 0 5120 0 5120 -5120 0 -5120 0 0
-5120z m2992 4158 c-15 -15 -26 -4 -18 18 5 13 9 15 18 6 9 -9 9 -15 0 -24z
m136 -500 c-6 -18 -28 -21 -28 -4 0 9 7 16 16 16 9 0 14 -5 12 -12z m4382
-213 c0 -8 -4 -15 -10 -15 -5 0 -10 7 -10 15 0 8 5 15 10 15 6 0 10 -7 10 -15z
m-2045 -85 c447 -42 834 -154 1255 -364 332 -166 637 -390 905 -667 566 -585
889 -1297 945 -2084 56 -786 -172 -1572 -640 -2210 -138 -187 -376 -441 -555
-591 -378 -317 -863 -570 -1315 -684 -133 -33 -334 -73 -470 -92 -148 -20
-682 -18 -835 5 -268 39 -536 104 -723 173 -544 203 -955 462 -1307 825 -464
478 -760 1040 -895 1701 -76 367 -84 783 -24 1148 64 388 220 829 402 1135
411 692 988 1187 1722 1478 280 111 697 208 990 230 108 8 444 6 545 -3z
m3245 -135 c0 -8 -4 -15 -10 -15 -5 0 -10 7 -10 15 0 8 5 15 10 15 6 0 10 -7
10 -15z m-6584 -72 c-10 -10 -19 5 -10 18 6 11 8 11 12 0 2 -7 1 -15 -2 -18z
m5804 -63 c0 -5 -4 -10 -10 -10 -5 0 -10 5 -10 10 0 6 5 10 10 10 6 0 10 -4
10 -10z m-6200 -155 c0 -8 -4 -15 -10 -15 -5 0 -10 7 -10 15 0 8 5 15 10 15 6
0 10 -7 10 -15z m6960 -75 c0 -5 -4 -10 -10 -10 -5 0 -10 5 -10 10 0 6 5 10
10 10 6 0 10 -4 10 -10z m-282 -330 c13 -16 18 -30 13 -30 -6 0 -17 -12 -25
-27 l-14 -28 -11 26 c-5 15 -16 29 -23 32 -10 4 -9 9 5 20 9 8 17 19 17 26 0
19 16 12 38 -19z m-6798 -70 c0 -5 -4 -10 -10 -10 -5 0 -10 5 -10 10 0 6 5 10
10 10 6 0 10 -4 10 -10z m750 -56 c0 -8 -7 -14 -15 -14 -8 0 -15 9 -15 20 0
13 5 18 15 14 8 -4 15 -12 15 -20z m6714 -209 c-4 -8 -10 -12 -15 -9 -14 8
-10 24 6 24 9 0 12 -6 9 -15z m-196 -192 c-4 -22 -22 -20 -26 1 -2 10 3 16 13
16 10 0 15 -7 13 -17z m-7798 -8 c0 -8 -4 -15 -10 -15 -5 0 -10 7 -10 15 0 8
5 15 10 15 6 0 10 -7 10 -15z m8280 -521 c0 -8 -5 -12 -10 -9 -6 4 -8 11 -5
16 9 14 15 11 15 -7z m-7740 -274 c0 -5 -4 -10 -10 -10 -5 0 -10 5 -10 10 0 6
5 10 10 10 6 0 10 -4 10 -10z m7940 -345 c0 -8 -4 -15 -10 -15 -5 0 -10 7 -10
15 0 8 5 15 10 15 6 0 10 -7 10 -15z m-8404 -42 c-10 -10 -19 5 -10 18 6 11 8
11 12 0 2 -7 1 -15 -2 -18z m-236 -244 c0 -5 -7 -9 -15 -9 -15 0 -20 12 -9 23
8 8 24 -1 24 -14z m18 -871 c-2 -13 -10 -23 -18 -23 -8 0 -16 10 -18 23 -3 17
2 22 18 22 16 0 21 -5 18 -22z m106 -895 c9 -23 -9 -39 -28 -24 -12 10 -13 16
-3 26 16 19 24 18 31 -2z m8036 -149 c0 -9 -5 -14 -12 -12 -18 6 -21 28 -4 28
9 0 16 -7 16 -16z m-7780 -474 c0 -5 -4 -10 -10 -10 -5 0 -10 5 -10 10 0 6 5
10 10 10 6 0 10 -4 10 -10z m6960 -850 c0 -5 -2 -10 -4 -10 -3 0 -8 5 -11 10
-3 6 -1 10 4 10 6 0 11 -4 11 -10z m-3890 -1090 c0 -24 -26 -38 -42 -22 -16
16 -2 42 22 42 13 0 20 -7 20 -20z m-1230 -80 c0 -5 -4 -10 -10 -10 -5 0 -10
5 -10 10 0 6 5 10 10 10 6 0 10 -4 10 -10z m2012 -222 c-15 -15 -26 -4 -18 18
5 13 9 15 18 6 9 -9 9 -15 0 -24z m810 -111 c-4 -17 -6 -18 -14 -3 -5 9 -6 26
-2 39 7 21 7 21 14 2 4 -11 5 -28 2 -38z"/>
<path d="M4935 8244 c-269 -27 -530 -82 -778 -165 -523 -174 -985 -480 -1365
-907 -588 -660 -864 -1543 -757 -2424 83 -681 399 -1323 895 -1818 164 -164
320 -287 535 -423 726 -458 1576 -609 2405 -426 170 37 244 59 400 116 426
158 805 400 1136 728 492 488 798 1088 900 1765 25 165 30 610 10 788 -54 467
-218 923 -472 1314 -509 784 -1306 1292 -2249 1433 -105 16 -561 29 -660 19z
m301 -350 l25 -17 -30 -14 c-19 -10 -32 -25 -36 -44 -7 -29 -25 -41 -25 -15 0
22 -39 64 -63 68 -20 3 -18 5 15 25 25 15 38 31 43 54 l7 33 19 -37 c11 -20
31 -44 45 -53z m-422 -31 c9 -22 -10 -41 -25 -26 -13 13 -5 43 10 43 5 0 12
-8 15 -17z m743 1 c8 -20 -13 -42 -27 -28 -12 12 -3 44 11 44 5 0 12 -7 16
-16z m-1198 -204 c10 -14 33 -32 51 -41 l32 -16 -31 -13 c-47 -19 -68 -53 -82
-133 -13 -79 -14 -79 -24 6 -10 87 -39 114 -135 131 l-75 13 57 5 c110 12 146
51 156 166 l6 67 13 -80 c8 -44 22 -91 32 -105z m321 121 c-1 -3 -10 -17 -21
-31 l-21 -25 -25 29 -24 28 22 24 23 24 23 -22 c13 -12 23 -24 23 -27z m1065
-21 c-23 -25 -37 -25 -60 0 -18 20 -18 21 5 45 l24 26 25 -25 c24 -25 24 -26
6 -46z m285 10 c1 -92 53 -148 148 -159 l57 -7 -45 -8 c-90 -15 -99 -18 -124
-43 -14 -14 -28 -42 -32 -62 -14 -84 -21 -89 -29 -23 -8 71 -37 115 -82 127
l-28 7 37 19 c47 24 69 65 76 141 5 58 21 64 22 8z m-1922 -18 c3 -17 -2 -22
-17 -22 -14 0 -21 6 -21 18 0 38 33 41 38 4z m2170 5 c4 -21 -27 -35 -38 -17
-12 19 0 42 19 38 9 -2 17 -11 19 -21z m-1023 -128 c268 -29 489 -184 591
-415 67 -151 79 -360 30 -519 -16 -49 -40 -112 -53 -140 -51 -99 -144 -201
-251 -274 -61 -42 -195 -90 -296 -107 -350 -59 -712 161 -816 497 -24 78 -43
240 -35 294 12 77 57 220 92 292 96 197 311 347 533 372 107 12 102 12 205 0z
m-1241 -168 c25 -27 17 -64 -16 -75 -23 -8 -31 -6 -43 10 -19 25 -19 43 2 66
21 23 36 23 57 -1z m2381 -1 c38 -42 -14 -102 -56 -64 -23 21 -24 42 -2 66 21
23 36 23 58 -2z m-2791 -55 c3 -13 22 -37 40 -52 34 -26 34 -27 13 -38 -12 -6
-31 -25 -42 -42 -11 -18 -22 -32 -25 -32 -3 0 -12 14 -20 32 -8 17 -28 38 -43
46 l-29 13 29 18 c16 10 35 32 43 49 15 37 26 39 34 6z m3169 -10 c9 -20 28
-41 42 -47 32 -14 32 -24 -1 -32 -14 -4 -34 -22 -46 -43 l-22 -36 -14 31 c-9
17 -28 37 -44 45 l-30 14 30 21 c16 12 35 35 42 52 16 39 23 38 43 -5z m-2543
-139 c0 -8 7 -17 16 -20 13 -5 14 -9 4 -21 -7 -8 -21 -15 -32 -15 -21 0 -38
32 -20 38 7 2 12 10 12 18 0 8 5 14 10 14 6 0 10 -6 10 -14z m1904 -44 c-13
-20 -25 -20 -38 1 -7 10 -5 21 4 32 12 15 15 15 29 0 12 -12 13 -19 5 -33z
m969 -16 c51 -16 53 -18 19 -28 -20 -5 -37 -19 -44 -33 -12 -27 -28 -33 -28
-11 0 23 -29 46 -58 46 -24 0 -23 2 14 19 30 13 43 27 49 47 l8 29 13 -33 c8
-18 20 -34 27 -36z m-3108 -18 c10 -61 82 -95 209 -99 22 -1 1 -6 -48 -11
-114 -12 -142 -26 -157 -81 -6 -23 -13 -49 -16 -57 -3 -8 -11 7 -18 33 -18 71
-39 88 -126 98 -41 4 -99 9 -129 10 -44 1 -36 3 40 10 158 14 202 41 216 130
8 48 17 37 29 -33z m2405 -28 c19 -36 80 -58 186 -67 l99 -9 -110 -8 c-60 -4
-121 -14 -135 -21 -27 -14 -54 -59 -66 -110 -7 -28 -8 -27 -16 22 -16 90 -54
112 -192 114 l-71 1 97 13 c53 8 106 18 117 25 24 12 51 60 51 89 0 11 3 28 7
38 5 13 9 7 15 -24 4 -23 12 -51 18 -63z m-3048 26 l30 -13 -30 -6 c-20 -4
-36 -16 -46 -34 l-14 -28 -10 26 c-11 27 -29 38 -65 40 -16 1 -13 4 11 10 20
6 40 22 50 39 l17 29 13 -25 c7 -14 27 -31 44 -38z m498 -232 c0 -8 -7 -14
-15 -14 -15 0 -21 21 -9 33 10 9 24 -2 24 -19z m2680 0 c0 -17 -22 -14 -28 4
-2 7 3 12 12 12 9 0 16 -7 16 -16z m-3023 -53 c182 -71 319 -215 384 -401 34
-100 39 -278 9 -387 -29 -108 -79 -191 -170 -283 -124 -126 -247 -180 -425
-187 -231 -10 -423 79 -559 259 -92 123 -129 235 -129 393 0 85 4 113 30 188
17 48 46 113 64 144 50 86 162 191 249 237 117 62 183 76 335 72 119 -2 137
-5 212 -35z m3737 23 c202 -52 386 -231 453 -441 124 -389 -129 -787 -536
-843 -227 -31 -468 70 -607 253 -231 305 -152 746 169 951 46 30 164 77 222
89 53 12 241 6 299 -9z m-1035 -102 c-5 -2 -9 -12 -9 -22 0 -32 -22 -35 -42
-7 -12 17 -30 27 -46 28 -28 1 -24 4 19 13 16 3 29 15 32 27 6 21 7 21 31 -7
13 -16 20 -30 15 -32z m-2029 2 c0 -8 -10 -14 -25 -14 -27 0 -33 18 -13 38 14
14 38 -2 38 -24z m23 -196 c8 -5 6 -12 -6 -26 -9 -10 -17 -24 -17 -30 0 -22
-15 -12 -28 17 -11 26 -11 34 4 63 l17 33 9 -25 c5 -13 14 -28 21 -32z m1937
-98 c0 -10 7 -23 16 -28 14 -8 14 -10 0 -21 -9 -8 -16 -20 -16 -27 0 -8 -4
-14 -10 -14 -5 0 -10 6 -10 14 0 7 -7 19 -15 26 -13 11 -13 14 0 27 8 8 15 21
15 29 0 8 5 14 10 14 6 0 10 -9 10 -20z m-1799 -171 c12 -8 11 -11 -3 -20 -10
-5 -18 -18 -18 -28 0 -11 -9 -21 -21 -24 -15 -4 -19 -3 -12 4 16 16 3 49 -18
49 -25 0 -24 17 1 25 11 3 20 14 20 24 0 30 14 34 26 6 6 -15 17 -31 25 -36z
m38 -239 c4 -8 23 -23 41 -32 l33 -17 -25 -10 c-33 -12 -58 -48 -58 -83 0 -39
-17 -43 -25 -6 -10 49 -30 75 -72 95 l-38 18 42 3 c47 3 57 14 69 77 l8 40 9
-35 c5 -19 12 -42 16 -50z m1643 -17 c6 -7 25 -13 42 -14 l31 0 -25 -17 c-46
-31 -57 -49 -65 -98 l-7 -49 -13 48 c-13 50 -39 87 -62 87 -22 0 -15 14 17 32
22 12 32 29 42 65 l12 48 9 -45 c5 -25 14 -51 19 -57z m-3535 -235 c8 -9 31
-21 51 -26 l37 -9 -42 -12 c-34 -9 -47 -20 -62 -49 l-19 -37 -15 37 c-11 27
-24 39 -44 44 -95 21 -92 20 -44 28 63 10 76 20 91 68 l13 43 9 -35 c6 -19 16
-43 25 -52z m5437 12 c8 -18 25 -28 56 -36 l45 -11 -43 -12 c-33 -9 -48 -21
-65 -48 l-21 -37 -13 32 c-14 35 -39 52 -77 52 -42 0 -39 18 4 25 43 7 63 28
76 80 l7 29 9 -24 c6 -14 15 -36 22 -50z m-2933 -146 l-31 -26 -534 3 -533 4
16 22 16 22 548 1 549 0 -31 -26z m1441 9 c10 -9 18 -19 18 -23 0 -3 -246 -7
-547 -8 -528 -2 -549 -2 -570 17 -13 11 -23 22 -23 25 0 3 248 6 552 6 499 0
553 -2 570 -17z m-1590 -163 l-32 -30 -414 0 c-227 0 -474 3 -550 7 l-136 6
29 18 c38 23 50 23 641 27 l495 2 -33 -30z m1772 0 c20 -12 36 -22 36 -23 0
-1 -57 -2 -127 -2 -71 0 -328 -2 -572 -3 l-445 -3 -30 32 -31 31 567 -5 c562
-5 567 -5 602 -27z m-1048 -400 c225 -222 389 -389 364 -370 -25 19 -92 73
-150 120 -58 48 -163 126 -235 175 -71 49 -148 101 -170 117 -22 16 -65 46
-96 68 -31 22 -64 47 -73 55 -21 22 -21 22 18 -109 19 -62 42 -153 50 -202 36
-206 4 -439 -70 -506 -11 -9 -53 -33 -94 -53 -41 -19 -97 -52 -125 -73 -27
-20 -46 -30 -43 -22 26 69 68 275 84 413 l6 57 -182 -121 c-100 -67 -197 -137
-217 -156 -19 -19 -36 -33 -38 -31 -3 2 44 102 104 221 60 119 101 212 92 208
-15 -9 -135 -108 -275 -229 -61 -52 -298 -246 -326 -266 -13 -10 -13 -9 0 9
35 49 227 251 353 374 110 107 135 136 122 143 -11 7 -46 -15 -138 -84 -248
-190 -236 -173 192 251 233 232 427 420 431 419 5 -2 192 -185 416 -408z
m-2899 375 c28 -12 57 -14 123 -9 80 6 92 5 144 -19 31 -14 56 -28 56 -30 0
-3 -30 7 -67 20 -63 23 -72 24 -128 13 -33 -6 -67 -16 -75 -20 -9 -5 -25 -1
-43 12 -16 11 -48 26 -70 34 l-42 13 33 0 c18 1 49 -6 69 -14z m5058 4 c-16
-6 -35 -11 -42 -11 -7 -1 -10 -5 -7 -9 2 -4 -5 -13 -16 -19 -15 -8 -35 -7 -80
6 -59 16 -106 14 -175 -10 -11 -4 -4 2 15 13 29 17 51 20 133 19 54 -1 102 3
107 8 6 6 29 11 53 11 41 2 41 2 12 -8z m-3051 -140 c-18 -20 -25 -20 -374
-17 -209 2 -361 7 -370 13 -29 18 41 23 404 24 l359 1 -19 -21z m1722 8 c22
-22 -46 -27 -382 -27 -351 0 -361 1 -379 20 l-19 21 386 -3 c213 -2 390 -7
394 -11z m-3885 -9 c92 -31 199 -136 199 -195 0 -28 4 -29 42 -2 96 69 233 -1
254 -128 6 -41 7 -42 30 -26 52 33 181 8 228 -46 20 -21 19 -22 -19 -61 l-39
-40 -478 0 -478 0 0 24 c0 20 4 24 22 21 28 -6 939 -7 945 -2 10 11 -122 37
-185 37 -43 0 -72 4 -72 10 0 7 -42 10 -117 8 -65 -1 -227 -1 -360 0 l-243 2
0 23 0 22 170 -2 c93 -2 246 -4 339 -5 157 -3 169 -2 155 14 -9 9 -38 26 -65
38 -47 20 -63 21 -324 18 -256 -3 -275 -2 -275 15 0 15 13 17 113 18 186 3
227 8 152 19 -27 5 -98 9 -157 9 -87 1 -108 4 -108 15 0 12 24 14 148 11 170
-5 146 9 -35 20 -101 7 -113 9 -113 26 0 11 3 19 8 18 4 0 58 -6 120 -13 61
-7 112 -9 112 -5 0 8 -27 13 -152 30 l-88 12 0 32 c0 41 17 62 65 79 49 18
160 20 206 4z m5534 -6 l50 -17 3 -77 3 -78 -74 0 c-99 0 -197 -11 -197 -22 0
-4 49 -5 110 -2 60 3 121 3 135 0 52 -13 12 -26 -83 -27 -53 -1 -124 -5 -157
-9 -46 -5 -21 -7 103 -9 l162 -1 0 -26 0 -26 -267 7 c-258 7 -270 6 -324 -14
-31 -12 -63 -29 -72 -39 -15 -16 2 -17 315 -14 320 2 370 -1 343 -27 -6 -5
-161 -12 -345 -15 -380 -8 -541 -18 -587 -37 -18 -7 -33 -16 -33 -19 0 -3 218
-4 485 -3 475 3 485 2 485 -17 0 -19 -11 -19 -484 -20 l-484 0 -31 27 c-17 15
-31 35 -31 44 0 22 82 77 126 85 36 7 88 2 116 -10 13 -6 18 0 23 26 15 67 40
103 96 137 45 28 99 26 158 -4 l49 -24 6 33 c8 42 53 106 97 137 80 57 206 74
304 41z m-4885 -76 c0 -8 11 -23 24 -33 23 -19 23 -20 5 -31 -10 -7 -21 -23
-25 -37 -8 -33 -17 -32 -31 4 -8 23 -18 30 -52 36 -50 8 -54 25 -7 25 33 0 66
21 66 41 0 5 5 9 10 9 6 0 10 -6 10 -14z m4018 -11 c10 -22 18 -25 59 -25 58
0 47 -17 -18 -28 -37 -6 -45 -12 -47 -32 -5 -35 -22 -50 -22 -19 0 32 -10 46
-40 58 -17 6 -19 10 -8 10 9 1 25 15 35 31 21 36 27 37 41 5z m-2618 -20 l-25
-24 -227 6 c-126 3 -228 10 -228 14 0 4 39 10 88 14 48 3 96 7 107 9 11 2 85
4 165 5 l145 1 -25 -25z m1535 15 c65 -6 123 -14 128 -19 9 -9 -170 -21 -337
-21 -97 0 -123 3 -138 17 -10 9 -18 20 -18 25 0 11 218 10 365 -2z m-801 -75
c-4 -8 -2 -15 4 -15 6 0 12 6 15 13 3 6 4 2 4 -10 -1 -17 -4 -20 -19 -12 -19
10 -23 21 -11 32 10 11 13 8 7 -8z m1736 -468 c28 -35 29 -35 -90 41 -137 88
-231 144 -235 140 -3 -2 30 -44 73 -94 72 -83 173 -219 201 -272 11 -21 11
-22 -8 -10 -11 6 -18 16 -15 20 3 4 -2 5 -11 2 -9 -4 -36 9 -68 33 -28 21 -65
47 -82 57 -34 21 -74 65 -75 82 0 6 7 18 16 25 15 12 16 11 10 -7 -4 -14 0
-26 14 -39 24 -22 27 -9 3 17 -9 10 -12 18 -7 18 12 0 44 -36 38 -44 -2 -3 -1
-4 3 -1 4 3 23 -9 42 -27 48 -44 18 -6 -46 60 -28 30 -57 51 -63 47 -5 -3 -8
-10 -5 -15 3 -5 1 -11 -5 -15 -18 -11 -10 -88 25 -220 18 -71 32 -131 31 -133
-2 -1 -27 23 -55 54 -29 31 -55 54 -58 50 -3 -3 0 -12 6 -20 10 -12 9 -14 -8
-9 -14 4 -27 -2 -41 -18 l-19 -24 -1 73 c0 45 -6 84 -15 102 l-15 30 -48 -53
c-54 -61 -91 -92 -99 -83 -4 3 8 19 25 36 18 16 27 30 21 30 -8 0 -7 5 1 15
13 16 8 19 -25 15 -23 -2 -20 2 14 20 13 6 21 8 18 3 -3 -4 1 -17 9 -28 17
-22 18 -16 4 20 -9 23 -7 30 17 48 15 12 34 28 42 36 23 19 -8 -1 -104 -66
-69 -48 -115 -66 -115 -45 0 5 17 32 38 60 47 64 102 152 96 152 -3 0 -50 -34
-104 -75 -54 -41 -102 -75 -105 -75 -11 0 -60 63 -60 77 0 7 90 112 199 234
l199 221 206 -207 c113 -114 217 -221 231 -238z m-3150 243 c52 -58 127 -138
165 -178 72 -75 88 -102 61 -102 -9 0 -22 -11 -28 -25 -6 -14 -17 -25 -23 -25
-7 0 -43 23 -81 52 -77 58 -134 93 -134 84 0 -11 31 -57 83 -124 47 -62 54
-92 22 -92 -8 0 -15 4 -15 9 0 4 -17 20 -37 34 -21 15 -51 36 -68 48 l-30 23
23 -25 c12 -14 19 -29 15 -34 -5 -4 -3 -5 3 -2 6 3 28 -6 49 -20 22 -15 34
-28 27 -31 -7 -2 -12 -8 -12 -14 0 -6 8 -7 18 -4 15 5 15 4 2 -7 -8 -7 -20
-21 -26 -32 -6 -11 -16 -20 -21 -20 -16 0 -78 57 -106 97 l-25 38 -15 -33 c-9
-17 -48 -63 -87 -102 -40 -38 -76 -79 -80 -90 -17 -39 -11 17 9 101 38 151 38
214 1 169 -14 -17 -158 -105 -171 -105 -5 0 -9 -3 -9 -7 0 -11 -80 -76 -86
-70 -11 11 230 340 265 361 5 4 19 20 31 36 18 26 10 23 -87 -34 -60 -34 -129
-76 -153 -92 -85 -58 -99 -60 -49 -8 125 131 262 276 324 342 l69 73 41 -43
c22 -24 83 -90 135 -148z m1389 150 c0 -10 -3 -8 -9 5 -12 27 -12 43 0 25 5
-8 9 -22 9 -30z m2468 -66 c-3 -3 -12 -4 -19 -1 -8 3 -5 6 6 6 11 1 17 -2 13
-5z m-2202 -43 c3 -5 2 -12 -3 -15 -5 -3 -9 1 -9 9 0 17 3 19 12 6z m-54 -34
c-8 -8 -14 -7 -23 2 -11 10 -9 11 6 5 15 -6 17 -4 11 6 -6 9 -4 11 4 5 9 -5
10 -10 2 -18z m4 -48 c11 -16 1 -19 -13 -3 -7 8 -8 14 -3 14 5 0 13 -5 16 -11z
m122 5 c-3 -3 -12 -4 -19 -1 -8 3 -5 6 6 6 11 1 17 -2 13 -5z m-43 -40 c7 -19
2 -18 -19 6 -16 17 -16 20 -3 15 9 -4 19 -13 22 -21z m29 11 c-3 -9 -8 -14
-10 -11 -3 3 -2 9 2 15 9 16 15 13 8 -4z m-2466 -100 c-9 -28 -53 -32 -312
-29 -145 2 -283 8 -307 14 -24 5 -92 10 -153 11 -64 1 -95 4 -75 8 61 11 850
7 847 -4z m4246 4 c89 0 287 4 440 7 191 5 277 4 277 -3 0 -7 -40 -11 -112
-10 -65 0 -132 -5 -157 -12 -67 -19 -578 -22 -608 -3 -13 8 -23 19 -23 24 0 5
5 6 10 3 6 -4 84 -6 173 -6z m-1933 -96 c0 -7 -39 17 -46 28 -3 6 5 3 20 -6
14 -10 26 -19 26 -22z m380 -28 c13 -14 21 -25 18 -25 -2 0 -15 11 -28 25 -13
14 -21 25 -18 25 2 0 15 -11 28 -25z m-3304 -48 c56 -28 103 -77 134 -137 35
-68 28 -74 -40 -40 -33 16 -67 30 -77 31 -16 0 -15 1 2 8 18 7 17 10 -15 30
-52 32 -134 53 -193 49 l-52 -3 -6 38 c-8 50 9 58 116 53 62 -3 93 -10 131
-29z m5527 27 c31 -6 37 -11 37 -30 0 -13 -9 -41 -21 -62 -13 -22 -19 -28 -16
-14 5 21 3 22 -58 18 -68 -4 -175 -48 -175 -72 0 -8 -27 -27 -60 -44 -39 -20
-60 -26 -60 -18 1 21 39 100 66 135 53 70 172 106 287 87z m-2716 -26 c-3 -8
-6 -5 -6 6 -1 11 2 17 5 13 3 -3 4 -12 1 -19z m557 -7 c-2 -3 -12 3 -22 13
-16 17 -16 18 5 5 12 -7 20 -15 17 -18z m-219 -21 c15 -17 16 -20 3 -20 -9 0
-18 9 -21 20 -3 11 -4 20 -3 20 2 0 11 -9 21 -20z m-15 -30 c8 -5 12 -11 9
-14 -3 -3 -14 1 -25 9 -21 16 -8 20 16 5z m-1943 -72 c-3 -8 -6 -5 -6 6 -1 11
2 17 5 13 3 -3 4 -12 1 -19z m-1219 -5 c-10 -2 -26 -2 -35 0 -10 3 -2 5 17 5
19 0 27 -2 18 -5z m5552 -3 c0 -5 -5 -10 -11 -10 -5 0 -7 5 -4 10 3 6 8 10 11
10 2 0 4 -4 4 -10z m-4004 -52 c-32 -49 -381 -356 -392 -346 -8 9 380 367 399
368 4 0 1 -10 -7 -22z m2444 -164 c210 -188 267 -262 80 -103 -148 125 -228
200 -267 248 l-38 46 50 -40 c28 -21 106 -89 175 -151z m-1100 156 c0 -5 -2
-10 -4 -10 -3 0 -8 5 -11 10 -3 6 -1 10 4 10 6 0 11 -4 11 -10z m1301 -7 c13
-16 12 -17 -3 -4 -10 7 -18 15 -18 17 0 8 8 3 21 -13z m49 -23 c6 -11 8 -20 6
-20 -3 0 -10 9 -16 20 -6 11 -8 20 -6 20 3 0 10 -9 16 -20z m-3140 -14 c0 -3
-4 -8 -10 -11 -5 -3 -10 -1 -10 4 0 6 5 11 10 11 6 0 10 -2 10 -4z m1800 -22
c0 -18 -4 -18 -24 5 -17 19 -17 19 3 14 12 -3 21 -12 21 -19z m-1836 -20 c3
-8 2 -12 -4 -9 -6 3 -10 10 -10 16 0 14 7 11 14 -7z m-978 -20 c76 -35 115
-67 139 -113 20 -40 29 -48 66 -58 44 -12 196 -106 234 -145 l20 -20 -34 6
c-18 3 -64 6 -102 6 -57 0 -69 3 -69 16 0 14 3 14 16 3 12 -10 17 -10 23 0 6
9 15 9 34 2 15 -6 27 -7 27 -3 0 9 -132 69 -195 87 -26 8 -67 15 -89 15 -68 0
-93 -32 -27 -34 19 -1 26 -4 20 -11 -6 -6 -20 -5 -39 2 -16 6 -59 10 -95 8
-36 -1 -62 1 -59 6 3 5 22 9 42 9 27 0 41 6 50 21 8 12 9 18 3 14 -6 -3 -11
-2 -11 2 0 5 9 14 20 21 25 16 16 40 -18 45 -27 4 -27 4 -2 5 14 1 38 -9 54
-23 25 -20 28 -26 17 -39 -14 -17 -11 -19 13 -10 70 27 -89 115 -210 117 -53
1 -54 2 -64 37 -5 19 -10 38 -10 42 0 24 189 19 246 -8z m5439 14 c8 -7 -24
-106 -37 -114 -7 -5 -9 -2 -5 9 7 20 -14 25 -68 16 -89 -16 -145 -35 -145 -51
0 -5 -4 -7 -9 -4 -5 3 -15 -1 -22 -10 -10 -12 -10 -20 -1 -35 15 -24 -8 -38
-60 -33 -20 2 -43 -2 -50 -9 -7 -7 -22 -13 -33 -14 -37 -4 -96 -33 -89 -45 4
-7 3 -8 -4 -4 -6 3 -27 -2 -47 -13 -29 -15 -33 -20 -18 -24 11 -3 6 -5 -12 -6
-17 0 -46 -5 -64 -11 -19 -5 -36 -8 -38 -6 -3 2 29 30 69 61 73 58 178 115
210 115 10 0 26 16 37 38 51 100 166 155 309 148 40 -1 75 -5 77 -8z m-3725
-2 c0 -2 -8 -10 -17 -17 -16 -13 -17 -12 -4 4 13 16 21 21 21 13z m790 -15 c0
-5 -6 -14 -14 -20 -12 -10 -13 -8 -9 8 5 21 23 30 23 12z m-1530 -4 c0 -2 -14
-16 -31 -33 -30 -27 -31 -28 -18 -4 8 14 19 28 24 32 10 8 25 11 25 5z m1755
-17 c3 -5 1 -10 -4 -10 -6 0 -11 5 -11 10 0 6 2 10 4 10 3 0 8 -4 11 -10z
m2643 -67 c-10 -2 -26 -2 -35 0 -10 3 -2 5 17 5 19 0 27 -2 18 -5z m-103 -19
c13 -5 14 -8 3 -15 -9 -6 -7 -9 9 -9 12 0 23 -3 26 -7 2 -5 2 -3 1 4 -3 13 18
23 46 23 10 0 17 -6 16 -15 -3 -21 -16 -31 -16 -12 0 10 -8 17 -17 17 -14 0
-15 -2 -4 -9 7 -5 9 -10 4 -12 -5 -2 -1 -12 9 -21 15 -15 18 -15 18 -3 0 8 5
15 10 15 6 0 10 10 10 22 0 12 3 19 6 15 9 -9 -17 -108 -27 -101 -5 3 -7 -1
-4 -8 4 -10 -15 -13 -82 -13 -100 0 -173 -24 -256 -82 -60 -42 -75 -43 -18 -1
39 28 42 33 25 40 -16 6 -15 7 6 6 14 0 34 3 45 7 11 4 35 14 54 21 18 8 43
14 55 14 11 0 28 5 36 10 10 7 2 8 -28 4 -43 -7 -44 -6 -30 15 11 18 11 23 -2
32 -12 8 -11 9 5 7 11 -1 26 1 34 6 10 7 12 5 6 -5 -6 -11 -5 -12 6 -1 7 6 21
12 30 12 12 0 17 7 16 20 -1 14 -6 19 -17 14 -36 -14 -43 -14 -20 0 30 18 25
17 45 10z m-5388 -20 c-3 -3 -12 -4 -19 -1 -8 3 -5 6 6 6 11 1 17 -2 13 -5z
m-60 -66 c-3 -7 -5 -2 -5 12 0 14 2 19 5 13 2 -7 2 -19 0 -25z m3073 17 c11
-13 10 -14 -4 -9 -9 3 -16 10 -16 15 0 13 6 11 20 -6z m-3042 -53 c2 -7 -3
-12 -12 -12 -9 0 -16 7 -16 16 0 17 22 14 28 -4z m5272 -2 c0 -11 -40 -24 -47
-16 -4 3 2 6 11 6 12 0 16 5 13 14 -4 10 -1 13 9 9 7 -3 14 -9 14 -13z m-47 3
c-7 -2 -19 -2 -25 0 -7 3 -2 5 12 5 14 0 19 -2 13 -5z m-2102 -20 c13 -16 12
-17 -3 -4 -10 7 -18 15 -18 17 0 8 8 3 21 -13z m2079 -3 c13 -9 13 -10 0 -10
-8 0 -22 5 -30 10 -13 9 -13 10 0 10 8 0 22 -5 30 -10z m-53 -6 c-3 -3 -12 -4
-19 -1 -8 3 -5 6 6 6 11 1 17 -2 13 -5z m-4769 -68 c7 1 8 0 2 -3 -7 -3 -5
-12 6 -24 28 -31 6 -22 -40 16 -24 19 -47 35 -52 35 -5 0 -20 10 -34 21 -15
13 1 7 40 -13 36 -19 71 -34 78 -32z m4770 35 c11 -7 10 -9 -3 -14 -10 -4 -14
-3 -9 4 4 8 -1 9 -17 4 -19 -5 -21 -4 -9 4 18 13 21 13 38 2z m-3989 -130 c91
-54 216 -126 276 -159 61 -34 119 -68 130 -77 l20 -16 -20 5 c-11 3 -58 17
-104 31 -103 31 -145 31 -204 1 l-46 -23 -38 38 c-21 21 -44 37 -52 34 -8 -3
-11 0 -8 9 7 17 -16 40 -27 28 -4 -4 -6 -2 -5 3 2 6 -26 38 -61 72 -69 67 -67
66 -139 35 -20 -9 -40 -15 -45 -13 -4 1 -18 -4 -30 -12 -11 -7 -41 -19 -64
-26 -24 -7 -41 -15 -38 -18 3 -3 19 0 36 7 23 9 34 10 42 2 6 -6 23 -10 37 -8
15 2 18 1 6 -2 -18 -5 -18 -6 5 -13 22 -8 22 -8 -6 -4 -17 2 -36 -1 -41 -6 -8
-8 -13 -7 -17 0 -4 6 0 11 11 11 15 0 15 2 3 10 -8 5 -19 5 -25 1 -18 -15 -78
-25 -71 -12 4 6 -17 2 -46 -10 -29 -12 -60 -24 -68 -27 -8 -3 -20 -13 -27 -21
-7 -9 -13 -13 -13 -8 0 4 -16 0 -36 -8 -60 -25 -71 -17 -21 14 103 66 480 258
511 260 4 1 83 -43 175 -98z m3577 -10 c184 -90 346 -181 323 -181 -3 0 -48
18 -99 41 -52 22 -130 51 -174 64 -45 13 -100 30 -124 39 -24 8 -65 18 -93 22
-43 6 -54 3 -88 -20 -41 -29 -89 -76 -77 -76 4 0 29 16 54 36 28 21 35 25 17
8 -16 -15 -29 -32 -27 -37 1 -4 -3 -5 -9 -1 -8 4 -9 0 -4 -15 4 -13 2 -21 -5
-21 -6 0 -8 5 -5 10 3 6 -3 10 -15 10 -13 0 -43 -22 -75 -56 l-54 -55 -29 21
c-55 41 -134 37 -286 -12 -32 -11 -60 -17 -63 -15 -2 3 60 42 139 87 79 46
190 111 248 145 163 96 194 113 210 114 8 0 114 -48 236 -108z m-3776 -5 c0
-2 -7 -7 -16 -10 -8 -3 -12 -2 -9 4 6 10 25 14 25 6z m-130 -46 c-8 -5 -22
-10 -30 -10 -13 0 -13 1 0 10 8 5 22 10 30 10 13 0 13 -1 0 -10z m3696 -14 c0
-14 -5 -21 -9 -17 -4 4 -5 15 -1 24 9 24 12 21 10 -7z m114 -17 c-12 -8 -9 -9
13 -5 16 4 27 2 27 -4 0 -6 -20 -9 -45 -8 -39 1 -42 3 -27 14 9 7 24 13 32 14
13 0 13 -1 0 -11z m-136 -23 c-4 -9 6 -16 30 -20 20 -4 36 -11 36 -17 0 -6 -3
-8 -7 -6 -5 3 -27 10 -51 17 -36 9 -41 14 -32 26 16 18 31 18 24 0z m-3797
-10 c1 -1 -29 -8 -67 -17 -38 -8 -67 -12 -64 -8 3 5 20 11 39 15 19 3 35 10
35 15 0 7 45 3 57 -5z m4040 8 c-3 -3 -12 -4 -19 -1 -8 3 -5 6 6 6 11 1 17 -2
13 -5z m-3711 -13 c5 -5 23 -11 39 -14 17 -2 6 -4 -22 -3 -51 1 -61 5 -46 19
9 9 17 9 29 -2z m3559 -17 c11 -17 12 -25 4 -22 -6 2 -16 14 -20 26 -11 29 -5
28 16 -4z m268 9 c-7 -2 -19 -2 -25 0 -7 3 -2 5 12 5 14 0 19 -2 13 -5z
m-3885 -10 c-10 -2 -26 -2 -35 0 -10 3 -2 5 17 5 19 0 27 -2 18 -5z m3929 1
c-3 -3 -12 -4 -19 -1 -8 3 -5 6 6 6 11 1 17 -2 13 -5z m-4017 -18 c0 -2 -7 -7
-16 -10 -8 -3 -12 -2 -9 4 6 10 25 14 25 6z m2625 -218 c515 -12 653 -24 310
-27 -71 -1 -260 -10 -420 -21 -159 -11 -308 -20 -330 -21 -72 -3 202 -17 590
-29 209 -7 381 -13 383 -15 1 -1 -104 -5 -234 -9 -130 -4 -343 -13 -473 -21
-130 -8 -251 -15 -270 -15 -19 0 -32 -2 -29 -5 9 -9 532 -35 733 -36 110 -1
250 -4 310 -8 l110 -6 -165 -8 c-91 -4 -322 -11 -515 -17 -360 -10 -539 -20
-531 -27 4 -5 680 -41 821 -45 115 -2 51 -6 -419 -23 -231 -8 -421 -17 -424
-19 -8 -8 603 -45 788 -48 l105 -1 -140 -7 c-77 -5 -264 -13 -415 -20 -151 -7
-293 -15 -315 -19 -60 -11 0 -15 670 -48 l160 -8 -180 -6 c-340 -12 -699 -31
-718 -38 -19 -7 535 -39 898 -51 l210 -7 -185 -1 c-332 -3 -1033 -31 -975 -39
23 -3 289 -20 560 -37 l190 -11 -255 -13 c-140 -7 -311 -15 -379 -19 -67 -3
-117 -9 -110 -13 20 -11 677 -40 944 -42 206 -1 219 -2 120 -9 -60 -4 -310
-13 -555 -19 -245 -6 -465 -15 -490 -19 -36 -7 -39 -9 -15 -10 17 -1 140 -8
275 -16 135 -8 324 -18 420 -22 l175 -8 -320 -11 c-453 -16 -608 -26 -565 -35
44 -9 431 -29 730 -38 l225 -6 -225 -8 c-124 -5 -346 -15 -495 -22 -148 -8
-283 -15 -299 -15 -18 0 -26 -4 -20 -9 9 -9 250 -22 759 -42 154 -6 281 -12
283 -13 6 -6 -753 -21 -1058 -21 -336 0 -1113 15 -1107 21 2 2 138 8 303 14
439 14 768 32 778 41 6 5 0 9 -15 9 -14 0 -153 6 -310 14 -156 8 -381 18 -499
23 l-215 7 235 7 c286 9 657 29 702 38 23 5 -4 10 -92 15 -223 12 -532 26
-660 27 -69 2 -109 4 -90 6 27 2 725 39 831 44 18 1 16 3 -11 10 -19 5 -289
16 -600 24 -310 9 -566 17 -567 19 -2 1 167 6 374 10 353 6 808 27 819 38 6 7
-119 14 -476 30 l-285 13 195 11 c107 7 274 18 370 25 153 12 168 14 119 21
-71 9 -621 27 -884 30 l-200 1 240 8 c132 4 310 12 395 18 85 6 224 14 308 17
83 4 152 10 152 14 0 4 -71 11 -157 14 -87 4 -230 12 -318 17 -88 5 -221 10
-295 10 l-135 2 165 8 c357 16 598 30 655 36 l60 7 -70 7 c-38 4 -176 12 -305
19 -129 6 -291 15 -360 19 l-125 7 195 8 c252 10 620 33 626 39 8 7 -163 16
-521 28 -187 6 -341 12 -343 13 -1 2 69 6 155 9 279 12 695 36 700 41 8 8
-158 16 -627 31 -256 8 -485 16 -510 17 -82 3 212 16 390 17 164 1 371 11 605
28 l100 7 -80 7 c-98 8 -474 28 -730 38 -140 6 -163 8 -88 9 130 2 863 31 883
36 28 5 -432 34 -880 55 l-175 8 215 3 c118 1 310 6 425 10 371 11 905 11
1490 -2z m-335 -1165 c395 -16 443 -19 360 -26 -131 -12 -1430 -11 -1565 0
l-110 10 85 3 c47 1 216 8 375 14 160 7 315 14 345 15 30 1 260 -6 510 -16z
m-40 -102 l115 -6 -170 -10 c-215 -13 -464 -12 -670 0 -153 9 -157 10 -80 16
110 7 664 8 805 0z"/>
<path d="M5160 7520 c0 -5 7 -7 15 -4 8 4 15 8 15 10 0 2 -7 4 -15 4 -8 0 -15
-4 -15 -10z"/>
<path d="M4871 7416 c-6 -7 -31 -21 -56 -31 -28 -10 -45 -23 -45 -33 -1 -9
-12 -30 -25 -47 l-25 -30 9 33 c6 18 6 30 1 27 -4 -2 -11 -20 -14 -38 -3 -18
-15 -49 -26 -69 -12 -22 -16 -40 -10 -43 6 -3 10 -13 10 -21 0 -9 7 -22 15
-30 13 -14 13 -17 0 -30 -22 -23 -18 -36 20 -64 16 -11 15 -8 -4 12 -25 29
-20 53 9 45 13 -3 17 0 13 9 -6 17 11 18 38 4 13 -8 19 -7 19 0 0 6 4 9 9 5 5
-3 13 0 17 6 4 7 3 9 -4 5 -6 -3 -13 -2 -17 3 -3 6 4 15 15 21 18 9 23 7 38
-19 20 -36 27 -39 29 -11 1 11 -2 18 -7 15 -4 -3 -11 2 -14 11 -9 24 -7 31 4
14 7 -11 10 -11 10 -2 0 7 4 11 10 7 5 -3 19 0 30 7 17 11 20 20 15 48 -5 30
-2 39 20 58 24 21 25 23 10 57 -8 20 -10 33 -5 30 6 -3 10 -1 10 4 0 6 -7 11
-15 11 -8 0 -15 5 -15 11 0 6 7 9 15 5 8 -3 15 -3 15 0 0 3 -7 12 -15 20 -8 9
-15 11 -15 5 0 -6 -7 -11 -15 -11 -8 0 -15 -8 -16 -17 0 -15 -2 -15 -8 2 -5
11 -7 23 -4 28 7 13 -14 8 -26 -7z m49 -216 c-8 -5 -19 -10 -25 -10 -5 0 -3 5
5 10 8 5 20 10 25 10 6 0 3 -5 -5 -10z"/>
<path d="M5250 7400 c-8 -16 -21 -20 -60 -20 l-50 0 0 -53 c0 -29 -6 -59 -12
-66 -11 -10 -8 -10 13 -3 14 6 31 7 38 3 7 -5 23 -6 35 -4 18 4 26 -2 40 -31
19 -40 20 -40 64 -25 47 16 63 4 19 -15 -44 -19 -52 -33 -38 -68 24 -64 143
-147 129 -90 -5 16 0 18 30 17 23 -2 47 5 67 19 40 28 42 30 43 80 l2 43 -50
7 c-67 9 -94 35 -85 82 7 39 -12 47 -33 14 -18 -29 -29 -25 -53 22 -24 47 -70
108 -81 108 -4 0 -12 -9 -18 -20z"/>
<path d="M4650 7351 c0 -7 -4 -10 -9 -6 -16 9 -58 -57 -69 -108 -8 -38 -7 -50
4 -54 24 -9 32 6 45 83 6 41 15 70 19 64 5 -8 9 -6 14 6 3 9 4 19 1 22 -3 3
-5 0 -5 -7z"/>
<path d="M5615 7329 c17 -7 44 -21 60 -32 l30 -20 -25 26 c-14 15 -41 29 -60
32 l-35 5 30 -11z"/>
<path d="M5614 7301 c3 -5 16 -11 28 -14 22 -6 22 -5 4 8 -22 17 -40 20 -32 6z"/>
<path d="M4555 7160 c-3 -5 -1 -10 4 -10 6 0 11 5 11 10 0 6 -2 10 -4 10 -3 0
-8 -4 -11 -10z"/>
<path d="M5636 7128 c-9 -34 -7 -130 2 -124 15 9 52 -24 52 -46 0 -16 5 -19
21 -15 12 3 32 2 45 -3 28 -11 30 -3 10 44 -12 28 -12 38 -1 59 18 34 -2 62
-62 88 -56 24 -59 24 -67 -3z"/>
<path d="M4640 7131 c0 -6 4 -13 10 -16 6 -3 7 1 4 9 -7 18 -14 21 -14 7z"/>
<path d="M4511 7090 c-10 -25 -22 -66 -26 -92 -6 -41 -4 -48 14 -57 16 -9 21
-21 21 -56 0 -61 12 -88 66 -145 53 -56 80 -63 108 -25 25 34 36 31 68 -15 35
-50 67 -53 98 -10 l22 30 27 -22 c16 -13 40 -42 55 -64 23 -37 30 -41 59 -38
21 3 27 1 18 -5 -8 -5 -21 -7 -29 -3 -10 3 -13 0 -10 -9 3 -8 12 -13 21 -13 9
1 14 -2 11 -7 -3 -5 2 -9 11 -9 10 0 13 5 9 12 -4 6 -3 8 4 4 12 -7 62 13 62
26 0 5 -3 7 -7 5 -5 -3 -16 5 -25 17 -14 20 -15 26 -3 47 33 56 32 60 -7 64
-13 1 -26 3 -29 4 -4 0 -13 16 -20 34 -12 29 -69 97 -83 97 -3 0 -14 -20 -24
-44 -11 -24 -25 -47 -32 -51 -20 -12 -50 35 -50 79 0 30 -3 37 -15 32 -8 -3
-22 -9 -30 -12 -11 -5 -15 1 -15 19 0 14 -3 28 -7 30 -5 3 -6 -17 -4 -45 4
-61 -11 -81 -37 -48 -16 20 -21 21 -42 10 l-23 -12 7 51 c5 42 2 60 -17 103
-13 29 -27 63 -31 76 -5 13 -15 22 -24 21 -33 -3 -40 1 -55 33 l-16 33 -20
-45z"/>
<path d="M4670 7100 c-9 -17 -9 -25 1 -34 9 -8 11 -7 6 5 -3 9 0 22 6 28 6 6
8 13 5 17 -4 3 -12 -4 -18 -16z"/>
<path d="M4990 7099 c0 -5 6 -9 13 -9 8 0 7 -4 -3 -10 -13 -9 -13 -11 0 -20
10 -6 11 -10 3 -10 -7 0 -13 -10 -13 -22 -1 -22 -2 -22 -14 -5 -12 15 -14 16
-20 2 -3 -8 -13 -15 -23 -15 -16 0 -16 -2 -3 -11 11 -8 12 -12 3 -16 -7 -2
-13 -9 -13 -14 0 -6 8 -5 20 1 10 6 17 17 14 24 -3 8 -1 17 5 21 6 3 11 -2 11
-12 0 -10 5 -25 11 -33 9 -12 10 -11 6 7 -5 21 -4 21 19 7 13 -9 27 -13 33
-10 5 3 12 0 14 -6 3 -8 6 -6 6 4 1 10 -9 26 -20 37 -17 16 -20 27 -15 54 5
29 3 35 -14 40 -11 3 -20 1 -20 -4z"/>
<path d="M4735 6990 c-3 -5 -2 -10 4 -10 5 0 13 5 16 10 3 6 2 10 -4 10 -5 0
-13 -4 -16 -10z"/>
<path d="M4954 6964 c-4 -10 -10 -23 -12 -29 -3 -5 3 -3 13 5 17 14 18 13 12
-2 -3 -10 -2 -18 3 -18 6 0 10 5 10 10 0 6 6 10 14 10 17 0 31 18 21 28 -3 3
-10 0 -16 -8 -8 -13 -11 -12 -24 4 -14 19 -15 19 -21 0z"/>
<path d="M4820 6920 c-8 -5 -12 -11 -9 -14 2 -3 11 -1 19 4 8 5 12 11 9 14 -2
3 -11 1 -19 -4z"/>
<path d="M4567 6636 c-11 -29 15 -71 60 -95 49 -25 44 0 -11 63 -34 39 -44 45
-49 32z"/>
<path d="M4880 6625 c0 -14 37 -41 46 -33 6 6 -26 48 -37 48 -5 0 -9 -7 -9
-15z"/>
<path d="M4782 6604 c-38 -26 -24 -65 38 -107 42 -29 60 -23 56 21 -2 20 -4
52 -5 70 -1 29 -4 32 -34 32 -18 0 -43 -7 -55 -16z"/>
<path d="M4922 6538 c3 -30 6 -33 37 -33 19 0 36 6 39 13 2 6 -4 12 -12 12 -9
0 -24 9 -33 20 -25 29 -35 25 -31 -12z"/>
<path d="M4680 6443 c0 -11 50 -54 103 -86 42 -27 32 -5 -11 22 -20 14 -49 36
-64 50 -16 14 -28 20 -28 14z"/>
<path d="M5151 6361 c-12 -8 -12 -12 -2 -25 24 -29 90 -14 78 18 -7 18 -53 22
-76 7z"/>
<path d="M3317 6831 c-33 -11 -117 -63 -117 -73 0 -4 -6 -5 -13 -2 -8 3 -20
-2 -27 -11 -7 -8 -9 -15 -5 -15 4 0 -9 -21 -28 -47 -44 -61 -75 -129 -87 -194
-15 -76 -12 -215 6 -289 24 -104 118 -243 200 -296 41 -27 20 -26 -27 1 -46
26 -64 31 -55 16 10 -16 109 -67 161 -84 76 -24 188 -40 239 -35 113 13 235
160 282 340 20 76 15 246 -10 323 -40 129 -161 272 -281 331 -75 37 -181 53
-238 35z"/>
<path d="M3108 6698 c-16 -16 -28 -33 -28 -39 0 -5 -4 -9 -8 -9 -9 0 -35 -50
-30 -56 2 -1 27 29 55 67 54 71 58 88 11 37z"/>
<path d="M3013 6642 c-13 -15 -23 -31 -23 -37 0 -11 49 46 50 58 0 11 -3 9
-27 -21z"/>
<path d="M2980 6483 c0 -12 -4 -25 -10 -28 -12 -7 -13 -52 -2 -59 4 -2 14 0
22 5 11 8 12 12 3 15 -9 4 -9 11 -1 29 7 16 7 28 -1 41 -10 18 -10 18 -11 -3z"/>
<path d="M2905 6430 c-3 -5 -1 -10 4 -10 6 0 11 5 11 10 0 6 -2 10 -4 10 -3 0
-8 -4 -11 -10z"/>
<path d="M2887 6363 c-12 -11 -8 -21 13 -26 15 -4 20 0 20 14 0 18 -20 26 -33
12z"/>
<path d="M2963 6363 c-19 -7 -16 -26 6 -45 18 -15 19 -15 24 4 6 21 -1 49 -12
47 -3 0 -12 -3 -18 -6z"/>
<path d="M2880 6273 c1 -29 40 -41 40 -13 0 13 -7 20 -20 20 -11 0 -20 -3 -20
-7z"/>
<path d="M2950 6264 c0 -16 26 -43 42 -44 4 0 5 12 4 28 -4 31 -46 47 -46 16z"/>
<path d="M2890 6176 c0 -8 5 -18 10 -21 6 -3 10 -1 10 5 0 6 5 8 11 4 7 -4 10
-1 7 7 -7 20 -38 24 -38 5z"/>
<path d="M2952 6173 c2 -11 14 -19 31 -21 22 -3 27 1 27 17 0 17 -6 21 -31 21
-24 0 -30 -4 -27 -17z"/>
<path d="M2983 6097 c-3 -5 0 -14 6 -20 6 -6 11 -7 11 -1 0 5 4 3 9 -5 5 -8
16 -11 26 -7 17 6 17 8 -1 25 -21 19 -42 23 -51 8z"/>
<path d="M2850 6090 c0 -5 5 -10 10 -10 6 0 10 5 10 10 0 6 -4 10 -10 10 -5 0
-10 -4 -10 -10z"/>
<path d="M2910 6090 c0 -5 5 -10 10 -10 6 0 10 5 10 10 0 6 -4 10 -10 10 -5 0
-10 -4 -10 -10z"/>
<path d="M3020 6040 c0 -6 7 -10 15 -10 8 0 15 2 15 4 0 2 -7 6 -15 10 -8 3
-15 1 -15 -4z"/>
<path d="M2950 6010 c0 -5 7 -10 16 -10 8 0 12 5 9 10 -3 6 -10 10 -16 10 -5
0 -9 -4 -9 -10z"/>
<path d="M3080 6015 c0 -3 9 -16 21 -28 l20 -22 -9 24 c-8 23 -32 42 -32 26z"/>
<path d="M3030 6001 c0 -5 9 -7 20 -4 11 3 20 7 20 9 0 2 -9 4 -20 4 -11 0
-20 -4 -20 -9z"/>
<path d="M2990 5952 c0 -4 14 -21 32 -38 l31 -29 -22 32 c-23 35 -41 50 -41
35z"/>
<path d="M3235 5810 c22 -10 49 -19 60 -19 11 0 0 9 -25 19 -58 24 -88 24 -35
0z"/>
<path d="M3140 5816 c0 -2 7 -7 16 -10 8 -3 12 -2 9 4 -6 10 -25 14 -25 6z"/>
<path d="M3512 5775 c-16 -19 -11 -19 24 0 23 12 25 15 9 15 -11 -1 -26 -7
-33 -15z"/>
<path d="M3365 5770 c19 -8 113 -14 104 -6 -2 2 -31 6 -64 9 -38 4 -53 3 -40
-3z"/>
<path d="M6847 6821 c-175 -57 -314 -227 -353 -429 -18 -94 -18 -135 2 -229
20 -100 70 -197 138 -270 59 -64 98 -85 191 -102 60 -11 101 -6 142 18 14 8 9
9 -22 4 -22 -3 -37 -3 -34 0 3 4 33 9 68 11 36 3 74 12 90 23 14 9 30 16 34
15 5 -1 21 7 37 18 15 11 33 20 38 20 5 0 13 7 16 16 4 10 13 13 28 9 l23 -6
-23 20 c-22 19 -52 19 -52 0 0 -12 17 -11 23 1 3 6 4 5 3 -2 -2 -7 -13 -13
-25 -13 -14 0 -28 -10 -36 -25 -9 -17 -22 -25 -45 -26 l-31 -2 23 16 c13 8 51
44 85 78 66 68 120 166 143 259 14 61 15 231 0 269 -15 40 -13 41 17 4 15 -18
30 -35 34 -38 3 -3 5 -19 4 -36 -2 -26 0 -31 15 -27 17 5 17 8 5 50 -15 48
-114 222 -139 243 -21 16 -20 6 1 -28 12 -21 9 -19 -15 8 -36 40 -40 52 -14
44 14 -5 14 -4 2 4 -8 6 -18 8 -24 5 -5 -4 -7 1 -3 11 4 11 3 15 -4 10 -6 -3
-23 5 -37 19 -76 72 -194 94 -305 58z"/>
<path d="M7296 6669 c16 -20 34 -44 41 -55 6 -10 12 -14 12 -8 1 6 -17 31 -40
55 -30 32 -33 34 -13 8z"/>
<path d="M7435 6410 c-3 -5 -1 -10 4 -10 6 0 11 5 11 10 0 6 -2 10 -4 10 -3 0
-8 -4 -11 -10z"/>
<path d="M7368 6348 c6 -36 42 -40 42 -4 0 17 -7 25 -23 28 -20 4 -23 1 -19
-24z m32 -8 c0 -5 -4 -10 -10 -10 -5 0 -10 5 -10 10 0 6 5 10 10 10 6 0 10 -4
10 -10z"/>
<path d="M7342 6350 c0 -14 2 -19 5 -12 2 6 2 18 0 25 -3 6 -5 1 -5 -13z"/>
<path d="M7442 6351 c2 -7 7 -12 11 -12 12 1 9 15 -3 20 -7 2 -11 -2 -8 -8z"/>
<path d="M7371 6238 c0 -36 2 -39 9 -20 5 12 14 22 20 22 5 0 10 9 10 20 0 13
-7 20 -20 20 -17 0 -20 -6 -19 -42z"/>
<path d="M7331 6254 c0 -11 3 -14 6 -6 3 7 2 16 -1 19 -3 4 -6 -2 -5 -13z"/>
<path d="M7442 6261 c2 -7 7 -12 11 -12 12 1 9 15 -3 20 -7 2 -11 -2 -8 -8z"/>
<path d="M7319 6189 c-6 -18 -5 -49 2 -49 5 0 9 5 9 10 0 7 6 8 17 1 11 -5 26
-5 42 0 13 6 30 8 36 5 13 -5 42 10 35 17 -6 6 -140 21 -141 16z"/>
<path d="M7283 6085 c0 -6 11 -12 24 -13 13 -1 23 2 23 7 0 5 -10 11 -23 13
-14 3 -24 0 -24 -7z"/>
<path d="M7340 6091 c0 -5 -3 -17 -6 -25 -6 -15 -3 -14 24 1 17 10 28 21 26
25 -7 11 -44 10 -44 -1z"/>
<path d="M7411 6091 c-8 -5 -9 -11 -3 -15 14 -8 43 4 36 15 -7 11 -15 11 -33
0z"/>
<path d="M7300 6049 c0 -5 5 -7 10 -4 6 3 10 8 10 11 0 2 -4 4 -10 4 -5 0 -10
-5 -10 -11z"/>
<path d="M7365 6004 c-29 -24 -29 -25 -5 -18 31 8 43 19 39 33 -2 6 -17 0 -34
-15z"/>
<path d="M7246 5914 c-4 -10 -1 -14 6 -12 15 5 23 28 10 28 -5 0 -13 -7 -16
-16z"/>
<path d="M7193 5867 c-4 -8 -28 -26 -53 -40 -25 -15 -41 -27 -36 -27 17 0 94
50 100 65 7 19 0 20 -11 2z"/>
<path d="M6804 5775 c11 -8 25 -15 30 -15 6 0 2 7 -8 15 -11 8 -25 15 -30 15
-6 0 -2 -7 8 -15z"/>
<path d="M6952 5779 c7 -4 0 -9 -18 -12 l-29 -4 30 -1 c17 0 48 5 70 12 l40
12 -52 0 c-29 0 -48 -3 -41 -7z"/>
<path d="M6858 5753 c7 -3 16 -2 19 1 4 3 -2 6 -13 5 -11 0 -14 -3 -6 -6z"/>
<path d="M4800 5119 c-19 -16 -59 -48 -89 -71 -46 -35 -51 -42 -37 -50 14 -8
32 6 96 71 80 82 95 106 30 50z"/>
<path d="M2273 5323 c9 -2 23 -2 30 0 6 3 -1 5 -18 5 -16 0 -22 -2 -12 -5z"/>
<path d="M2335 5310 c28 -12 57 -12 50 0 -3 6 -21 10 -38 9 -27 0 -29 -2 -12
-9z"/>
<path d="M7993 5313 c9 -2 23 -2 30 0 6 3 -1 5 -18 5 -16 0 -22 -2 -12 -5z"/>
<path d="M7944 5280 c-122 -13 -111 -25 19 -21 67 1 124 5 126 7 18 17 -55 24
-145 14z"/>
<path d="M6890 4662 c0 -12 39 -60 40 -49 0 5 -9 20 -20 34 -11 14 -20 21 -20
15z"/>
<path d="M3572 4787 c-12 -13 -22 -27 -22 -31 0 -8 15 6 39 37 20 25 8 21 -17
-6z"/>
<path d="M3767 4729 c7 -7 15 -10 18 -7 3 3 -2 9 -12 12 -14 6 -15 5 -6 -5z"/>
<path d="M3489 4703 l-24 -28 28 24 c25 23 32 31 24 31 -2 0 -14 -12 -28 -27z"/>
<path d="M3872 4568 c-15 -15 -16 -31 -1 -26 6 2 10 7 9 12 -1 5 4 13 12 17 7
5 8 9 3 9 -6 0 -16 -5 -23 -12z"/>
<path d="M2571 4207 c-15 -19 -2 -29 15 -12 8 7 14 16 14 19 0 11 -17 6 -29
-7z"/>
</g>
</svg>
