<?xml version="1.0" standalone="no"?>
<!DOCTYPE svg PUBLIC "-//W3C//DTD SVG 20010904//EN"
 "http://www.w3.org/TR/2001/REC-SVG-20010904/DTD/svg10.dtd">
<svg version="1.0" xmlns="http://www.w3.org/2000/svg"
 width="1024.000000pt" height="1024.000000pt" viewBox="0 0 1024.000000 1024.000000"
 preserveAspectRatio="xMidYMid meet">

<g transform="translate(0.000000,1024.000000) scale(0.100000,-0.100000)"
fill="#000000" stroke="none">
<path d="M4710 9149 c-399 -48 -755 -137 -1090 -274 -128 -52 -419 -195 -550
-270 -578 -331 -1098 -846 -1463 -1448 -74 -121 -208 -382 -264 -512 -166
-387 -265 -800 -299 -1245 -46 -600 44 -1224 253 -1759 167 -428 436 -853 768
-1211 79 -86 280 -286 330 -330 307 -269 575 -445 950 -626 486 -233 960 -357
1515 -396 291 -20 699 9 1005 72 307 64 631 168 865 277 47 22 115 55 152 72
83 39 299 162 413 236 597 385 1110 949 1430 1570 248 483 382 1004 416 1615
26 484 -51 1024 -212 1471 -221 618 -538 1115 -1014 1595 -318 320 -732 603
-1191 812 -423 194 -788 296 -1235 346 -141 16 -659 19 -779 5z m385 -554 c0
-22 -31 -33 -47 -17 -17 17 -1 44 24 40 15 -2 23 -10 23 -23z m421 -38 c9 -27
-21 -50 -47 -36 -24 12 -25 45 -2 57 22 13 41 5 49 -21z m-817 9 c15 -18 -2
-56 -23 -56 -21 0 -38 27 -31 50 7 23 37 27 54 6z m1068 -12 c7 -19 -20 -49
-36 -40 -12 8 -15 39 -4 49 12 12 33 7 40 -9z m-1313 -21 c4 -9 0 -23 -9 -32
-13 -14 -17 -14 -30 0 -19 19 -10 49 15 49 10 0 21 -8 24 -17z m1631 -96 c8
-38 47 -76 85 -83 41 -9 38 -21 -8 -34 -47 -12 -66 -32 -82 -87 -15 -49 -25
-48 -34 1 -8 42 -51 81 -100 90 -48 9 -45 21 8 36 55 15 81 42 96 100 13 48
20 43 35 -23z m-2010 16 c8 -48 49 -91 92 -99 45 -9 50 -21 11 -29 -54 -12
-87 -42 -100 -91 -14 -52 -24 -56 -32 -11 -10 49 -37 77 -97 97 l-54 17 42 12
c61 17 102 55 109 102 8 49 20 50 29 2z m1235 -144 c140 -27 236 -60 350 -121
284 -151 484 -405 561 -713 43 -171 33 -457 -22 -626 -103 -316 -348 -580
-649 -699 -74 -30 -204 -67 -262 -75 l-46 -7 40 118 c56 165 69 244 69 414 0
219 -32 374 -110 526 -39 77 -70 115 -182 220 -33 32 -65 75 -83 113 -16 33
-34 61 -38 61 -5 0 -21 -11 -36 -25 -38 -35 -40 -13 -4 46 26 40 29 54 22 76
-11 35 -18 273 -7 266 4 -2 7 9 7 26 0 76 79 220 177 323 l56 58 -45 0 c-120
0 -326 -54 -473 -124 -141 -66 -233 -135 -365 -274 -126 -130 -154 -148 -70
-45 28 34 50 66 50 70 0 4 -7 0 -15 -11 -8 -10 -27 -32 -42 -50 -58 -63 -170
-233 -196 -296 -4 -8 -4 1 -1 20 10 60 98 231 162 316 136 180 310 301 542
378 196 65 394 76 610 35z m-1518 -166 c12 -13 29 -23 38 -23 33 0 28 -13 -13
-34 -34 -17 -45 -29 -55 -64 -15 -44 -32 -48 -32 -6 0 28 -49 84 -74 84 -9 0
-16 5 -16 10 0 6 6 10 14 10 27 0 66 42 77 83 l12 42 13 -40 c8 -21 24 -49 36
-62z m2654 -20 c14 -13 32 -23 40 -23 25 0 15 -16 -21 -33 -20 -9 -39 -27 -44
-39 -29 -76 -28 -75 -36 -53 -22 65 -36 84 -69 96 -20 7 -36 15 -36 19 1 3 20
14 43 25 35 17 44 28 56 65 l14 44 14 -39 c7 -22 25 -50 39 -62z m-3067 -109
c22 -49 61 -77 133 -95 50 -13 64 -29 26 -29 -87 0 -157 -55 -178 -137 -8 -29
-17 -53 -21 -53 -3 0 -9 16 -12 34 -8 51 -35 103 -63 120 -13 9 -49 23 -80 31
-31 8 -59 17 -62 19 -2 3 16 10 39 16 107 29 151 75 165 172 10 71 17 76 26
19 4 -29 17 -73 27 -97z m1481 87 c0 -11 -5 -23 -11 -27 -15 -9 -33 12 -26 30
9 23 37 20 37 -3z m2025 -157 c31 -40 68 -61 124 -70 23 -4 41 -10 41 -14 0
-4 -25 -12 -56 -19 -80 -18 -120 -58 -144 -141 -16 -61 -18 -63 -25 -35 -30
129 -61 160 -178 180 -38 6 -43 25 -6 25 11 0 44 11 74 25 60 29 85 67 106
165 l12 55 13 -68 c8 -44 23 -82 39 -103z m-2115 -84 c0 -15 -7 -20 -25 -20
-18 0 -25 5 -25 20 0 15 7 20 25 20 18 0 25 -5 25 -20z m-1915 -190 c0 -28 -4
-36 -21 -38 -28 -4 -48 22 -40 54 5 20 12 25 34 22 24 -3 27 -7 27 -38z m4585
11 c15 -28 -21 -71 -47 -55 -23 14 -28 41 -13 59 17 21 47 19 60 -4z m-3768
-18 c22 -20 24 -66 2 -87 -21 -22 -60 -20 -84 4 -55 55 24 135 82 83z m1056
-26 c13 -15 -1 -42 -17 -33 -13 8 -15 46 -2 46 5 0 13 -6 19 -13z m1867 -12
c29 -28 31 -51 9 -83 -10 -15 -25 -22 -46 -22 -63 0 -89 61 -46 107 28 30 53
29 83 -2z m-3477 -39 c7 -19 23 -41 37 -50 l24 -15 -35 -35 c-19 -19 -34 -43
-34 -55 0 -12 -4 -21 -10 -21 -5 0 -10 9 -10 21 0 12 -15 36 -34 55 l-34 34
34 34 c19 19 34 41 34 50 0 27 15 18 28 -18z m4044 -13 c26 -31 29 -54 11 -84
-14 -24 -24 -29 -55 -29 -27 0 -41 6 -52 22 -21 29 -20 67 1 90 21 23 75 24
95 1z m-3175 -55 c-3 -8 -6 -5 -6 6 -1 11 2 17 5 13 3 -3 4 -12 1 -19z m3738
-195 c22 -57 81 -107 148 -127 30 -9 65 -16 76 -16 36 0 23 -19 -21 -30 -83
-21 -104 -30 -140 -60 -42 -34 -71 -102 -89 -204 -6 -36 -14 -64 -19 -61 -4 2
-10 26 -13 52 -15 117 -61 204 -126 237 -14 8 -61 21 -103 31 -43 9 -78 18
-78 20 0 2 26 9 58 15 156 32 217 90 241 231 21 118 23 121 37 34 7 -44 20
-99 29 -122z m-5211 95 c28 -147 76 -201 202 -228 105 -22 105 -21 10 -46 -94
-26 -147 -57 -170 -102 -7 -15 -21 -61 -31 -102 -27 -120 -29 -122 -49 -29
-36 165 -77 206 -248 243 -34 8 -37 26 -5 26 46 0 133 33 173 66 33 27 45 46
62 101 12 37 24 87 28 111 3 24 8 42 10 40 2 -3 10 -38 18 -80z m1457 20 c-5
-29 -13 -77 -16 -105 -4 -29 -11 -53 -16 -53 -11 0 -11 11 0 81 13 75 31 142
38 136 2 -3 0 -29 -6 -59z m1034 -83 c0 -13 -8 -21 -22 -23 -19 -3 -23 1 -23
23 0 22 4 26 23 23 14 -2 22 -10 22 -23z m-337 -13 c2 -14 -2 -22 -12 -22 -19
0 -29 17 -22 36 8 22 30 12 34 -14z m-1162 -147 c11 -8 37 -20 59 -27 58 -17
62 -25 16 -33 -54 -9 -98 -46 -112 -96 -13 -43 -29 -52 -29 -15 0 45 -41 89
-100 107 -31 10 -49 19 -40 22 8 3 31 10 51 17 47 14 74 45 89 100 l13 45 17
-53 c10 -29 26 -59 36 -67z m3239 68 c9 -48 52 -90 109 -105 25 -7 46 -15 46
-19 0 -3 -19 -9 -41 -13 -53 -8 -105 -58 -114 -109 -7 -38 -25 -42 -25 -6 0
58 -72 118 -142 119 -15 0 -30 5 -33 10 -3 6 2 10 13 10 31 0 108 30 131 51
11 11 24 38 27 59 8 50 20 51 29 3z m-2804 -44 c-9 -23 -10 -23 -10 -2 -1 12
2 30 6 40 6 15 8 15 11 2 1 -8 -2 -26 -7 -40z m1159 -8 c0 -31 -21 -46 -39
-28 -15 15 -14 44 2 50 28 12 37 6 37 -22z m-1948 -218 c33 -30 16 -73 -29
-73 -33 0 -49 35 -28 66 18 28 32 30 57 7z m1571 -29 c-3 -8 -9 -14 -13 -14
-14 0 -22 20 -16 37 5 12 9 13 21 3 7 -6 11 -18 8 -26z m531 -10 c6 -17 -9
-44 -25 -44 -12 0 -31 39 -24 50 10 16 42 12 49 -6z m1814 -6 c17 -17 15 -43
-4 -59 -31 -26 -70 25 -44 56 15 18 32 19 48 3z m-2070 -40 c-2 -15 -11 -24
-25 -26 -19 -3 -23 1 -23 22 0 21 5 26 26 26 21 0 25 -4 22 -22z m2422 7 c10
-12 10 -21 2 -40 -14 -31 -56 -34 -72 -5 -24 44 38 83 70 45z m-4662 -84 c8
-4 12 -19 10 -32 -2 -18 -9 -24 -28 -24 -28 0 -39 27 -20 50 14 17 20 18 38 6z
m-545 -168 c12 -11 36 -25 52 -30 l30 -10 -36 -15 c-40 -17 -79 -61 -79 -89 0
-32 -20 -31 -26 1 -8 35 -57 90 -82 90 -9 0 -23 4 -31 9 -11 7 -4 12 25 20 51
14 80 45 90 96 l8 40 13 -46 c7 -25 23 -55 36 -66z m5837 66 c13 -48 53 -89
86 -89 35 0 29 -17 -10 -30 -40 -13 -64 -38 -75 -76 -10 -40 -28 -40 -35 -1
-7 39 -27 60 -75 80 l-33 14 45 22 c40 19 48 29 62 72 9 27 18 49 20 49 3 0 9
-19 15 -41z m-2900 -8 c0 -32 -34 -51 -44 -24 -13 34 -6 53 19 53 21 0 25 -5
25 -29z m1235 -81 c0 -18 -6 -26 -21 -28 -26 -4 -40 24 -23 45 18 21 44 11 44
-17z m-3096 -35 c187 -18 377 -154 461 -329 49 -103 64 -170 63 -276 -2 -205
-137 -441 -305 -530 -26 -13 -48 -22 -50 -20 -78 114 -117 198 -163 354 -33
114 -109 337 -125 365 -11 21 -14 22 -22 8 -10 -18 -28 -23 -28 -8 0 5 7 17
16 25 8 9 11 16 5 16 -7 0 -11 29 -11 76 0 44 -4 73 -9 69 -6 -3 -6 7 0 27 11
40 95 167 114 175 8 3 15 10 15 16 0 15 -127 2 -209 -23 -128 -38 -274 -145
-343 -251 -42 -66 -48 -47 -8 25 66 117 168 204 296 252 73 27 161 43 209 38
17 -2 59 -6 94 -9z m3815 0 c234 -50 400 -214 465 -460 13 -48 14 -234 2 -253
-5 -9 -10 29 -13 95 -4 88 -10 121 -33 177 -43 107 -91 180 -163 247 -62 58
-66 61 -74 39 -9 -24 -31 -22 -36 3 -2 10 3 17 13 17 9 0 13 5 10 10 -7 11
-119 70 -132 70 -4 0 12 -18 36 -40 23 -22 47 -38 52 -34 5 3 9 -2 9 -10 0 -8
15 -50 34 -93 79 -181 75 -340 -16 -548 -28 -63 -27 -62 -38 -45 -8 12 -10 10
-10 -8 0 -39 -26 -77 -97 -142 -64 -59 -151 -112 -218 -132 -16 -5 -66 -16
-110 -23 l-80 -14 -61 29 c-179 87 -306 323 -291 544 26 383 377 650 751 571z
m-3260 -1 c33 -13 14 -64 -24 -64 -15 0 -22 40 -10 55 14 17 13 17 34 9z m993
-40 c6 -16 -15 -37 -29 -28 -4 3 -8 14 -8 25 0 23 28 26 37 3z m457 -63 c10
-16 -5 -41 -25 -41 -14 0 -19 7 -19 25 0 18 5 25 19 25 11 0 22 -4 25 -9z
m-2194 -21 c0 -5 -7 -10 -16 -10 -8 0 -12 5 -9 10 3 6 10 10 16 10 5 0 9 -4 9
-10z m-120 -81 c0 -5 -7 -9 -15 -9 -15 0 -20 12 -9 23 8 8 24 -1 24 -14z
m-585 -34 c0 -25 -4 -30 -24 -30 -32 0 -49 28 -31 50 7 9 23 15 34 13 16 -2
21 -10 21 -33z m5525 7 c41 -33 21 -102 -30 -102 -24 0 -60 37 -60 62 0 27 27
58 50 58 10 0 28 -8 40 -18z m-540 -18 c0 -20 -17 -34 -40 -34 -14 0 -21 32
-10 46 18 21 50 13 50 -12z m-5400 -72 c0 -46 36 -160 64 -202 32 -48 82 -75
170 -92 36 -7 66 -15 66 -19 0 -3 -26 -11 -57 -18 -101 -22 -158 -54 -186
-102 -25 -44 -57 -151 -57 -193 0 -55 -15 -29 -32 56 -21 100 -52 165 -93 192
-22 14 -68 28 -168 50 -30 7 -28 26 3 26 41 0 153 43 185 71 38 34 68 111 80
212 7 57 25 70 25 19z m1045 18 c0 -7 -6 -15 -12 -17 -8 -3 -13 4 -13 17 0 13
5 20 13 18 6 -3 12 -11 12 -18z m5273 -209 c33 -55 84 -85 169 -102 35 -7 63
-16 63 -20 0 -4 -24 -12 -52 -19 -164 -36 -191 -66 -228 -245 l-17 -80 -13 60
c-37 176 -84 230 -227 260 -96 20 -95 23 7 46 140 30 190 90 221 266 l13 68
18 -94 c11 -63 27 -110 46 -140z m-2150 187 c30 -30 0 -78 -37 -58 -32 17 -21
70 14 70 6 0 16 -5 23 -12z m-2035 -30 c8 -12 7 -21 -2 -32 -29 -35 -69 -8
-55 36 7 23 42 21 57 -4z m-1203 -3 c0 -8 -4 -15 -10 -15 -5 0 -10 7 -10 15 0
8 5 15 10 15 6 0 10 -7 10 -15z m40 -170 c0 -8 -4 -15 -10 -15 -5 0 -10 7 -10
15 0 8 5 15 10 15 6 0 10 -7 10 -15z m230 -30 c0 -16 -6 -25 -15 -25 -9 0 -15
9 -15 25 0 16 6 25 15 25 9 0 15 -9 15 -25z m2811 -106 l30 -21 -27 -21 c-15
-11 -34 -38 -44 -59 l-17 -39 -7 31 c-3 18 -20 45 -38 61 l-31 30 32 29 c17
16 34 44 38 62 l6 33 15 -43 c8 -24 26 -51 43 -63z m-1643 40 c4 -25 -20 -49
-50 -49 -23 0 -50 42 -42 64 17 44 85 33 92 -15z m-1164 -55 c9 -23 8 -24 -14
-24 -19 0 -27 20 -13 33 11 11 20 8 27 -9z m2551 -14 c0 -18 -6 -26 -21 -28
-23 -3 -37 18 -27 44 10 25 48 13 48 -16z m-2755 -30 c0 -11 -4 -20 -9 -20
-11 0 -22 26 -14 34 12 12 23 5 23 -14z m250 -34 c0 -8 -4 -17 -9 -21 -12 -7
-24 12 -16 25 9 15 25 12 25 -4z m1590 -13 c33 -43 8 -103 -42 -103 -23 0 -68
43 -68 65 0 22 45 65 69 65 11 0 29 -12 41 -27z m-1970 -49 c0 -8 -7 -14 -15
-14 -15 0 -21 21 -9 33 10 9 24 -2 24 -19z m2241 16 c23 -13 24 -33 3 -54 -12
-12 -20 -13 -35 -6 -21 12 -25 40 -7 58 15 15 15 15 39 2z m337 -26 c4 -25
-20 -47 -42 -38 -16 6 -22 45 -9 58 14 14 48 1 51 -20z m642 1 c19 -23 8 -50
-20 -50 -16 0 -26 6 -28 18 -4 18 14 47 28 47 4 0 13 -7 20 -15z m-1880 -15
c4 0 13 -14 20 -30 11 -26 10 -33 -5 -50 -10 -11 -28 -20 -41 -20 -23 0 -54
33 -54 57 0 21 40 55 57 49 8 -3 18 -6 23 -6z m3588 -12 c29 -29 3 -84 -35
-76 -25 5 -44 47 -32 70 11 20 49 24 67 6z m-4558 -14 c0 -9 -5 -14 -12 -12
-18 6 -21 28 -4 28 9 0 16 -7 16 -16z m-200 -9 c0 -8 -4 -15 -10 -15 -5 0 -10
7 -10 15 0 8 5 15 10 15 6 0 10 -7 10 -15z m-521 -49 c17 -20 -3 -56 -29 -56
-21 0 -37 40 -25 59 9 16 41 13 54 -3z m788 -50 c-4 -9 -11 -16 -18 -16 -6 0
-8 7 -5 16 3 9 6 21 6 27 0 8 3 8 11 0 7 -7 9 -19 6 -27z m-120 -12 c3 -8 1
-25 -5 -37 -10 -22 -10 -22 -21 6 -11 29 -8 47 10 47 5 0 12 -7 16 -16z m1317
-33 c7 -43 62 -101 96 -101 35 0 31 -19 -7 -35 -52 -22 -82 -52 -89 -92 -7
-38 -24 -55 -24 -23 0 44 -28 89 -69 109 -22 12 -47 21 -56 21 -27 0 -7 17 27
24 47 9 87 49 94 96 8 51 20 51 28 1z m3430 5 c6 -34 27 -58 59 -69 24 -9 21
-19 -16 -42 -21 -13 -35 -33 -43 -60 l-12 -40 -21 48 c-15 35 -29 52 -51 60
-38 14 -38 20 3 38 24 10 36 25 47 57 8 23 17 42 21 42 4 0 10 -15 13 -34z
m-2220 -11 c9 -48 50 -93 92 -101 19 -3 34 -9 34 -13 -1 -3 -24 -17 -53 -31
-47 -22 -54 -30 -68 -75 -14 -41 -18 -46 -24 -30 -22 64 -30 77 -52 95 -13 10
-37 22 -53 25 -31 7 -41 25 -15 25 9 0 33 9 54 20 38 19 61 57 61 101 0 32 17
21 24 -16z m-2474 -64 c0 -16 -14 -20 -27 -10 -19 17 -16 28 7 22 11 -3 20 -9
20 -12z m768 -51 c15 -69 61 -126 111 -136 48 -10 46 -21 -9 -45 -60 -26 -87
-56 -101 -116 -6 -24 -14 -43 -18 -43 -4 0 -12 21 -19 46 -16 59 -57 100 -116
115 -25 6 -48 15 -51 19 -2 4 15 13 38 20 23 7 55 21 71 33 34 24 65 89 66
135 0 51 15 37 28 -28z m-1569 36 c23 -28 -17 -68 -45 -45 -8 6 -14 22 -14 35
0 19 5 24 24 24 13 0 29 -6 35 -14z m3785 -114 c19 -37 65 -69 114 -78 43 -8
40 -18 -8 -33 -61 -18 -104 -62 -124 -126 -10 -30 -19 -55 -21 -55 -2 0 -11
24 -19 54 -19 66 -68 113 -126 122 -22 4 -40 10 -40 14 0 5 23 16 51 26 28 10
62 31 75 47 21 25 52 108 55 146 1 9 7 -6 14 -34 6 -27 19 -65 29 -83z m-4359
58 c15 -17 16 -24 7 -46 -17 -35 -63 -31 -76 8 -18 50 33 78 69 38z m3390
-157 c292 -352 370 -443 377 -443 4 0 15 11 24 25 9 14 22 25 28 25 11 0 124
-125 245 -272 35 -43 66 -78 71 -78 4 0 11 -9 16 -20 9 -19 59 -77 162 -188
28 -31 52 -61 52 -66 0 -5 17 -26 38 -47 42 -43 114 -123 140 -156 16 -21 24
-22 215 -24 184 -3 199 -1 217 17 19 19 17 19 -205 17 -244 -2 -292 7 -165 31
14 3 1 3 -27 1 -42 -3 -53 -1 -53 10 0 8 -5 15 -12 15 -6 0 -8 3 -4 7 4 5 13
1 19 -7 10 -12 31 -14 117 -10 l105 5 -105 5 c-85 5 -65 6 103 8 140 1 207 -1
207 -9 0 -6 5 -7 13 -2 14 9 57 12 57 3 0 -3 -6 -12 -12 -19 -7 -7 3 -4 22 7
32 19 52 21 255 21 137 0 214 -4 205 -10 -12 -7 -11 -9 6 -9 20 0 92 42 104
60 12 19 142 51 213 53 l77 2 -6 35 c-3 19 -10 52 -14 73 -14 64 7 184 45 265
103 218 333 323 562 256 19 -5 22 0 33 53 24 118 104 237 200 298 35 22 94 45
153 59 l27 6 0 -145 c0 -99 -3 -145 -11 -145 -28 0 -140 -64 -176 -100 -22
-22 -57 -71 -77 -109 -33 -64 -37 -79 -43 -178 l-6 -108 -76 0 c-64 0 -86 -5
-142 -31 -42 -20 -76 -45 -96 -71 -20 -24 -47 -44 -71 -52 -79 -26 -156 -126
-169 -216 -6 -45 -11 -52 -29 -36 -5 4 -37 14 -71 21 -53 11 -72 10 -136 -4
-83 -19 -176 -69 -220 -119 -16 -18 -42 -61 -59 -97 -26 -55 -31 -77 -31 -140
0 -98 10 -139 41 -172 l25 -27 27 38 c68 93 173 159 299 187 64 15 89 16 163
6 47 -6 113 -21 147 -35 l60 -24 6 46 c16 119 66 214 157 297 86 78 203 124
316 124 l53 0 -7 -37 c-4 -21 -27 -103 -53 -182 -38 -117 -50 -145 -66 -147
-107 -15 -187 -56 -254 -130 -27 -29 -59 -78 -72 -109 -22 -54 -23 -55 -64
-55 -23 0 -62 -7 -86 -15 -49 -17 -119 -69 -119 -89 0 -10 -13 -10 -67 0 -73
14 -112 11 -183 -14 -41 -14 -90 -47 -90 -61 0 -7 101 -132 142 -176 l28 -29
-27 -28 c-15 -15 -30 -28 -34 -28 -5 0 -86 93 -181 206 -95 114 -202 241 -238
283 -107 127 -362 412 -365 409 -8 -8 -214 -250 -241 -281 -17 -20 -35 -37
-40 -36 -5 0 -85 90 -179 201 -93 111 -226 266 -293 345 -144 168 -427 507
-447 537 -14 19 -15 19 -47 -18 l-33 -37 -97 118 c-54 65 -109 132 -124 148
-14 17 -90 106 -167 199 l-141 168 -21 -25 c-11 -13 -65 -78 -120 -143 -176
-211 -239 -287 -310 -377 l-70 -89 -26 31 c-14 17 -28 31 -31 31 -3 0 -60 -65
-127 -145 -302 -362 -361 -434 -407 -491 -27 -33 -70 -85 -95 -115 -26 -30
-100 -117 -164 -194 -65 -77 -119 -142 -121 -144 -4 -4 -12 4 -94 99 -36 41
-84 95 -107 120 -22 25 -50 56 -61 70 l-20 25 -40 -45 c-40 -46 -130 -154
-192 -231 -19 -24 -67 -82 -105 -129 -39 -47 -111 -137 -160 -200 -99 -128
-226 -282 -238 -291 -5 -3 -22 7 -39 23 l-30 28 76 88 c42 48 81 93 87 100 15
19 -12 46 -77 78 -44 21 -68 26 -126 26 -40 -1 -88 -5 -106 -11 -31 -9 -35 -7
-72 32 -46 51 -112 77 -191 77 -54 0 -57 2 -64 28 -28 116 -196 258 -314 265
l-41 2 -31 80 c-25 66 -89 268 -89 281 0 2 26 4 58 4 236 0 447 -184 478 -417
l6 -50 59 24 c86 35 209 48 298 33 110 -18 195 -66 281 -156 l72 -76 27 26
c26 25 28 32 30 120 3 137 -23 210 -105 293 -99 101 -207 139 -329 115 -27 -5
-57 -13 -67 -16 -13 -6 -17 0 -23 32 -16 97 -123 222 -188 222 -11 0 -41 23
-67 50 -71 74 -143 104 -247 105 l-83 0 0 93 c0 81 -4 103 -31 167 -40 96
-113 171 -215 220 l-74 35 0 135 0 135 28 -6 c100 -21 191 -76 259 -157 52
-61 81 -122 98 -202 9 -42 17 -59 26 -56 83 25 147 31 214 22 96 -14 164 -42
234 -96 156 -119 211 -290 167 -516 -5 -27 -5 -27 72 -34 94 -9 148 -26 209
-67 l46 -32 209 3 c136 2 208 -1 208 -8 0 -5 -19 -12 -42 -14 -28 -2 -19 -4
25 -4 52 -1 70 3 78 16 8 12 8 11 3 -9 -7 -25 -6 -25 14 -7 15 14 40 19 94 22
52 2 63 1 38 -5 -24 -5 6 -8 95 -9 72 -1 160 -4 198 -8 46 -4 67 -2 67 5 0 6
-6 9 -12 7 -7 -3 -65 -1 -128 4 -112 9 -111 9 50 5 91 -2 170 0 176 4 6 4 17
18 24 31 11 21 10 23 -4 18 -20 -8 -21 0 -1 19 8 9 19 13 23 10 10 -6 62 40
62 54 0 5 -7 7 -16 3 -12 -4 -14 0 -9 20 6 24 4 26 -32 30 -21 2 -5 4 36 4 70
0 75 1 98 29 13 16 40 49 61 72 20 24 51 61 67 83 17 21 56 67 88 102 61 68
67 83 40 90 -12 3 -8 5 9 6 20 1 44 22 104 91 43 50 81 90 85 90 4 0 16 -11
27 -25 11 -14 24 -25 28 -25 5 1 53 56 107 123 53 67 107 134 120 148 12 15
82 99 156 188 73 89 139 161 146 161 7 0 79 -80 160 -177z m3200 157 c17 -18
17 -21 1 -45 -27 -40 -76 -28 -76 20 0 44 44 59 75 25z m-5785 -71 c14 -26 -4
-51 -34 -47 -24 4 -33 33 -16 53 17 21 37 19 50 -6z m4970 6 c6 -8 10 -22 8
-32 -5 -25 -51 -25 -56 0 -8 42 23 63 48 32z m-5485 -67 c10 -55 50 -95 104
-104 52 -8 52 -20 2 -28 -59 -9 -97 -46 -105 -101 -7 -45 -26 -54 -26 -12 0
29 -34 83 -61 97 -12 7 -42 15 -68 19 l-46 7 59 18 c71 21 103 52 112 105 8
53 20 52 29 -1z m5995 1 c0 -55 62 -109 124 -109 45 0 28 -17 -22 -24 -58 -8
-87 -34 -106 -97 l-13 -44 -8 30 c-19 74 -61 115 -119 115 -14 0 -28 5 -31 10
-3 6 4 10 16 10 13 0 42 9 66 21 36 17 46 29 60 69 17 48 33 57 33 19z m-6227
-126 c-7 -2 -19 -2 -25 0 -7 3 -2 5 12 5 14 0 19 -2 13 -5z m5651 -99 c9 -24
-5 -44 -30 -44 -13 0 -24 2 -24 4 0 2 -3 11 -6 19 -7 18 22 48 41 41 7 -3 16
-12 19 -20z m-4829 -24 c0 -20 -5 -25 -25 -25 -20 0 -26 6 -28 28 -3 26 -1 28
25 25 22 -2 28 -8 28 -28z m4309 -80 c7 -47 35 -78 76 -87 l30 -6 -42 -22
c-47 -25 -68 -55 -68 -97 0 -41 -17 -34 -25 10 -8 49 -22 66 -70 87 l-40 17
35 15 c53 22 68 41 76 89 7 52 19 50 28 -6z m-3843 -56 c6 -8 30 -19 53 -25
l41 -12 -52 -23 c-48 -21 -54 -27 -64 -69 -14 -55 -24 -57 -33 -6 -6 37 -43
78 -86 93 -12 5 -11 7 5 12 56 19 70 32 85 80 l15 50 12 -43 c7 -24 18 -49 24
-57z m2193 -253 l239 -282 19 33 c11 18 22 35 23 36 5 6 118 -124 290 -333 22
-27 74 -89 115 -139 128 -155 284 -347 363 -446 l74 -95 -25 -33 -25 -32 -36
27 c-77 58 -211 166 -211 170 0 3 7 2 15 -1 23 -8 -22 49 -160 205 -66 74
-131 149 -144 165 -14 16 -53 62 -88 102 -34 40 -70 84 -79 98 -35 52 -24 12
20 -75 25 -50 46 -97 46 -104 0 -12 -15 3 -210 214 -185 201 -193 209 -198
205 -2 -3 6 -17 17 -33 11 -15 56 -85 98 -155 43 -70 139 -223 215 -340 172
-269 201 -318 185 -318 -12 0 -296 283 -401 400 -103 115 -111 124 -146 170
-50 67 -57 71 -24 15 38 -65 144 -284 144 -296 0 -10 -83 84 -125 140 -11 15
-32 40 -47 56 -16 17 -28 33 -28 37 0 4 -8 15 -18 25 -10 10 -44 52 -75 93
-31 41 -72 93 -92 115 l-35 40 0 345 1 345 32 -36 c18 -20 139 -163 271 -318z
m654 313 c47 -33 48 -89 2 -114 -49 -26 -114 34 -89 83 14 24 38 46 54 47 6 0
21 -7 33 -16z m-2298 -58 c26 -29 22 -51 -15 -68 -23 -10 -29 -9 -51 13 l-25
25 21 27 c26 33 40 34 70 3z m2761 -6 c23 -13 24 -28 2 -52 -21 -24 -29 -23
-49 7 -13 20 -14 28 -4 40 15 18 25 19 51 5z m-3943 -37 c2 -25 -1 -33 -18
-38 -26 -8 -50 10 -50 40 0 29 9 37 40 33 20 -2 26 -9 28 -35z m5162 22 c15
-18 10 -45 -12 -59 -33 -20 -69 20 -54 60 7 18 50 18 66 -1z m894 -47 c13 -22
-14 -54 -38 -45 -16 6 -22 48 -9 61 11 11 35 3 47 -16z m-6996 -16 c3 -20 0
-23 -20 -20 -15 2 -24 11 -26 26 -3 20 0 23 20 20 15 -2 24 -11 26 -26z m2588
-139 c-10 -10 -1666 -11 -1660 -1 3 5 379 8 836 8 457 0 828 -3 824 -7z m64 3
c0 -3 -4 -8 -10 -11 -5 -3 -10 -1 -10 4 0 6 5 11 10 11 6 0 10 -2 10 -4z
m1730 -6 c0 -5 -20 -10 -44 -10 -25 0 -48 5 -51 10 -4 6 13 10 44 10 28 0 51
-4 51 -10z m1670 0 c0 -7 -261 -10 -799 -8 -440 2 -797 6 -794 10 7 12 1593
10 1593 -2z m1010 -145 c0 -8 -4 -15 -10 -15 -5 0 -10 7 -10 15 0 8 5 15 10
15 6 0 10 -7 10 -15z m-5803 -41 c-3 -3 -12 -4 -19 -1 -8 3 -5 6 6 6 11 1 17
-2 13 -5z m966 -1 c-46 -2 -120 -2 -165 0 -46 1 -9 3 82 3 91 0 128 -2 83 -3z
m2460 0 c-13 -2 -33 -2 -45 0 -13 2 -3 4 22 4 25 0 35 -2 23 -4z m160 0 c-13
-2 -33 -2 -45 0 -13 2 -3 4 22 4 25 0 35 -2 23 -4z m160 0 c-13 -2 -33 -2 -45
0 -13 2 -3 4 22 4 25 0 35 -2 23 -4z m375 0 c-26 -2 -71 -2 -100 0 -29 2 -8 3
47 3 55 0 79 -1 53 -3z m-3975 -120 c-13 -2 -33 -2 -45 0 -13 2 -3 4 22 4 25
0 35 -2 23 -4z m934 1 c-3 -3 -12 -4 -19 -1 -8 3 -5 6 6 6 11 1 17 -2 13 -5z
m2646 -1 c-24 -2 -62 -2 -85 0 -24 2 -5 4 42 4 47 0 66 -2 43 -4z m274 1 c-3
-3 -12 -4 -19 -1 -8 3 -5 6 6 6 11 1 17 -2 13 -5z m516 -1 c-7 -2 -19 -2 -25
0 -7 3 -2 5 12 5 14 0 19 -2 13 -5z m190 0 c-13 -2 -33 -2 -45 0 -13 2 -3 4
22 4 25 0 35 -2 23 -4z m1007 -14 c0 -4 -7 -6 -15 -3 -8 4 -15 10 -15 15 0 4
7 6 15 3 8 -4 15 -10 15 -15z m-5192 -61 c79 2 122 -1 122 -8 0 -5 10 -11 23
-12 68 -4 -145 -15 -298 -15 -127 0 -160 3 -110 7 55 6 40 7 -65 6 -147 -1
-244 10 -234 26 4 6 82 7 223 1 119 -4 271 -7 339 -5z m350 5 c-10 -2 -28 -2
-40 0 -13 2 -5 4 17 4 22 1 32 -1 23 -4z m3722 -6 l55 -12 -85 -5 c-47 -3 -74
-7 -60 -10 14 -3 -209 -4 -495 -2 -419 2 -528 5 -560 17 -22 7 -51 16 -65 18
-14 2 241 4 565 5 419 0 606 -3 645 -11z m108 6 c-10 -2 -28 -2 -40 0 -13 2
-5 4 17 4 22 1 32 -1 23 -4z m-1358 -13 c0 -5 -5 -10 -11 -10 -5 0 -7 5 -4 10
3 6 8 10 11 10 2 0 4 -4 4 -10z m-2290 -11 c0 -5 -59 -9 -131 -9 -71 0 -128 4
-125 8 7 11 256 12 256 1z m-1826 -7 c2 -4 1 -14 -4 -21 -11 -19 -41 -6 -34
14 6 16 29 20 38 7z m1749 -87 c-5 -13 -28 -16 -147 -14 -77 1 -188 -1 -246
-4 -87 -5 -96 -4 -55 4 28 6 137 12 243 14 107 2 196 6 199 9 10 10 13 7 6 -9z
m3509 -7 c-16 -16 -452 -17 -497 -1 -22 7 37 10 218 9 136 -1 255 2 265 5 22
8 29 2 14 -13z m-565 -1 c3 -4 -23 -7 -58 -8 -35 0 -148 -2 -251 -5 -110 -2
-188 0 -188 5 0 5 10 7 23 4 13 -3 17 -1 10 4 -6 4 94 8 223 7 129 0 237 -4
241 -7z m607 1 c-5 -8 -2 -9 12 -4 10 5 28 11 39 13 19 5 19 5 -1 -10 -27 -20
-89 -20 -73 0 14 16 33 18 23 1z m-5144 -33 c0 -40 -24 -49 -34 -12 -10 37 -7
47 14 47 16 0 20 -7 20 -35z m890 32 c-3 -2 -41 -7 -85 -10 -44 -4 -75 -3 -68
1 12 8 162 17 153 9z m-393 -13 c-3 -3 -12 -4 -19 -1 -8 3 -5 6 6 6 11 1 17
-2 13 -5z m440 0 c-3 -3 -12 -4 -19 -1 -8 3 -5 6 6 6 11 1 17 -2 13 -5z m4783
-19 c0 -28 -25 -44 -42 -27 -15 15 1 52 23 52 14 0 19 -7 19 -25z m-4739 -38
c-7 -7 -14 -8 -21 -1 -6 6 -2 10 12 11 16 2 18 -1 9 -10z m-621 -72 c0 -8 -4
-15 -8 -15 -13 0 -32 23 -32 37 0 11 5 11 20 3 11 -6 20 -17 20 -25z m4967 0
c5 -16 -22 -55 -39 -55 -4 0 -8 16 -8 35 0 29 4 35 20 35 11 0 23 -7 27 -15z
m-150 -160 c3 -9 3 -19 -1 -22 -7 -7 -36 16 -36 28 0 15 30 10 37 -6z m-4798
-41 c3 -16 1 -17 -13 -5 -19 16 -21 34 -3 29 6 -3 14 -13 16 -24z m-738 -151
c0 -5 2 -15 4 -24 4 -24 -11 -43 -29 -36 -10 4 -16 18 -16 37 0 23 4 30 20 30
11 0 20 -3 21 -7z m5252 -323 c262 -316 492 -603 507 -630 6 -11 8 -20 4 -20
-3 0 -1 -6 5 -14 16 -19 -2 -30 -26 -17 -19 10 -147 140 -202 206 -19 22 -57
65 -85 95 -28 31 -66 73 -83 95 -43 52 -42 37 3 -36 67 -110 112 -250 54 -168
-14 19 -58 74 -100 123 -41 49 -88 109 -105 132 -16 23 -78 105 -137 183 -103
135 -133 167 -87 92 11 -18 18 -39 16 -46 -3 -6 -1 -18 5 -26 8 -11 9 -10 4 4
-4 11 -2 16 5 11 6 -3 9 -15 6 -25 -3 -11 -2 -17 2 -14 20 11 74 -124 85 -210
l7 -50 -21 25 c-12 14 -30 39 -41 55 -19 28 -20 28 -13 5 3 -14 24 -60 46
-104 22 -43 37 -80 35 -83 -7 -6 -198 224 -241 290 l-18 26 -80 -79 c-44 -44
-84 -80 -88 -80 -8 0 51 118 82 164 12 17 -30 -18 -92 -79 -62 -60 -110 -103
-108 -95 24 70 20 76 -20 33 -13 -16 -21 -22 -18 -15 12 21 -8 13 -33 -13 -13
-14 -27 -25 -33 -25 -12 0 -13 -1 79 111 231 284 289 354 362 438 l55 63 29
-33 c16 -19 124 -149 240 -289z m1158 307 c-1 -4 -1 -14 -1 -22 0 -20 -29 -19
-37 1 -3 9 0 20 8 25 15 10 31 8 30 -4z m-4810 -192 c94 -104 197 -217 228
-250 78 -85 112 -124 144 -170 l29 -40 -44 45 c-54 56 -108 96 -108 79 0 -7
18 -45 40 -86 22 -40 36 -73 30 -73 -6 0 -8 -4 -5 -10 19 -30 -18 0 -92 75
-46 47 -88 83 -94 80 -5 -4 -41 27 -79 68 l-69 74 -121 -120 c-66 -65 -120
-116 -120 -112 0 18 51 144 76 190 l28 49 10 -34 c9 -34 10 -32 17 35 6 62 12
184 10 209 -1 6 -37 -27 -81 -72 -68 -70 -100 -95 -100 -78 0 11 62 152 73
164 10 13 9 14 -10 4 -12 -7 -26 -18 -30 -25 -15 -23 -193 -190 -198 -186 -11
11 270 382 285 377 5 -2 86 -88 181 -193z m-1617 -21 c20 -8 21 -31 2 -50 -13
-12 -17 -11 -30 8 -28 40 -16 59 28 42z m6456 -14 c-1 -13 -29 -54 -30 -42 0
6 -6 12 -14 12 -18 0 -29 16 -21 30 6 10 65 10 65 0z m-6050 -310 c0 -3 -18
-4 -40 -2 -39 4 -47 22 -9 22 11 0 19 7 19 18 1 13 4 11 15 -8 8 -14 14 -27
15 -30z m1552 -178 c-7 -2 -9 -9 -6 -14 4 -7 2 -8 -4 -4 -6 4 -9 13 -6 21 4 8
11 12 17 8 8 -5 7 -8 -1 -11z m32 -47 l17 -30 -20 24 c-12 13 -21 28 -21 34 0
12 0 11 24 -28z m2346 -765 c413 -23 415 -24 160 -38 -772 -43 -1184 -74
-1203 -91 -16 -16 248 -42 563 -58 69 -3 131 -9 138 -13 7 -3 -47 -12 -120
-19 -162 -15 -465 -49 -531 -59 -133 -20 -2 -43 354 -61 123 -7 267 -16 319
-20 95 -8 95 -8 26 -10 -141 -3 -756 -78 -756 -92 0 -5 1 -9 3 -9 1 0 85 -11
187 -24 102 -14 228 -28 280 -31 97 -8 158 -24 90 -25 -38 0 -231 -32 -478
-80 l-154 -30 -271 50 c-150 28 -303 53 -340 57 -37 3 -70 9 -72 13 -2 4 39
10 93 14 119 8 492 53 500 61 3 3 3 7 0 10 -14 14 -655 83 -782 85 -22 0 -37
2 -35 5 3 2 138 11 299 20 377 19 543 37 523 55 -13 13 -412 58 -678 76 -143
10 -100 17 195 33 312 17 498 37 484 51 -5 4 -85 15 -179 24 -167 16 -1128 76
-1214 76 -24 0 -42 2 -40 4 5 5 533 34 719 40 253 7 1731 -3 1920 -14z"/>
<path d="M5442 8094 c-30 -21 -28 -59 4 -89 30 -28 37 -30 67 -14 29 16 37 28
37 60 0 51 -61 76 -108 43z"/>
<path d="M5087 8024 c-11 -14 -17 -27 -15 -30 5 -5 58 42 58 51 0 14 -27 1
-43 -21z"/>
<path d="M5730 7986 c0 -18 16 -29 30 -21 13 8 1 35 -16 35 -8 0 -14 -6 -14
-14z"/>
<path d="M5095 7910 c-3 -5 -1 -10 4 -10 6 0 11 5 11 10 0 6 -2 10 -4 10 -3 0
-8 -4 -11 -10z"/>
<path d="M5229 7827 c-56 -21 -106 -64 -123 -108 -36 -89 -6 -189 72 -244 37
-25 53 -30 105 -30 110 0 187 70 195 175 10 142 -124 253 -249 207z"/>
<path d="M5874 7726 c-47 -47 -43 -96 10 -138 60 -50 160 18 140 95 -8 35 -58
77 -91 77 -15 0 -38 -13 -59 -34z"/>
<path d="M5503 7434 c-8 -21 13 -42 28 -27 13 13 5 43 -11 43 -6 0 -13 -7 -17
-16z"/>
<path d="M5773 7349 c-175 -86 -158 -337 26 -403 106 -38 242 27 279 133 37
106 -24 243 -125 282 -44 16 -135 11 -180 -12z"/>
<path d="M6148 7335 c-8 -8 4 -65 13 -65 12 0 12 57 0 64 -4 3 -10 3 -13 1z"/>
<path d="M5505 6882 c-12 -1 -34 -13 -49 -25 -23 -19 -30 -33 -34 -75 -4 -47
-2 -54 26 -82 69 -68 182 -18 182 82 0 60 -63 111 -125 100z"/>
<path d="M5880 6640 c0 -11 7 -20 15 -20 8 0 15 9 15 20 0 11 -7 20 -15 20 -8
0 -15 -9 -15 -20z"/>
<path d="M5737 6624 c-15 -15 -7 -45 11 -42 9 2 17 12 17 22 0 20 -16 31 -28
20z"/>
<path d="M5815 6439 c-14 -17 -23 -34 -20 -38 7 -7 55 45 55 60 0 15 -7 11
-35 -22z"/>
<path d="M5570 6440 c0 -5 7 -10 15 -10 8 0 15 5 15 10 0 6 -7 10 -15 10 -8 0
-15 -4 -15 -10z"/>
<path d="M3214 6366 c-21 -34 -14 -67 18 -85 36 -21 79 -5 93 33 8 25 6 31
-18 52 -36 31 -72 31 -93 0z"/>
<path d="M3503 6327 c-51 -26 -58 -103 -13 -147 39 -38 78 -39 119 -4 25 20
31 34 31 63 0 71 -76 120 -137 88z"/>
<path d="M3317 6072 c-20 -22 -14 -48 14 -63 14 -7 23 -5 40 12 18 18 19 23 6
42 -19 29 -39 32 -60 9z"/>
<path d="M3597 5992 c-33 -21 -51 -73 -35 -107 13 -28 62 -55 89 -48 23 6 69
59 69 79 0 24 -29 73 -49 84 -27 14 -41 12 -74 -8z"/>
<path d="M3400 5905 c-28 -34 16 -84 47 -53 14 14 15 22 5 43 -13 28 -33 32
-52 10z"/>
<path d="M6980 6464 c0 -8 5 -12 10 -9 6 4 8 11 5 16 -9 14 -15 11 -15 -7z"/>
<path d="M6832 6378 c-26 -26 -3 -89 31 -88 21 1 47 27 47 47 0 39 -52 67 -78
41z"/>
<path d="M6574 6322 c-13 -8 -34 -46 -34 -61 0 -21 40 -51 68 -51 53 0 78 53
46 98 -15 22 -57 30 -80 14z"/>
<path d="M7068 6310 c-65 -51 -24 -160 59 -160 25 0 43 8 64 29 37 37 38 79 3
120 -31 38 -87 43 -126 11z"/>
<path d="M6757 6092 c-22 -25 -21 -35 6 -59 40 -37 94 7 67 57 -13 25 -51 26
-73 2z"/>
<path d="M7257 6103 c-4 -3 -7 -11 -7 -17 0 -6 5 -5 12 2 6 6 9 14 7 17 -3 3
-9 2 -12 -2z"/>
<path d="M6991 6074 c0 -11 3 -14 6 -6 3 7 2 16 -1 19 -3 4 -6 -2 -5 -13z"/>
<path d="M6474 6005 c-36 -36 -30 -82 15 -112 38 -26 62 -23 99 10 28 26 28
66 1 101 -28 35 -80 36 -115 1z"/>
<path d="M7255 5930 c-3 -5 -2 -10 4 -10 5 0 13 5 16 10 3 6 2 10 -4 10 -5 0
-13 -4 -16 -10z"/>
<path d="M6913 5916 c-68 -31 -91 -116 -51 -187 35 -63 124 -79 189 -35 69 47
76 127 16 193 -26 28 -42 36 -77 39 -27 3 -58 -2 -77 -10z"/>
<path d="M6560 5758 c-26 -29 -26 -63 2 -82 32 -22 64 -20 82 6 21 30 20 54
-4 78 -26 26 -54 25 -80 -2z"/>
<path d="M2037 4569 c7 -7 15 -10 18 -7 3 3 -2 9 -12 12 -14 6 -15 5 -6 -5z"/>
<path d="M8115 4567 c-11 -6 -31 -18 -43 -25 -13 -8 -21 -16 -19 -19 5 -5 97
45 97 53 0 7 -14 3 -35 -9z"/>
<path d="M8027 4513 c-4 -3 -7 -11 -7 -17 0 -6 5 -5 12 2 6 6 9 14 7 17 -3 3
-9 2 -12 -2z"/>
<path d="M7996 4464 c-15 -14 -22 -44 -11 -44 2 0 11 14 20 30 17 33 14 38 -9
14z"/>
<path d="M2177 4450 c3 -11 9 -20 14 -20 11 0 11 3 3 24 -9 23 -23 20 -17 -4z"/>
<path d="M6641 4126 c2 -2 29 -6 59 -9 34 -3 47 -2 35 3 -19 8 -103 14 -94 6z"/>
<path d="M7240 4120 l-45 -7 58 0 c32 0 60 4 63 9 6 9 -9 9 -76 -2z"/>
<path d="M2998 4113 c23 -2 59 -2 80 0 20 2 1 4 -43 4 -44 0 -61 -2 -37 -4z"/>
<path d="M3818 4113 c7 -3 16 -2 19 1 4 3 -2 6 -13 5 -11 0 -14 -3 -6 -6z"/>
<path d="M6973 4113 c15 -2 37 -2 50 0 12 2 0 4 -28 4 -27 0 -38 -2 -22 -4z"/>
<path d="M2850 4091 c0 -5 8 -18 18 -30 16 -19 27 -21 177 -21 88 -1 165 -1
171 0 6 0 16 12 23 27 10 21 10 24 -1 16 -7 -6 -35 -9 -63 -8 -27 1 -84 4
-125 5 -61 2 -69 4 -40 10 l35 7 -42 2 c-24 0 -43 -3 -43 -8 0 -5 -20 -8 -44
-7 -24 0 -42 4 -39 9 2 4 -3 7 -11 7 -9 0 -16 -4 -16 -9z"/>
<path d="M3341 4089 c0 -8 5 -23 12 -33 11 -15 36 -17 209 -20 158 -3 201 0
218 11 11 8 20 17 20 21 0 4 -101 6 -224 4 -208 -3 -225 -1 -229 15 -4 14 -5
14 -6 2z"/>
<path d="M6728 4093 c6 -2 18 -2 25 0 6 3 1 5 -13 5 -14 0 -19 -2 -12 -5z"/>
<path d="M6937 4093 c-4 -6 3 -20 14 -31 21 -23 24 -23 274 -28 55 0 95 14 95
35 0 3 -33 6 -72 7 -151 1 -214 6 -188 14 20 6 15 8 -25 9 -29 1 -56 -4 -63
-11 -10 -10 -15 -10 -21 1 -5 7 -11 9 -14 4z"/>
<path d="M3143 3969 c-6 -6 -48 -9 -107 -7 -72 2 -96 0 -96 -9 0 -20 194 -18
210 2 15 18 9 30 -7 14z"/>
<path d="M3565 3970 c-119 -5 -128 -6 -109 -20 16 -12 45 -14 128 -12 93 3
107 6 116 23 6 10 7 18 3 17 -4 -1 -66 -5 -138 -8z"/>
<path d="M6476 3955 c9 -21 254 -23 254 -1 0 11 -26 14 -130 15 -113 2 -129 0
-124 -14z"/>
<path d="M7050 3955 c17 -21 175 -22 183 -1 4 11 -14 14 -95 15 -90 2 -100 0
-88 -14z"/>
<path d="M1786 3927 c5 -14 44 -41 44 -31 0 6 -40 44 -46 44 -2 0 -1 -6 2 -13z"/>
<path d="M2990 3844 c0 -14 7 -15 37 -11 58 10 65 27 10 27 -37 0 -47 -4 -47
-16z"/>
<path d="M3553 3846 c10 -8 27 -12 37 -9 33 9 22 23 -17 23 -34 -1 -36 -2 -20
-14z"/>
<path d="M6566 3851 c19 -18 50 -21 70 -6 18 13 15 14 -30 15 -30 0 -46 -4
-40 -9z"/>
<path d="M7135 3850 c3 -5 17 -10 30 -10 13 0 27 5 30 10 4 6 -8 10 -30 10
-22 0 -34 -4 -30 -10z"/>
<path d="M7755 3560 c3 -5 8 -10 11 -10 2 0 4 5 4 10 0 6 -5 10 -11 10 -5 0
-7 -4 -4 -10z"/>
<path d="M2550 3510 c0 -5 7 -10 15 -10 8 0 15 5 15 10 0 6 -7 10 -15 10 -8 0
-15 -4 -15 -10z"/>
<path d="M3318 4293 c23 -2 59 -2 80 0 20 2 1 4 -43 4 -44 0 -61 -2 -37 -4z"/>
<path d="M7138 4293 c12 -2 32 -2 45 0 12 2 2 4 -23 4 -25 0 -35 -2 -22 -4z"/>
<path d="M3595 3235 c20 -33 58 -80 84 -105 25 -25 56 -56 67 -70 28 -36 64
-65 64 -52 0 12 -120 153 -198 232 l-54 55 37 -60z"/>
</g>
</svg>
