<?xml version="1.0" standalone="no"?>
<!DOCTYPE svg PUBLIC "-//W3C//DTD SVG 20010904//EN"
 "http://www.w3.org/TR/2001/REC-SVG-20010904/DTD/svg10.dtd">
<svg version="1.0" xmlns="http://www.w3.org/2000/svg"
 width="1024.000000pt" height="1024.000000pt" viewBox="0 0 1024.000000 1024.000000"
 preserveAspectRatio="xMidYMid meet">

<g transform="translate(0.000000,1024.000000) scale(0.100000,-0.100000)"
fill="#000000" stroke="none">
<path d="M0 5120 l0 -5120 5120 0 5120 0 0 5120 0 5120 -5120 0 -5120 0 0
-5120z m5482 3964 c737 -72 1484 -372 2078 -834 470 -367 861 -847 1120 -1375
215 -440 334 -851 392 -1360 27 -237 14 -713 -27 -995 -111 -758 -433 -1430
-987 -2056 -581 -658 -1381 -1111 -2243 -1269 -258 -47 -399 -60 -690 -59
-282 0 -475 17 -724 65 -745 141 -1480 525 -2025 1058 -606 593 -995 1294
-1156 2081 -173 847 -50 1773 337 2545 342 681 886 1267 1533 1647 414 244
828 403 1295 497 377 76 711 93 1097 55z"/>
<path d="M4790 8789 c-650 -71 -1284 -312 -1820 -693 -183 -130 -269 -204
-460 -396 -215 -215 -356 -392 -517 -650 -350 -560 -532 -1179 -549 -1870 -20
-754 181 -1445 603 -2073 153 -227 278 -375 519 -613 307 -304 576 -496 949
-678 443 -217 801 -321 1284 -373 173 -18 597 -12 751 11 52 8 131 19 175 26
44 6 148 29 230 50 532 135 1018 372 1405 684 796 640 1272 1461 1405 2421 26
181 31 616 11 825 -77 810 -393 1523 -941 2130 -303 336 -635 588 -1060 804
-250 128 -419 195 -679 271 -331 95 -552 126 -931 130 -159 2 -328 -1 -375 -6z
m-120 -324 c17 -20 8 -50 -14 -50 -27 0 -43 29 -27 49 17 20 25 20 41 1z m935
-5 c9 -14 -13 -50 -31 -50 -17 0 -28 24 -20 45 6 17 42 20 51 5z m805 -220 c0
-3 -8 -15 -18 -28 l-18 -23 -24 26 -23 25 23 25 24 26 18 -23 c10 -13 18 -25
18 -28z m-2528 15 c9 -21 9 -29 -5 -42 -13 -13 -19 -14 -31 -3 -19 15 -21 41
-4 58 18 18 27 15 40 -13z m1422 10 c168 -29 338 -97 484 -192 31 -20 103 -82
158 -137 362 -360 450 -856 236 -1329 -85 -186 -231 -351 -428 -482 -336 -224
-821 -246 -1182 -53 -269 144 -475 384 -571 665 -44 130 -61 236 -61 379 0
329 113 594 356 837 173 173 415 286 689 320 77 10 241 6 319 -8z m-1140 -49
c-4 -9 -14 -16 -23 -14 -20 4 -27 38 -9 49 18 11 40 -13 32 -35z m1930 29 c17
-17 11 -45 -10 -45 -20 0 -36 34 -22 48 15 15 14 15 32 -3z m-2582 -142 c22
-20 23 -51 1 -75 -20 -22 -41 -23 -65 -1 -22 20 -23 51 -1 75 20 22 41 23 65
1z m3280 0 c26 -23 23 -59 -7 -79 -51 -33 -104 21 -71 71 19 29 51 32 78 8z
m258 -308 c8 -25 21 -39 51 -51 21 -10 39 -21 39 -26 0 -4 -15 -14 -32 -21
-41 -17 -54 -33 -63 -75 -9 -42 -25 -37 -42 13 -16 48 -31 65 -54 65 -34 0
-29 19 11 40 22 11 40 27 40 35 0 25 20 66 29 60 5 -3 15 -21 21 -40z m-3825
-7 c12 -27 31 -48 50 -57 27 -13 28 -15 11 -25 -43 -25 -58 -43 -65 -75 -9
-48 -25 -48 -41 -1 -14 43 -42 70 -72 70 -31 0 -19 25 17 39 27 9 40 22 51 52
9 21 19 39 23 39 4 0 15 -19 26 -42z m494 -23 c7 -20 26 -45 42 -57 37 -27 37
-39 -1 -61 -22 -13 -33 -30 -41 -63 -14 -53 -26 -56 -35 -9 -4 22 -19 46 -40
65 -19 16 -34 33 -34 38 0 4 13 18 29 30 16 12 35 37 42 57 7 19 16 35 19 35
3 0 12 -16 19 -35z m2841 -13 c0 -8 17 -30 38 -49 22 -21 32 -37 25 -40 -35
-13 -62 -46 -68 -84 -8 -47 -26 -47 -36 0 -7 36 -32 68 -60 76 -27 9 -23 30 7
43 15 7 33 31 46 59 19 43 22 45 34 28 8 -10 14 -25 14 -33z m900 -276 c32
-128 55 -153 168 -187 49 -14 46 -19 -23 -44 -98 -35 -115 -57 -144 -187 -9
-38 -20 -70 -25 -71 -6 -1 -19 36 -31 83 -11 47 -26 95 -33 107 -15 26 -66 54
-134 73 -27 7 -48 16 -48 20 0 4 19 12 43 19 74 22 127 52 142 82 8 15 22 60
30 100 15 73 23 94 32 86 2 -3 13 -39 23 -81z m-4640 17 c26 -134 52 -168 149
-198 33 -10 61 -21 61 -25 0 -4 -19 -13 -42 -20 -115 -36 -132 -56 -163 -188
-20 -81 -31 -96 -41 -55 -29 122 -45 168 -65 189 -12 13 -53 34 -91 46 -37 12
-68 25 -68 29 0 4 29 17 64 29 96 32 110 46 135 142 12 46 24 89 26 96 10 28
24 9 35 -45z m548 -395 c18 -18 15 -42 -7 -62 -27 -24 -61 -6 -61 33 0 15 3
31 7 34 11 11 48 8 61 -5z m3540 0 c18 -18 15 -43 -8 -63 -19 -17 -21 -17 -40
0 -32 29 -20 75 20 75 9 0 21 -5 28 -12z m946 -14 c19 -7 21 -35 5 -51 -17
-17 -39 -4 -39 21 0 33 8 40 34 30z m-5439 -29 c0 -23 -34 -33 -45 -14 -13 20
1 40 24 37 13 -2 21 -10 21 -23z m1226 -195 c25 -14 25 -56 -1 -70 -45 -24
-86 44 -42 69 21 13 20 13 43 1z m3069 -15 c15 -18 8 -40 -19 -55 -29 -15 -66
21 -51 50 13 24 52 26 70 5z m-4546 -54 c10 -16 -6 -42 -23 -39 -9 2 -17 13
-19 26 -3 16 2 22 17 22 11 0 22 -4 25 -9z m5951 -16 c0 -30 -39 -27 -43 3 -3
20 0 23 20 20 15 -2 23 -10 23 -23z m-5651 -10 c27 -28 -10 -69 -40 -44 -17
14 -18 31 -2 47 16 16 23 15 42 -3z m5350 -7 c13 -22 -14 -54 -38 -45 -16 6
-22 48 -9 61 11 11 35 3 47 -16z m-4076 -136 c3 -17 -2 -22 -17 -22 -14 0 -21
6 -21 18 0 38 33 41 38 4z m2800 0 c3 -17 -2 -22 -17 -22 -14 0 -21 6 -21 18
0 38 33 41 38 4z m-3310 -63 c26 -7 79 -26 119 -44 372 -170 521 -591 338
-954 -90 -179 -265 -316 -454 -356 -457 -96 -876 261 -848 725 11 180 70 312
197 441 73 74 99 93 180 132 52 25 120 50 150 56 30 6 64 13 75 15 31 8 190
-3 243 -15z m4112 -1 c134 -32 288 -135 375 -250 95 -125 135 -250 135 -423 0
-196 -65 -357 -196 -489 -296 -296 -793 -268 -1041 58 -95 126 -143 270 -143
431 0 203 69 357 229 512 83 81 243 154 386 176 43 7 202 -2 255 -15z m-5221
-233 c46 -23 54 -66 20 -109 -27 -34 -71 -35 -104 -1 -38 37 -29 96 18 115 31
12 34 12 66 -5z m6076 -11 c30 -33 32 -63 4 -98 -50 -63 -150 -1 -119 75 22
51 78 62 115 23z m-4137 -226 c18 -18 15 -43 -8 -63 -19 -17 -21 -17 -40 0
-32 29 -20 75 20 75 9 0 21 -5 28 -12z m2176 -7 c25 -28 5 -63 -32 -59 -30 3
-42 39 -22 64 17 19 34 18 54 -5z m-1881 -182 c25 -11 47 -47 47 -76 0 -30
-41 -63 -78 -63 -48 0 -72 24 -72 71 0 29 6 42 26 58 30 24 43 26 77 10z
m1610 -17 c22 -19 22 -79 0 -104 -20 -23 -80 -24 -105 -1 -11 10 -18 30 -18
53 0 68 69 98 123 52z m-4043 -47 c15 -70 47 -109 105 -125 25 -7 45 -16 45
-20 0 -4 -19 -13 -42 -19 -73 -21 -88 -40 -108 -133 -6 -32 -15 -58 -19 -58
-5 0 -15 28 -22 62 -17 77 -45 112 -104 128 -25 7 -45 16 -45 19 0 4 22 15 49
25 63 22 76 37 97 114 9 34 21 62 25 62 4 0 13 -25 19 -55z m6445 -2 c17 -74
37 -99 95 -118 27 -9 50 -20 50 -24 0 -4 -23 -15 -50 -25 -56 -20 -72 -41 -93
-126 -7 -28 -17 -50 -23 -50 -5 1 -15 28 -22 60 -16 70 -48 106 -109 121 -23
6 -43 15 -43 19 0 4 26 17 58 28 64 24 86 53 98 133 9 53 25 45 39 -18z
m-3685 -218 c12 -23 12 -28 -8 -47 -21 -21 -22 -21 -42 -3 -24 22 -25 33 -3
57 22 25 37 23 53 -7z m902 8 c23 -21 23 -36 -2 -58 -19 -17 -21 -17 -40 0
-24 22 -25 33 -3 57 20 22 22 22 45 1z m-451 -105 c30 -126 65 -168 158 -190
28 -6 50 -16 48 -22 -2 -6 -32 -21 -68 -34 -37 -13 -73 -33 -86 -49 -20 -24
-26 -41 -53 -150 -6 -24 -15 -43 -20 -43 -4 0 -11 19 -15 43 -12 69 -45 145
-72 167 -14 11 -51 28 -82 36 -74 21 -80 30 -34 44 21 6 59 21 85 32 40 18 50
28 67 72 11 28 26 72 32 99 6 26 15 47 19 47 4 0 14 -24 21 -52z m-1091 -98
c11 -11 20 -27 20 -35 0 -16 -34 -55 -48 -55 -20 0 -52 34 -52 55 0 21 32 55
52 55 5 0 17 -9 28 -20z m-1820 -16 c0 -21 -4 -25 -22 -22 -15 2 -24 11 -26
26 -3 18 1 22 22 22 21 0 26 -5 26 -26z m2258 2 c5 -23 -18 -39 -35 -24 -7 6
-13 19 -13 30 0 26 43 21 48 -6z m1309 8 c3 -8 -1 -22 -9 -30 -19 -19 -52 3
-42 29 8 21 43 22 51 1z m461 4 c7 -7 12 -21 12 -33 0 -12 -5 -26 -12 -33 -7
-7 -21 -12 -33 -12 -12 0 -26 5 -33 12 -7 7 -12 21 -12 33 0 12 5 26 12 33 7
7 21 12 33 12 12 0 26 -5 33 -12z m1807 -13 c0 -30 -39 -27 -43 3 -3 20 0 23
20 20 15 -2 23 -10 23 -23z m-5650 -126 c12 -19 -4 -59 -24 -59 -29 0 -45 25
-31 49 11 22 44 28 55 10z m5475 -4 c6 -8 9 -23 5 -35 -10 -31 -59 -24 -63 9
-6 37 34 55 58 26z m-3663 -253 c12 -17 44 -36 84 -50 35 -13 65 -25 68 -27 2
-3 -13 -12 -35 -20 -124 -50 -130 -57 -157 -179 -7 -33 -18 -61 -23 -63 -6 -2
-19 33 -29 78 -23 100 -49 131 -128 154 -31 9 -59 20 -62 25 -3 5 12 14 32 20
113 34 138 61 163 174 6 27 14 54 17 59 3 5 16 -25 28 -68 12 -42 31 -89 42
-103z m1873 126 c0 -26 36 -118 56 -139 9 -10 46 -28 82 -40 60 -20 64 -23 47
-35 -10 -8 -25 -14 -33 -14 -8 0 -34 -10 -57 -21 -44 -22 -67 -56 -79 -119
-12 -58 -27 -100 -36 -100 -5 0 -14 26 -20 58 -26 124 -54 158 -152 182 -27 7
-48 16 -48 20 0 5 24 16 53 26 107 35 119 49 148 178 11 52 14 56 26 40 7 -10
13 -26 13 -36z m-4037 -82 c313 -60 553 -315 592 -629 6 -48 10 -57 27 -57 46
0 149 -63 209 -128 61 -65 123 -174 135 -238 l6 -33 297 -3 c247 -2 301 -6
316 -18 11 -9 16 -10 11 -2 -9 14 -65 13 682 14 310 0 565 -2 568 -5 3 -3 -4
-15 -15 -26 -12 -12 -18 -21 -13 -22 4 0 -4 -5 -17 -10 -18 -7 -27 -6 -33 3
-4 7 -8 9 -8 3 0 -13 -2949 -10 -2962 3 -13 13 95 23 134 12 19 -6 70 -5 130
1 55 5 107 9 116 8 10 -1 79 -1 155 0 128 1 137 2 137 20 0 11 -14 30 -32 42
-28 20 -49 24 -177 30 -80 4 -195 8 -256 9 -60 1 -103 4 -95 7 8 2 22 7 30 9
11 4 12 7 2 13 -7 4 88 11 211 14 123 4 231 9 240 13 20 7 22 37 4 52 -8 7
-122 11 -335 12 -177 0 -329 3 -337 6 -8 4 -15 12 -15 19 0 14 72 25 167 25
50 0 64 4 72 19 7 13 7 23 -2 35 -10 13 -33 16 -132 18 -119 1 -145 7 -145 34
0 11 20 14 89 14 68 0 93 4 105 16 40 39 9 54 -110 54 l-102 0 -6 35 c-4 20
-4 39 -1 44 3 5 1 11 -4 13 -5 1 -11 23 -13 48 -3 50 -6 49 87 35 28 -4 36 -2
25 5 -8 5 -23 7 -32 4 -10 -3 -18 0 -18 6 0 7 -14 10 -34 9 -19 -2 -38 -1 -41
3 -4 4 -13 66 -21 140 -8 73 -18 162 -23 198 -4 36 -4 70 1 76 9 12 106 40
183 53 79 13 167 12 248 -3z m6369 4 c37 -5 97 -20 133 -31 l66 -22 -7 -71
c-7 -78 -11 -89 -25 -81 -5 4 -9 1 -9 -4 0 -6 4 -11 9 -11 5 0 7 -12 5 -27 -2
-16 -6 -62 -10 -103 -7 -102 -12 -120 -30 -120 -12 0 -13 -4 -4 -20 8 -15 8
-38 -1 -83 -19 -100 -15 -97 -128 -97 -104 0 -111 -3 -111 -51 0 -22 -4 -21
113 -21 84 0 88 -1 85 -22 -3 -20 -9 -21 -128 -24 -69 -2 -128 -7 -132 -10 -4
-4 -10 -19 -13 -33 l-7 -27 126 -7 c69 -4 126 -11 126 -16 0 -23 -68 -29 -338
-29 -158 0 -297 -3 -309 -6 -25 -7 -40 -41 -25 -56 15 -15 34 -16 340 -17 239
-1 292 -3 292 -15 0 -17 -88 -26 -260 -26 -177 -1 -373 -16 -401 -31 -13 -7
-30 -19 -37 -28 -12 -14 -13 -14 -7 4 5 16 4 17 -6 8 -9 -9 -9 -19 -3 -34 9
-20 16 -21 169 -21 129 0 153 -2 125 -10 -46 -14 -937 -24 -1935 -21 -726 2
-771 3 -783 20 -39 52 -82 49 608 48 352 0 642 -3 645 -7 4 -3 21 -2 38 3 18
5 163 9 323 9 l292 0 17 53 c25 79 87 176 148 234 47 44 140 99 198 117 12 3
18 22 23 65 29 257 223 495 478 587 110 40 230 51 350 34z m-5738 -16 c19 -18
21 -55 4 -72 -17 -17 -58 -15 -80 5 -22 20 -23 32 -2 61 18 26 56 29 78 6z
m4945 2 c22 -26 9 -69 -22 -80 -36 -13 -61 2 -65 38 -4 35 14 56 48 56 15 0
33 -6 39 -14z m-3961 -48 c18 -18 15 -43 -8 -63 -19 -17 -21 -17 -40 0 -32 29
-20 75 20 75 9 0 21 -5 28 -12z m1046 -9 c17 -24 12 -45 -14 -59 -38 -21 -72
19 -50 60 14 26 45 26 64 -1z m847 11 c24 -14 24 -42 0 -64 -38 -34 -85 26
-49 62 15 15 24 15 49 2z m1043 4 c22 -8 21 -61 -1 -72 -36 -19 -73 21 -53 58
11 21 27 25 54 14z m313 -26 c-3 -8 -6 -5 -6 6 -1 11 2 17 5 13 3 -3 4 -12 1
-19z m-3577 2 c0 -5 -8 -10 -17 -10 -15 0 -16 2 -3 10 19 12 20 12 20 0z m288
-348 c2 -16 14 -27 33 -34 37 -13 37 -38 -1 -60 -18 -10 -30 -25 -30 -38 0
-34 -46 -27 -59 10 -7 20 -17 30 -30 30 -29 0 -27 37 2 51 13 6 28 24 35 41
13 35 45 35 50 0z m3025 -2 c7 -18 22 -33 39 -39 31 -11 29 -36 -4 -47 -11 -3
-26 -21 -34 -39 -10 -25 -18 -32 -33 -28 -12 3 -21 15 -23 31 -3 24 -14 35
-50 46 -25 8 -12 33 23 45 18 6 29 17 29 29 0 42 37 44 53 2z m554 -396 c-3
-3 -12 -4 -19 -1 -8 3 -5 6 6 6 11 1 17 -2 13 -5z m-104 -11 c-13 -2 -33 -2
-45 0 -13 2 -3 4 22 4 25 0 35 -2 23 -4z m-3653 -102 c901 8 1540 8 1540 1 0
-5 -9 -21 -21 -36 l-20 -26 -920 0 -919 0 -15 36 c-8 20 -15 37 -15 38 0 0 78
-2 172 -6 95 -4 184 -7 198 -7z m3699 3 c3 -3 -1 -9 -9 -14 -8 -6 -11 -10 -7
-10 4 0 3 -9 -3 -20 -11 -20 -21 -20 -960 -20 l-948 0 -21 34 c-12 18 -21 35
-21 37 0 6 1963 -1 1969 -7z m-5345 -70 c3 -8 2 -12 -4 -9 -6 3 -10 10 -10 16
0 14 7 11 14 -7z m99 9 c-13 -2 -33 -2 -45 0 -13 2 -3 4 22 4 25 0 35 -2 23
-4z m17 -23 c0 -5 -20 -8 -44 -7 -24 1 -42 5 -39 10 6 11 83 9 83 -3z m3188
-112 c11 -18 36 -64 57 -103 21 -38 54 -99 74 -135 20 -36 45 -83 55 -105 10
-22 28 -51 40 -64 11 -13 15 -21 9 -17 -18 10 -16 -4 7 -41 21 -36 33 -43 23
-15 -5 14 -3 14 10 -3 8 -10 13 -25 10 -32 -3 -7 1 -13 9 -13 19 0 39 -44 32
-67 -5 -14 -4 -15 4 -4 8 11 15 5 32 -28 22 -44 19 -87 -5 -77 -9 3 -12 0 -8
-10 7 -19 12 -18 33 9 18 22 19 22 27 2 8 -21 51 -96 88 -155 107 -172 225
-385 225 -406 0 -8 4 -14 9 -14 5 0 16 -12 24 -27 64 -123 106 -208 104 -210
-8 -7 -67 83 -62 95 2 7 1 11 -4 8 -13 -8 -83 92 -75 107 4 7 4 9 -1 5 -13
-12 -76 97 -69 118 4 14 3 16 -4 5 -8 -10 -15 -5 -36 25 -35 53 -33 66 5 24
l30 -35 -26 37 c-15 21 -31 36 -35 33 -4 -3 -40 47 -79 110 -40 63 -76 117
-82 120 -5 4 -7 11 -4 16 4 5 1 9 -5 9 -7 0 -9 -9 -5 -22 4 -13 9 -32 12 -43
8 -30 84 -196 147 -323 30 -62 52 -112 48 -111 -9 0 -171 189 -209 242 -27 38
-43 44 -24 10 14 -27 72 -225 67 -230 -11 -12 -133 213 -219 406 -10 22 -12 7
-15 -98 l-3 -124 -75 119 c-41 65 -92 148 -111 183 l-36 64 2 318 c1 185 -1
319 -7 319 -5 0 -37 -51 -72 -112 -355 -629 -564 -970 -820 -1340 -30 -43 -56
-76 -58 -73 -2 2 48 109 111 237 116 234 228 435 614 1093 182 310 208 355
215 355 3 0 15 -15 26 -32z m3277 -18 c-4 -6 -45 -9 -93 -9 -66 1 -77 3 -47 8
65 11 146 11 140 1z m-278 -6 c-3 -3 -12 -4 -19 -1 -8 3 -5 6 6 6 11 1 17 -2
13 -5z m-4902 -131 c303 0 713 0 912 1 284 1 363 -2 363 -11 0 -9 17 -13 53
-13 37 0 48 3 37 10 -10 7 8 10 60 11 41 0 88 2 103 3 40 3 49 -6 38 -35 l-9
-25 -301 -2 c-183 -1 -301 2 -301 7 0 6 19 12 43 14 34 3 31 4 -18 5 -36 1
-55 -2 -47 -7 11 -7 11 -9 0 -14 -8 -2 -330 -5 -717 -6 -616 -1 -702 1 -697
14 3 8 0 14 -7 12 -7 -1 -11 4 -10 11 2 6 -7 12 -18 12 -19 0 -18 -4 14 -39
41 -45 80 -111 96 -162 12 -36 12 -36 54 -28 97 19 245 -3 328 -48 106 -57
200 -166 235 -272 l16 -50 35 14 c20 8 68 16 107 17 l71 1 -65 7 c-41 4 17 7
157 8 155 1 224 5 229 14 4 6 3 8 -3 5 -5 -3 -115 -7 -243 -8 l-234 -1 -27 63
c-26 60 -29 93 -7 71 6 -6 18 -8 27 -4 13 5 14 3 5 -9 -9 -11 -9 -17 2 -26 11
-11 12 -8 9 17 -3 29 -2 30 34 30 20 0 43 -6 49 -12 10 -10 15 -10 22 1 7 12
12 12 34 -3 24 -15 30 -15 78 -1 46 13 300 23 287 11 -6 -7 -85 -14 -169 -17
-67 -2 -62 -3 40 -9 114 -6 144 0 155 28 4 10 -53 13 -303 11 l-307 -1 -23 24
c-76 77 -116 124 -114 131 1 5 -3 5 -9 1 -6 -3 -14 -3 -18 2 -20 29 -221 97
-259 88 -17 -3 -22 -2 -15 3 7 5 372 8 840 6 456 -2 838 -4 851 -3 12 0 22 -4
22 -10 0 -5 -20 -43 -44 -84 -24 -41 -47 -85 -51 -98 -4 -13 -18 -35 -30 -50
-12 -15 -33 -48 -45 -75 -39 -83 -40 -83 -155 -83 -114 0 -119 2 -158 72 -15
25 -39 56 -54 67 -25 20 -27 21 -46 4 -10 -10 -27 -17 -37 -15 -14 2 -17 -2
-13 -18 4 -15 1 -20 -13 -20 -15 0 -16 -2 -5 -9 12 -7 10 -14 -8 -37 -12 -15
-30 -33 -40 -41 -10 -7 -35 -37 -55 -67 -20 -31 -46 -62 -58 -70 -11 -8 -32
-32 -47 -53 -50 -74 -133 -173 -144 -173 -7 0 -28 -14 -47 -30 -42 -36 -186
-110 -215 -110 -14 0 -16 -3 -7 -9 10 -6 3 -16 -26 -39 -51 -40 -84 -53 -148
-54 -44 -2 -50 -4 -46 -20 5 -20 17 -24 27 -8 3 6 1 10 -6 10 -7 0 -10 2 -7 5
3 3 13 3 22 -1 16 -6 16 -7 -1 -19 -10 -7 -21 -12 -24 -11 -4 0 -17 -8 -28
-18 -18 -17 -21 -17 -15 -3 3 9 1 17 -4 17 -6 0 -13 -8 -16 -17 -4 -14 -4 -14
-3 2 1 11 10 20 19 20 9 0 20 4 24 8 4 4 -7 7 -23 7 -17 0 -34 -6 -36 -12 -3
-8 -6 -6 -6 5 -1 12 7 17 24 17 14 0 25 5 25 11 0 8 -13 10 -36 6 -32 -5 -41
-2 -66 25 -16 17 -26 33 -24 36 3 2 54 8 113 13 59 4 118 10 130 12 31 5 41
17 15 17 -13 0 -22 6 -22 15 0 20 -27 25 -169 28 l-125 2 -36 68 c-20 37 -46
77 -57 90 -11 12 -29 38 -38 57 -10 19 -32 52 -50 72 -17 21 -43 62 -58 92
-32 65 -53 76 -81 42 -12 -14 -28 -26 -36 -27 -8 -1 -104 -1 -212 0 l-197 1
-16 30 -16 30 88 -2 88 -2 -72 -3 c-58 -3 -73 -7 -73 -20 0 -11 3 -13 13 -5 7
6 55 11 106 11 59 0 97 5 101 12 5 7 29 10 62 8 46 -3 54 -1 54 14 0 9 -4 17
-8 17 -4 0 -8 4 -8 9 0 5 24 8 54 8 40 -2 53 1 51 12 -1 11 -46 14 -248 13
-162 0 -249 4 -254 11 -4 6 -1 7 7 2 10 -6 12 -4 6 10 -4 11 -1 22 6 27 9 6 3
8 -16 6 -16 -2 -31 2 -33 8 -3 10 52 11 132 3 6 0 30 3 55 8 36 7 45 13 43 28
-1 11 0 14 3 8 3 -7 12 -13 20 -13 8 0 14 -5 14 -10 0 -7 6 -7 18 -2 9 5 55
12 102 16 89 7 155 -6 147 -28 -3 -6 3 -12 13 -12 12 0 16 6 12 16 -4 12 -1
11 15 -3 17 -15 22 -15 32 -4 11 14 58 11 116 -8 18 -6 18 -5 3 4 -27 18 -111
31 -125 20 -7 -7 -13 -6 -18 1 -3 5 -15 10 -26 10 -10 0 -19 5 -19 11 0 5 4 7
10 4 6 -3 7 1 4 10 -6 13 -27 16 -143 16 -75 0 -211 2 -303 6 l-167 6 -30 61
c-17 33 -39 77 -49 96 -48 90 -82 160 -82 170 0 8 108 10 383 7 210 -2 630 -3
932 -4z m4316 -15 c4 -7 9 -6 13 1 4 6 13 11 19 11 7 0 6 -4 -3 -10 -24 -15 2
-11 30 5 20 12 93 14 398 15 l372 0 -15 -37 c-9 -21 -22 -44 -29 -53 -7 -8
-18 -34 -26 -57 -7 -23 -21 -51 -32 -62 -10 -11 -18 -25 -18 -31 0 -5 -5 -10
-12 -10 -6 0 -9 -3 -5 -6 3 -4 -3 -23 -13 -44 l-19 -38 -143 -5 c-79 -3 -212
-5 -295 -6 -140 0 -153 -2 -153 -18 0 -11 3 -14 8 -7 4 6 52 11 125 11 108 0
137 -6 105 -21 -7 -3 -1 -5 14 -3 19 3 28 -1 31 -15 5 -19 -8 -25 -16 -8 -3 6
-4 5 -3 -2 1 -7 13 -15 25 -16 15 -2 21 0 17 7 -4 6 -3 11 3 11 5 0 11 -5 13
-11 2 -7 32 -8 96 -2 51 5 97 6 103 2 12 -7 -5 -48 -25 -61 -6 -4 -158 -6
-338 -3 -180 2 -329 1 -332 -3 -2 -4 56 -6 130 -5 78 1 136 -2 139 -8 4 -5 11
-7 16 -4 15 10 10 -12 -6 -25 -20 -17 -19 -30 3 -30 9 0 30 -7 45 -15 20 -10
52 -13 118 -10 50 2 94 7 98 11 3 4 -41 4 -99 1 -71 -3 -89 -2 -55 3 28 5 92
9 143 9 l93 1 -16 -29 -15 -29 -202 -4 -203 -3 -23 27 c-29 34 -47 35 -68 4
-10 -16 -22 -23 -32 -19 -13 4 -14 3 -4 -5 17 -12 3 -41 -63 -127 -25 -33 -45
-65 -45 -72 0 -6 -16 -24 -35 -39 -19 -14 -32 -30 -29 -35 3 -5 0 -9 -6 -9 -6
0 -8 -5 -5 -10 4 -6 -5 -30 -19 -54 l-25 -43 -137 -5 c-103 -4 -140 -9 -148
-20 -6 -8 -20 -18 -31 -23 -19 -8 -19 -9 3 -12 12 -3 22 -9 22 -14 0 -5 33 -9
73 -10 39 0 90 -3 111 -7 l39 -7 -27 -33 c-16 -17 -32 -30 -37 -27 -5 4 -6 0
-3 -8 4 -10 -2 -14 -20 -14 -29 0 -35 13 -8 20 9 3 -24 5 -74 5 -96 -1 -146
14 -210 63 -34 26 -28 47 11 41 12 -2 32 2 45 7 20 8 7 10 -58 10 -68 1 -92 6
-135 27 -29 14 -62 35 -74 47 -13 11 -38 27 -57 36 -19 9 -63 51 -101 96 -53
65 -65 85 -60 104 5 20 4 22 -7 13 -16 -13 -62 25 -111 91 -26 35 -24 54 3 22
14 -17 35 -21 25 -5 -7 11 -1 12 113 10 57 -1 82 2 82 11 0 8 -19 10 -67 6
-38 -3 -97 -2 -133 2 -48 6 -14 8 135 8 110 0 185 -2 168 -4 -18 -2 -33 -7
-33 -11 0 -10 79 -2 86 9 10 16 73 10 106 -11 38 -23 68 -26 68 -6 0 7 16 45
35 83 57 113 164 207 285 249 43 15 81 19 176 18 l122 -1 12 41 c7 22 25 59
41 83 16 23 29 45 29 50 0 4 -470 7 -1044 6 l-1045 -1 -20 33 -19 33 1066 -5
c714 -3 1069 -8 1073 -15z m-2005 -136 c-2 -4 370 -5 827 -2 458 3 848 3 867
1 32 -4 29 -5 -30 -17 -128 -27 -255 -105 -328 -203 -23 -31 -24 -31 -120 -32
-53 -1 -85 -4 -69 -6 15 -2 27 -8 27 -13 0 -5 -12 -11 -27 -13 -18 -3 -12 -4
17 -5 29 -1 40 1 31 7 -19 12 41 25 71 15 l23 -7 -23 -8 c-12 -5 -22 -14 -21
-21 0 -10 2 -10 6 0 2 6 8 12 12 12 5 0 0 -24 -9 -52 l-17 -53 -277 -3 -278
-2 -31 34 c-18 18 -45 52 -62 74 -16 23 -37 41 -46 42 -17 0 -69 -50 -69 -68
0 -12 -82 -102 -94 -102 -4 0 -4 5 -1 10 3 6 1 10 -4 10 -6 0 -11 -7 -11 -15
0 -8 -5 -15 -11 -15 -6 0 -9 6 -6 14 4 11 -10 15 -61 18 -37 3 -70 3 -74 1
-11 -6 12 -51 29 -57 8 -3 24 -1 35 5 15 8 27 8 46 -2 20 -11 26 -11 29 -1 3
6 9 12 14 12 15 0 -16 -53 -52 -88 -40 -39 -47 -34 -91 57 -17 36 -37 72 -45
79 -7 8 -21 28 -29 44 -13 25 -14 32 -2 39 10 7 9 9 -4 9 -10 0 -23 10 -29 23
-6 12 -19 31 -28 42 -9 11 -28 45 -41 75 -14 30 -33 67 -43 82 -12 15 -16 32
-12 40 5 7 5 10 0 6 -4 -4 -14 0 -21 10 -19 24 -17 27 12 30 14 1 23 -1 20 -6z
m249 -422 c-3 -5 3 -11 12 -14 15 -4 15 -5 -1 -3 -11 1 -20 10 -22 20 -1 9 2
15 7 11 5 -3 7 -9 4 -14z m-1368 4 c-3 -3 -12 -4 -19 -1 -8 3 -5 6 6 6 11 1
17 -2 13 -5z m-86 -18 c5 3 17 -2 26 -11 10 -10 18 -13 22 -6 4 5 21 8 39 6
22 -3 30 -1 26 7 -4 7 -3 8 4 4 18 -11 14 -38 -8 -66 -11 -14 -20 -31 -20 -37
0 -23 -18 -14 -54 29 -20 23 -34 48 -32 55 3 7 0 12 -6 10 -6 -1 -12 4 -13 11
-2 7 -1 8 2 2 2 -5 9 -8 14 -4z m1830 -98 c29 -40 83 -113 119 -163 116 -157
302 -429 319 -465 9 -19 19 -36 24 -38 4 -2 7 -9 7 -16 0 -20 40 -67 51 -61 5
4 9 2 9 -4 0 -5 -4 -13 -10 -16 -5 -3 -10 -1 -10 5 0 6 -4 8 -10 5 -5 -3 -10
-1 -10 6 0 7 -3 9 -7 5 -5 -4 1 -14 11 -22 16 -11 17 -16 6 -29 -11 -13 -25
-4 -106 71 -52 47 -94 82 -94 78 0 -9 50 -129 112 -268 21 -48 37 -90 35 -93
-12 -12 -157 207 -234 352 -29 55 -53 96 -53 90 0 -5 7 -46 15 -90 8 -44 14
-102 14 -130 l0 -50 -20 49 c-11 27 -28 67 -38 90 -47 105 -100 301 -161 601
-30 144 -33 165 -26 165 2 0 27 -33 57 -72z m-2037 45 c-2 -10 -20 -99 -39
-198 -20 -98 -51 -224 -70 -280 -34 -101 -116 -300 -130 -313 -8 -8 3 124 15
183 15 69 11 63 -93 -125 -40 -73 -120 -200 -124 -197 -5 6 67 210 78 221 5 6
9 16 9 24 0 7 -90 -78 -201 -188 -110 -111 -203 -199 -207 -196 -6 7 150 242
334 501 421 594 439 618 428 568z m3619 -164 l79 -76 -28 -41 c-16 -23 -32
-41 -36 -42 -3 0 -16 16 -28 35 -12 19 -26 34 -33 32 -6 -1 -21 25 -32 58 -14
38 -30 64 -43 70 -18 8 -22 18 -22 54 l0 45 32 -30 c18 -16 68 -63 111 -105z
m-5263 100 c-33 -22 -110 -59 -124 -59 -9 0 -20 9 -26 19 -5 11 -17 27 -26 35
-14 15 -6 16 88 16 73 0 99 -3 88 -11z m5490 4 c0 -5 -11 -21 -24 -38 l-24
-30 -33 18 c-19 9 -50 26 -69 37 l-35 20 93 0 c50 0 92 -3 92 -7z m-5189 -236
c16 -51 41 -135 55 -187 13 -52 27 -104 30 -115 4 -11 -17 9 -45 45 -54 70
-126 194 -98 172 9 -8 19 -22 22 -31 5 -18 53 -46 62 -37 6 6 -29 78 -77 156
-35 58 -39 70 -34 110 3 25 9 49 12 54 7 12 32 -45 73 -167z m2597 -294 c137
-137 273 -277 303 -312 68 -80 120 -153 114 -159 -2 -3 -19 7 -37 22 -73 60
-147 116 -152 116 -3 0 24 -47 59 -105 36 -58 63 -111 59 -117 -4 -7 -3 -8 4
-4 8 5 41 -37 92 -116 44 -68 83 -127 88 -133 63 -77 -58 38 -144 136 -97 111
-119 142 -117 168 1 15 0 18 -3 9 -7 -24 -16 -23 -41 5 -30 33 -316 405 -407
531 -63 86 -82 105 -90 94 -17 -21 -123 -163 -200 -268 -39 -52 -90 -119 -113
-148 l-43 -54 0 31 c0 17 -3 31 -7 31 -5 0 -30 -32 -58 -72 -153 -219 -406
-539 -412 -521 -2 6 9 32 25 59 121 201 232 397 228 401 -3 3 -27 -10 -53 -29
-87 -62 -91 -61 -38 4 59 71 669 678 683 678 7 0 124 -111 260 -247z m1447
-27 c242 -162 375 -256 375 -266 0 -11 -50 -50 -64 -50 -27 1 -381 302 -447
381 -51 62 -57 65 136 -65z m-3247 86 c-58 -81 -175 -192 -368 -348 l-75 -61
-35 23 c-19 14 -35 29 -35 36 0 11 107 89 353 255 78 52 145 100 148 104 3 5
10 9 15 9 6 0 4 -8 -3 -18z m2480 -10 c6 -18 -15 -14 -22 4 -4 10 -1 14 6 12
6 -2 14 -10 16 -16z m1012 9 c0 -5 -9 -7 -20 -4 -11 3 -20 7 -20 9 0 2 9 4 20
4 11 0 20 -4 20 -9z m-12 -38 c8 -7 23 -11 33 -8 14 5 17 2 13 -9 -8 -21 -5
-21 -61 15 -27 18 -37 28 -23 24 13 -4 30 -14 38 -22z m-343 -280 c-1 -13 0
-21 3 -18 3 2 12 -1 20 -8 13 -10 14 -9 3 13 -11 24 -11 24 4 5 8 -11 13 -26
10 -34 -3 -9 -3 -12 1 -8 9 9 44 -22 44 -40 0 -7 5 -13 11 -13 5 0 7 -4 4 -10
-3 -5 -2 -10 3 -10 5 0 22 -17 38 -37 l28 -38 -34 29 c-73 60 -180 164 -180
174 0 6 7 18 16 27 20 20 33 5 29 -32z m-1495 -113 c0 -5 -4 -10 -10 -10 -5 0
-10 5 -10 10 0 6 5 10 10 10 6 0 10 -4 10 -10z"/>
<path d="M4865 8175 c-117 -27 -182 -51 -283 -106 -251 -134 -448 -378 -526
-651 -76 -264 -53 -521 68 -773 93 -194 217 -335 399 -456 149 -97 292 -147
491 -170 159 -19 356 10 530 78 58 23 66 29 51 38 -194 113 -396 371 -480 612
-10 29 -22 50 -27 47 -4 -3 -5 2 -2 10 3 9 2 16 -2 16 -5 0 -10 15 -11 33 -1
17 -9 52 -17 77 -9 25 -13 32 -10 16 3 -15 7 -42 10 -60 l4 -31 -15 33 c-18
38 -21 68 -11 100 5 13 3 22 -3 22 -6 0 -11 -7 -11 -17 0 -23 -6 -14 -14 22
-4 17 -3 25 1 18 5 -6 9 9 9 35 l2 47 -11 -35 -10 -35 -8 30 c-4 17 -11 41
-15 55 -4 17 -3 22 4 15 5 -5 12 -19 15 -30 3 -11 3 45 1 125 -3 80 -8 147
-11 150 -3 3 -3 -33 -2 -80 2 -47 0 -91 -4 -97 -4 -6 -3 -14 3 -18 5 -3 10
-12 10 -18 0 -7 -4 -6 -10 3 -8 13 -10 12 -11 -5 -3 -41 -19 64 -28 185 -14
173 9 415 47 509 17 44 27 33 12 -14 -7 -20 -9 -39 -6 -42 3 -4 6 1 6 10 0 9
4 17 9 17 10 0 26 74 23 110 -2 18 0 21 6 12 7 -10 11 -7 14 12 3 14 2 24 -2
21 -3 -2 -4 10 -2 28 4 27 6 29 12 12 7 -20 7 -20 14 1 3 12 4 30 0 40 -4 13
-3 15 3 7 8 -11 43 43 71 109 8 18 -185 6 -283 -17z m165 -251 c0 -8 -19 -13
-24 -6 -3 5 1 9 9 9 8 0 15 -2 15 -3z m-362 -151 c68 -51 89 -140 52 -214 -61
-119 -227 -112 -290 12 -25 48 -25 89 -1 137 24 47 50 71 98 87 48 17 99 9
141 -22z m-457 -589 c22 -20 9 -54 -21 -54 -25 0 -33 15 -26 46 7 28 22 31 47
8z m370 -47 c16 -21 15 -24 -2 -46 -19 -23 -20 -23 -39 -6 -24 22 -25 33 -3
57 20 23 24 22 44 -5z m211 -154 c34 -31 18 -96 -27 -107 -46 -12 -93 33 -80
74 15 49 71 66 107 33z m-383 -107 c15 -18 -6 -58 -28 -54 -24 5 -36 34 -22
52 17 20 35 20 50 2z m241 -236 c26 -26 25 -32 -5 -60 -24 -23 -25 -23 -45 -5
-24 22 -25 42 -3 67 21 23 28 23 53 -2z m365 -80 c7 -23 -10 -50 -31 -50 -18
0 -35 34 -28 54 9 24 51 20 59 -4z m-303 -177 c56 -51 -19 -141 -81 -96 -32
24 -38 56 -17 89 20 29 70 33 98 7z"/>
<path d="M5407 8012 c-26 -29 -22 -77 9 -101 15 -12 32 -21 39 -21 7 0 24 9
39 21 32 25 36 77 8 102 -25 22 -75 21 -95 -1z"/>
<path d="M5767 7847 c-8 -21 8 -39 29 -35 11 2 20 13 22 26 3 18 -1 22 -21 22
-14 0 -27 -6 -30 -13z"/>
<path d="M4972 7745 c0 -11 3 -29 8 -40 11 -25 11 1 0 35 -6 20 -8 21 -8 5z"/>
<path d="M5200 7668 c-24 -26 -25 -37 -4 -66 29 -41 94 -14 94 40 0 18 -36 48
-57 48 -7 0 -21 -10 -33 -22z"/>
<path d="M5481 7437 c-18 -18 -13 -45 9 -52 27 -8 40 1 40 29 0 26 -31 41 -49
23z"/>
<path d="M4972 7420 c0 -14 2 -19 5 -12 2 6 2 18 0 25 -3 6 -5 1 -5 -13z"/>
<path d="M5845 7427 c-80 -32 -115 -81 -115 -164 0 -154 190 -216 290 -95 72
88 38 211 -72 256 -43 18 -62 19 -103 3z"/>
<path d="M4955 7350 c-3 -5 -1 -10 4 -10 6 0 11 5 11 10 0 6 -2 10 -4 10 -3 0
-8 -4 -11 -10z"/>
<path d="M5405 7300 c-9 -15 4 -50 19 -50 20 0 39 27 32 45 -6 17 -42 20 -51
5z"/>
<path d="M5200 7001 c-15 -29 -12 -46 10 -66 17 -15 24 -16 45 -7 24 11 30 27
25 62 -5 34 -63 41 -80 11z"/>
<path d="M6060 6945 c-11 -13 -11 -18 2 -31 20 -20 50 -7 46 20 -4 26 -30 32
-48 11z"/>
<path d="M5471 6903 c-26 -18 -26 -70 0 -86 26 -16 68 0 75 30 13 49 -35 85
-75 56z"/>
<path d="M5892 6638 c-30 -30 9 -69 44 -43 15 11 17 17 8 32 -14 23 -36 27
-52 11z"/>
<path d="M5543 6609 c-102 -30 -117 -185 -22 -235 111 -57 231 65 173 177 -9
18 -32 38 -57 50 -47 21 -49 21 -94 8z"/>
<path d="M2865 6475 c-218 -68 -378 -265 -415 -508 -38 -255 108 -528 345
-642 107 -51 166 -65 279 -65 134 0 211 20 309 78 83 50 108 76 81 86 -8 3
-13 2 -10 -3 6 -10 -24 -25 -32 -16 -3 3 -1 5 5 5 5 0 10 6 10 13 0 12 -5 12
-27 0 -23 -11 -32 -11 -56 2 -16 8 -34 15 -40 15 -5 0 -16 6 -22 12 -7 7 -20
13 -30 13 -9 0 -16 5 -15 12 2 7 -3 10 -11 7 -7 -3 -22 5 -32 19 -11 13 -32
32 -49 43 -16 10 -40 28 -52 38 -22 18 -22 21 -7 44 15 23 15 24 -4 18 -11 -4
-24 0 -32 9 -8 10 -9 15 -1 15 20 0 12 16 -9 17 -11 1 -18 -2 -16 -6 3 -4 0
-13 -5 -21 -8 -12 -9 -11 -7 4 2 10 -3 21 -11 24 -9 3 -11 0 -6 -8 5 -9 4 -11
-4 -6 -7 4 -9 17 -6 29 5 16 4 18 -3 8 -8 -12 -15 -9 -35 15 -26 29 -30 71
-13 119 4 11 -2 4 -14 -15 -14 -25 -19 -28 -14 -11 3 13 2 21 -3 18 -9 -6 -27
25 -52 86 -36 89 -59 327 -32 327 5 0 7 18 5 40 -2 28 4 49 21 75 14 19 20 35
14 35 -5 0 2 16 17 35 15 20 33 34 40 31 7 -3 15 2 18 10 7 17 -22 17 -79 -1z
m-59 -126 c-8 -11 -25 -28 -38 -36 l-23 -15 24 21 c13 12 20 21 17 21 -10 0
17 29 27 30 5 0 2 -9 -7 -21z m-56 -680 c0 -5 5 -7 11 -3 7 4 10 1 7 -7 -7
-20 -32 -17 -36 4 -2 9 1 17 7 17 6 0 11 -5 11 -11z m190 -195 c0 -2 -7 -4
-15 -4 -8 0 -15 4 -15 10 0 5 7 7 15 4 8 -4 15 -8 15 -10z"/>
<path d="M3336 6344 c-11 -29 -6 -53 14 -64 38 -21 80 22 60 61 -13 24 -65 26
-74 3z"/>
<path d="M2930 6266 c0 -14 4 -27 8 -30 5 -3 6 8 4 25 -5 35 -12 38 -12 5z"/>
<path d="M2921 6223 c-1 -7 -10 -13 -21 -13 -24 0 -28 -35 -5 -44 10 -3 15 1
15 13 0 11 5 21 12 23 6 2 8 11 5 19 -3 9 -6 10 -6 2z"/>
<path d="M2937 6199 c-10 -35 -9 -39 8 -39 16 0 18 14 6 44 -7 18 -8 18 -14
-5z"/>
<path d="M3034 6179 c-10 -17 13 -36 27 -22 12 12 4 33 -11 33 -5 0 -12 -5
-16 -11z"/>
<path d="M3267 6154 c-4 -4 -7 -20 -7 -36 0 -25 4 -28 31 -28 28 0 30 2 27 33
-2 23 -8 33 -23 35 -12 2 -24 0 -28 -4z"/>
<path d="M2962 6115 c0 -16 2 -22 5 -12 2 9 2 23 0 30 -3 6 -5 -1 -5 -18z"/>
<path d="M2957 6063 c3 -7 9 -13 14 -13 5 0 9 -8 8 -17 0 -11 -3 -13 -6 -6 -3
10 -8 10 -19 -1 -8 -8 -14 -19 -14 -24 0 -5 -8 -9 -17 -8 -13 1 -18 -6 -18
-24 0 -19 6 -26 24 -28 20 -3 23 0 18 17 -3 12 -1 21 5 21 5 0 7 4 4 8 -2 4
-1 14 3 21 6 8 11 2 16 -21 4 -18 9 -27 12 -20 2 6 9 10 13 7 5 -3 3 16 -5 42
-8 26 -15 51 -15 54 0 3 -6 6 -14 6 -8 0 -12 -6 -9 -14z m30 -75 c-3 -7 -5 -2
-5 12 0 14 2 19 5 13 2 -7 2 -19 0 -25z"/>
<path d="M3530 6000 c0 -13 7 -20 20 -20 13 0 20 7 20 20 0 13 -7 20 -20 20
-13 0 -20 -7 -20 -20z"/>
<path d="M3353 5969 c-63 -23 -68 -112 -8 -145 32 -17 36 -17 69 -1 87 41 30
180 -61 146z"/>
<path d="M3046 5880 c3 -14 6 -30 6 -37 1 -7 5 -10 10 -7 4 3 4 13 -1 22 -4 9
-11 24 -15 32 -3 8 -4 4 0 -10z"/>
<path d="M3557 5864 c-14 -14 -7 -35 11 -32 9 2 17 10 17 17 0 16 -18 25 -28
15z"/>
<path d="M3096 5774 c-4 -9 -4 -19 -1 -22 3 -3 5 0 5 6 0 7 5 12 11 12 5 0 7
-5 3 -12 -4 -7 -3 -8 5 -4 9 6 9 11 0 22 -14 18 -16 18 -23 -2z"/>
<path d="M3040 5726 c0 -2 7 -7 16 -10 8 -3 12 -2 9 4 -6 10 -25 14 -25 6z"/>
<path d="M3230 5636 c0 -2 8 -10 18 -17 15 -13 16 -12 3 4 -13 16 -21 21 -21
13z"/>
<path d="M3106 5615 c-3 -8 -1 -15 4 -15 6 0 10 7 10 15 0 8 -2 15 -4 15 -2 0
-6 -7 -10 -15z"/>
<path d="M3477 5604 c-9 -10 2 -24 19 -24 8 0 14 7 14 15 0 15 -21 21 -33 9z"/>
<path d="M3300 5570 c0 -5 5 -10 11 -10 5 0 7 5 4 10 -3 6 -8 10 -11 10 -2 0
-4 -4 -4 -10z"/>
<path d="M3330 5551 c0 -8 -7 -10 -20 -6 -11 4 -20 2 -20 -4 0 -6 -8 -11 -17
-11 -14 0 -15 -2 -4 -9 8 -5 10 -14 6 -21 -5 -9 -4 -11 3 -6 7 4 12 2 12 -4 0
-6 5 -8 12 -4 8 5 9 2 5 -10 -6 -15 -3 -14 23 4 l29 21 21 -21 c21 -21 30 -25
30 -12 0 4 -12 15 -26 25 -20 15 -28 16 -40 6 -18 -15 -27 -8 -18 15 4 10 13
15 22 11 13 -5 13 -3 1 12 -7 10 -15 20 -16 22 -2 2 -3 -1 -3 -8z"/>
<path d="M3393 5506 c15 -14 36 -26 45 -25 14 0 14 2 2 6 -8 3 -28 15 -45 25
l-30 20 28 -26z"/>
<path d="M3340 5470 c-8 -5 -12 -11 -9 -14 2 -3 11 -1 19 4 8 5 12 11 9 14 -2
3 -11 1 -19 -4z"/>
<path d="M3445 5461 c-19 -8 -19 -8 3 -15 13 -4 35 -5 50 -1 25 7 26 8 7 15
-25 11 -35 11 -60 1z m42 -7 c-3 -3 -12 -4 -19 -1 -8 3 -5 6 6 6 11 1 17 -2
13 -5z"/>
<path d="M3376 5435 c-3 -8 -1 -15 4 -15 6 0 10 7 10 15 0 8 -2 15 -4 15 -2 0
-6 -7 -10 -15z"/>
<path d="M3400 5440 c0 -5 5 -10 10 -10 6 0 10 5 10 10 0 6 -4 10 -10 10 -5 0
-10 -4 -10 -10z"/>
<path d="M7280 6474 c0 -15 2 -16 9 -5 7 11 13 9 30 -8 16 -16 21 -33 21 -78
0 -67 8 -68 11 -1 2 26 6 45 9 43 4 -2 5 -18 2 -35 -2 -16 0 -30 6 -30 13 0
28 -42 41 -110 26 -137 10 -222 -75 -393 -19 -38 -32 -72 -29 -77 9 -14 -105
-139 -121 -133 -10 4 -12 0 -8 -11 7 -19 -12 -22 -20 -3 -3 6 -3 2 0 -10 3
-16 -1 -23 -17 -28 -11 -4 -29 -14 -38 -23 -59 -56 -102 -87 -151 -108 -30
-14 -68 -32 -85 -41 -16 -9 -46 -20 -65 -23 l-35 -6 50 -36 c86 -64 172 -91
306 -96 138 -5 205 9 327 69 318 156 438 574 253 880 -57 94 -150 181 -245
229 -97 49 -176 64 -176 34z m218 -816 c-3 -7 -11 -13 -18 -13 -7 0 -15 6 -17
13 -3 7 4 12 17 12 13 0 20 -5 18 -12z m-178 -172 c0 -2 -7 -6 -15 -10 -8 -3
-15 -1 -15 4 0 6 7 10 15 10 8 0 15 -2 15 -4z m-315 -66 c-3 -5 -10 -10 -16
-10 -5 0 -9 5 -9 10 0 6 7 10 16 10 8 0 12 -4 9 -10z"/>
<path d="M7297 6443 c-4 -3 -7 -43 -7 -87 0 -56 3 -76 10 -66 5 8 7 23 4 34
-4 12 -2 16 5 12 15 -10 14 29 -1 54 -10 16 -10 24 0 40 11 19 4 28 -11 13z"/>
<path d="M6824 6346 c-17 -44 20 -91 54 -70 21 14 28 64 10 75 -21 14 -58 10
-64 -5z"/>
<path d="M7367 6320 c3 -11 9 -17 14 -15 10 7 1 35 -11 35 -5 0 -6 -9 -3 -20z"/>
<path d="M7321 6308 c0 -7 4 -22 9 -33 7 -17 9 -15 9 13 1 17 -3 32 -9 32 -5
0 -10 -6 -9 -12z"/>
<path d="M7295 6232 c3 -19 1 -31 -5 -27 -5 3 -8 -4 -7 -15 1 -11 4 -20 8 -20
14 0 19 35 9 65 l-10 30 5 -33z"/>
<path d="M7317 6198 c-4 -12 -4 -25 -1 -30 9 -14 31 -9 38 8 8 22 8 22 -13 33
-15 9 -20 7 -24 -11z"/>
<path d="M7167 6175 c-7 -16 8 -29 23 -20 15 9 12 35 -4 35 -8 0 -16 -7 -19
-15z"/>
<path d="M6920 6145 c-18 -22 -8 -50 19 -50 32 0 49 28 32 49 -17 20 -35 20
-51 1z"/>
<path d="M6667 6013 c-14 -13 -6 -33 13 -33 13 0 20 7 20 20 0 19 -20 27 -33
13z"/>
<path d="M7225 5989 c-4 -6 -5 -12 -2 -15 2 -3 7 2 10 11 7 17 1 20 -8 4z"/>
<path d="M7279 5982 c-9 -9 -19 -28 -23 -42 l-7 -25 14 24 c11 19 15 20 20 8
9 -25 44 -9 49 22 3 22 0 27 -17 28 -11 1 -27 -6 -36 -15z"/>
<path d="M7236 5965 c-3 -9 -6 -22 -5 -28 0 -7 5 -1 10 12 5 13 8 26 5 28 -2
2 -6 -3 -10 -12z"/>
<path d="M6786 5948 c-22 -30 -20 -91 2 -110 40 -36 87 -30 124 16 23 28 22
58 -3 90 -28 35 -100 38 -123 4z"/>
<path d="M7301 5884 c0 -11 3 -14 6 -6 3 7 2 16 -1 19 -3 4 -6 -2 -5 -13z"/>
<path d="M7176 5867 c3 -10 9 -15 12 -12 3 3 0 11 -7 18 -10 9 -11 8 -5 -6z"/>
<path d="M6640 5850 c0 -11 7 -20 15 -20 8 0 15 9 15 20 0 11 -7 20 -15 20 -8
0 -15 -9 -15 -20z"/>
<path d="M7156 5843 c-6 -14 -5 -15 5 -6 7 7 10 15 7 18 -3 3 -9 -2 -12 -12z"/>
<path d="M7092 5752 c-29 -46 -126 -152 -140 -152 -5 0 -13 -7 -16 -16 -5 -14
-4 -15 9 -4 8 7 15 9 15 4 0 -5 9 2 20 16 11 14 20 19 20 13 0 -7 5 -13 11
-13 8 0 8 4 1 13 -7 8 -7 18 -1 27 8 13 10 13 20 0 8 -12 9 -11 4 7 -4 14 0
26 12 35 10 7 29 26 41 42 12 16 22 24 22 17 0 -6 5 -11 12 -11 9 0 9 3 0 12
-14 14 -16 32 -4 24 5 -3 9 1 9 9 0 24 -10 17 -35 -23z"/>
<path d="M7143 5772 c1 -12 6 -18 15 -15 7 3 10 9 5 12 -4 3 -11 10 -15 15 -4
4 -6 -1 -5 -12z"/>
<path d="M7186 5733 c-6 -14 -5 -15 5 -6 7 7 10 15 7 18 -3 3 -9 -2 -12 -12z"/>
<path d="M7090 5705 c-8 -9 -8 -15 -2 -15 12 0 26 19 19 26 -2 2 -10 -2 -17
-11z"/>
<path d="M7181 5694 c0 -11 3 -14 6 -6 3 7 2 16 -1 19 -3 4 -6 -2 -5 -13z"/>
<path d="M7200 5680 c0 -5 5 -10 10 -10 6 0 10 5 10 10 0 6 -4 10 -10 10 -5 0
-10 -4 -10 -10z"/>
<path d="M6733 5613 c-21 -7 -15 -33 7 -33 11 0 20 6 20 14 0 18 -11 25 -27
19z"/>
<path d="M6910 5550 c0 -5 -6 -10 -13 -10 -7 0 -18 -9 -25 -21 -10 -15 -10
-19 -1 -14 7 5 17 1 25 -9 17 -24 50 -12 56 19 3 13 1 22 -4 19 -4 -3 -11 2
-14 10 -7 18 -24 22 -24 6z"/>
<path d="M6820 5505 c-7 -8 -19 -15 -26 -15 -17 0 -18 -12 -2 -28 9 -9 5 -10
-18 -3 -16 4 -38 5 -49 0 l-20 -8 20 -1 c11 -2 26 -2 34 -1 7 2 10 -2 6 -8 -4
-7 2 -8 17 -2 13 5 23 15 23 24 0 9 11 25 24 36 13 12 19 21 14 21 -6 0 -16
-7 -23 -15z"/>
<path d="M1715 4871 c-5 -9 134 -4 144 5 2 2 -28 4 -67 4 -39 0 -73 -4 -77 -9z"/>
<path d="M1883 4861 c10 -4 18 -11 17 -15 -1 -5 4 -13 12 -17 10 -7 9 -9 -4
-9 -10 0 -18 5 -18 10 0 6 -5 10 -11 10 -6 0 -9 -6 -6 -12 2 -7 20 -13 41 -13
28 -1 34 2 23 10 -8 5 -13 18 -11 28 2 13 -5 17 -29 16 -24 0 -27 -2 -14 -8z"/>
<path d="M1959 4853 c12 -4 12 -6 0 -15 -10 -7 -7 -8 12 -4 15 3 34 -1 47 -10
13 -9 28 -14 35 -11 13 4 -53 35 -87 41 -12 2 -15 1 -7 -1z"/>
<path d="M2090 4800 c8 -5 20 -10 25 -10 6 0 3 5 -5 10 -8 5 -19 10 -25 10 -5
0 -3 -5 5 -10z"/>
<path d="M2130 4781 c0 -10 30 -24 37 -17 3 2 -5 9 -16 16 -12 6 -21 7 -21 1z"/>
<path d="M1661 4754 c0 -11 3 -14 6 -6 3 7 2 16 -1 19 -3 4 -6 -2 -5 -13z"/>
<path d="M2080 4756 c0 -2 8 -10 18 -17 15 -13 16 -12 3 4 -13 16 -21 21 -21
13z"/>
<path d="M2170 4735 c-10 -12 -7 -14 18 -12 23 1 28 5 20 15 -14 16 -23 15
-38 -3z"/>
<path d="M1698 4703 c12 -2 32 -2 45 0 12 2 2 4 -23 4 -25 0 -35 -2 -22 -4z"/>
<path d="M2240 4700 c0 -5 5 -10 11 -10 5 0 7 5 4 10 -3 6 -8 10 -11 10 -2 0
-4 -4 -4 -10z"/>
<path d="M1778 4693 c7 -3 16 -2 19 1 4 3 -2 6 -13 5 -11 0 -14 -3 -6 -6z"/>
<path d="M2280 4661 c0 -5 5 -13 10 -16 6 -3 10 -2 10 4 0 5 -4 13 -10 16 -5
3 -10 2 -10 -4z"/>
<path d="M2320 4626 c0 -13 42 -78 47 -72 3 2 -7 22 -21 43 -14 20 -26 34 -26
29z"/>
<path d="M1710 4560 c8 -5 20 -10 25 -10 6 0 3 5 -5 10 -8 5 -19 10 -25 10 -5
0 -3 -5 5 -10z"/>
<path d="M1847 4553 c-14 -14 -6 -25 14 -20 13 3 19 1 16 -6 -4 -13 45 -47 68
-47 8 0 15 5 15 11 0 6 -7 8 -16 5 -8 -3 -12 -2 -9 4 6 10 -7 14 -32 11 -8 -1
-10 5 -7 14 6 15 -5 20 -35 16 -7 -2 -10 2 -6 8 7 12 2 15 -8 4z"/>
<path d="M2387 4496 c-4 -10 -3 -15 3 -11 6 3 10 1 10 -6 0 -7 3 -10 6 -6 3 3
2 13 -4 22 -8 16 -9 16 -15 1z"/>
<path d="M1970 4477 c0 -3 8 -13 17 -23 10 -9 18 -23 18 -31 0 -7 3 -12 6 -10
3 1 14 -5 25 -13 18 -14 18 -14 5 2 -7 10 -18 15 -24 11 -6 -4 -8 0 -4 9 3 10
-4 25 -19 39 -13 12 -24 20 -24 16z"/>
<path d="M2185 4348 c17 -5 40 -11 52 -13 11 -2 32 -6 45 -9 18 -6 20 -5 7 3
-9 6 -26 12 -38 14 -11 2 -24 6 -27 10 -4 4 -21 7 -38 6 l-31 -1 30 -10z"/>
<path d="M2353 4301 c20 -13 25 -20 15 -24 -7 -3 -4 -5 7 -4 30 3 116 -36 111
-50 -3 -7 1 -10 9 -6 22 8 13 16 -74 61 -84 44 -116 55 -68 23z"/>
<path d="M2095 4269 c-4 -11 -4 -23 -1 -26 3 -4 6 1 6 11 0 9 4 14 10 11 6 -3
7 1 4 9 -8 21 -11 20 -19 -5z"/>
<path d="M2310 4276 c0 -3 9 -10 20 -16 11 -6 20 -8 20 -6 0 3 -9 10 -20 16
-11 6 -20 8 -20 6z"/>
<path d="M2115 4240 c-3 -5 -1 -10 4 -10 6 0 11 5 11 10 0 6 -2 10 -4 10 -3 0
-8 -4 -11 -10z"/>
<path d="M2110 4209 c0 -5 5 -7 10 -4 6 3 10 8 10 11 0 2 -4 4 -10 4 -5 0 -10
-5 -10 -11z"/>
<path d="M2528 4208 c10 -13 10 -17 0 -21 -7 -3 -3 -4 10 -4 12 1 22 4 22 7 0
3 -10 11 -22 19 -21 13 -22 13 -10 -1z"/>
<path d="M1813 4183 c9 -2 23 -2 30 0 6 3 -1 5 -18 5 -16 0 -22 -2 -12 -5z"/>
<path d="M2564 4169 c-3 -6 -1 -16 6 -22 10 -9 11 -9 6 1 -4 6 -2 12 4 12 6 0
13 -7 16 -15 6 -15 24 -21 24 -7 -1 15 -49 42 -56 31z"/>
<path d="M2634 4111 c0 -11 2 -18 5 -16 2 3 13 -2 23 -12 26 -23 22 -7 -5 23
-21 22 -23 23 -23 5z"/>
<path d="M2098 4053 c12 -2 32 -2 45 0 12 2 2 4 -23 4 -25 0 -35 -2 -22 -4z"/>
<path d="M2716 4011 c-4 -5 -2 -12 3 -15 5 -4 12 -2 15 3 4 5 2 12 -3 15 -5 4
-12 2 -15 -3z"/>
<path d="M8320 4860 c0 -4 -10 -6 -22 -2 -15 4 -19 2 -13 -7 5 -10 2 -11 -12
-7 -20 6 -56 -6 -148 -49 -55 -26 -106 -61 -71 -48 13 4 17 3 12 -5 -4 -7 -2
-12 4 -12 7 0 10 6 7 14 -7 19 100 67 133 60 22 -4 23 -3 5 5 -17 8 -18 10 -2
10 24 1 23 1 59 12 18 6 74 16 123 23 l90 13 -82 1 c-46 0 -83 -3 -83 -8z"/>
<path d="M8510 4860 c8 -5 26 -9 40 -9 23 0 23 1 5 9 -11 5 -29 9 -40 9 -17 1
-17 -1 -5 -9z"/>
<path d="M8310 4820 c8 -5 20 -10 25 -10 6 0 3 5 -5 10 -8 5 -19 10 -25 10 -5
0 -3 -5 5 -10z"/>
<path d="M8378 4823 c7 -3 16 -2 19 1 4 3 -2 6 -13 5 -11 0 -14 -3 -6 -6z"/>
<path d="M8398 4683 c6 -2 18 -2 25 0 6 3 1 5 -13 5 -14 0 -19 -2 -12 -5z"/>
<path d="M8318 4654 c-38 -20 -36 -28 2 -9 17 9 30 18 30 20 0 7 -1 6 -32 -11z"/>
<path d="M7890 4590 c-12 -16 -18 -30 -13 -30 5 0 17 14 26 30 10 17 16 30 13
30 -2 0 -14 -13 -26 -30z"/>
<path d="M8440 4574 l-35 -13 40 6 c44 6 50 9 38 16 -4 2 -24 -2 -43 -9z"/>
<path d="M8350 4539 c-19 -10 -53 -36 -76 -56 -22 -21 -31 -31 -20 -22 38 28
105 69 115 69 5 0 14 7 21 15 16 19 4 17 -40 -6z"/>
<path d="M7842 4512 c-7 -22 -7 -29 3 -29 7 0 10 9 8 21 -4 17 -3 18 6 6 5 -8
12 -12 15 -10 2 3 -2 13 -9 23 -12 16 -14 16 -23 -11z"/>
<path d="M7998 4468 c6 -6 18 -8 28 -6 14 3 12 5 -9 10 -19 3 -25 2 -19 -4z"/>
<path d="M7818 4437 c-3 -19 -2 -25 4 -19 6 6 8 18 6 28 -3 14 -5 12 -10 -9z"/>
<path d="M7953 4453 c9 -2 23 -2 30 0 6 3 -1 5 -18 5 -16 0 -22 -2 -12 -5z"/>
<path d="M8207 4416 c-4 -10 1 -12 14 -9 23 6 24 9 5 16 -8 3 -17 0 -19 -7z"/>
<path d="M8086 4363 c5 -5 12 -12 16 -18 4 -6 8 -2 8 8 0 9 -7 17 -17 17 -9 0
-12 -3 -7 -7z"/>
<path d="M8280 4360 c0 -5 5 -10 11 -10 5 0 7 5 4 10 -3 6 -8 10 -11 10 -2 0
-4 -4 -4 -10z"/>
<path d="M8038 4353 c7 -3 16 -2 19 1 4 3 -2 6 -13 5 -11 0 -14 -3 -6 -6z"/>
<path d="M7965 4335 c-16 -7 -23 -14 -15 -14 8 0 29 6 45 14 17 7 23 14 15 14
-8 0 -28 -6 -45 -14z"/>
<path d="M7865 4302 c-16 -9 -45 -25 -63 -35 -18 -11 -31 -21 -29 -24 2 -2 38
14 78 36 41 23 67 41 59 41 -8 0 -28 -8 -45 -18z"/>
<path d="M7890 4260 c-8 -5 -10 -10 -5 -10 6 0 17 5 25 10 8 5 11 10 5 10 -5
0 -17 -5 -25 -10z"/>
<path d="M8123 4260 c3 -16 21 -14 25 2 3 10 2 10 -6 -1 -7 -9 -11 -10 -15 -2
-4 7 -5 8 -4 1z"/>
<path d="M7707 4186 c4 -5 -1 -7 -9 -4 -10 4 -30 -9 -56 -35 -32 -33 -39 -45
-31 -57 9 -13 10 -13 6 0 -2 8 2 20 9 27 16 16 28 17 18 1 -4 -7 -3 -8 4 -4 6
4 9 13 6 21 -6 15 35 37 58 31 7 -1 9 -1 5 2 -4 2 -1 9 8 16 15 10 14 12 -4
12 -11 0 -17 -5 -14 -10z"/>
<path d="M7568 4063 c-3 -4 3 -16 14 -25 21 -21 24 -11 4 15 -8 10 -16 15 -18
10z"/>
<path d="M8098 4053 c12 -2 32 -2 45 0 12 2 2 4 -23 4 -25 0 -35 -2 -22 -4z"/>
<path d="M7688 3977 c4 -14 7 -16 13 -5 12 19 11 25 -5 25 -8 0 -11 -8 -8 -20z"/>
<path d="M5374 3426 c-3 -8 -1 -22 4 -32 7 -13 9 -10 8 15 -1 34 -4 38 -12 17z"/>
<path d="M5409 3329 c9 -21 19 -39 22 -39 10 0 -15 69 -27 74 -8 3 -6 -10 5
-35z"/>
<path d="M5436 3265 c5 -12 9 -13 14 -5 6 9 9 9 13 1 3 -7 5 -7 3 1 -1 7 -10
14 -19 16 -12 3 -15 -1 -11 -13z"/>
<path d="M5496 3213 c-6 -14 -5 -15 5 -6 7 7 10 15 7 18 -3 3 -9 -2 -12 -12z"/>
<path d="M5470 3195 c0 -5 5 -17 10 -25 5 -8 10 -10 10 -5 0 6 -5 17 -10 25
-5 8 -10 11 -10 5z"/>
<path d="M5605 3000 c3 -5 8 -10 11 -10 2 0 4 5 4 10 0 6 -5 10 -11 10 -5 0
-7 -4 -4 -10z"/>
<path d="M5710 2864 c1 -12 39 -61 40 -51 0 5 -9 20 -20 34 -11 14 -20 22 -20
17z"/>
<path d="M2721 3766 c2 -2 15 -9 29 -16 23 -12 24 -12 11 3 -7 10 -20 17 -29
17 -8 0 -13 -2 -11 -4z"/>
<path d="M2888 3763 c6 -2 18 -2 25 0 6 3 1 5 -13 5 -14 0 -19 -2 -12 -5z"/>
<path d="M3068 3763 c17 -2 47 -2 65 0 17 2 3 4 -33 4 -36 0 -50 -2 -32 -4z"/>
<path d="M3208 3763 c7 -3 16 -2 19 1 4 3 -2 6 -13 5 -11 0 -14 -3 -6 -6z"/>
<path d="M3488 3763 c6 -2 18 -2 25 0 6 3 1 5 -13 5 -14 0 -19 -2 -12 -5z"/>
<path d="M3577 3763 c18 -2 50 -2 70 0 21 2 7 4 -32 4 -38 0 -55 -2 -38 -4z"/>
<path d="M4168 3763 c7 -3 16 -2 19 1 4 3 -2 6 -13 5 -11 0 -14 -3 -6 -6z"/>
<path d="M4378 3763 c12 -2 30 -2 40 0 9 3 -1 5 -23 4 -22 0 -30 -2 -17 -4z"/>
<path d="M4636 3762 c-3 -6 -1 -14 5 -17 15 -10 25 3 12 16 -7 7 -13 7 -17 1z"/>
<path d="M4060 3750 c-22 -7 -21 -8 13 -9 23 -1 36 3 32 9 -7 11 -10 11 -45 0z"/>
<path d="M4685 3750 c-3 -5 -1 -10 4 -10 6 0 11 5 11 10 0 6 -2 10 -4 10 -3 0
-8 -4 -11 -10z"/>
<path d="M2893 3743 c32 -2 81 -2 110 0 29 2 3 3 -58 3 -60 0 -84 -1 -52 -3z"/>
<path d="M3378 3743 c12 -2 32 -2 45 0 12 2 2 4 -23 4 -25 0 -35 -2 -22 -4z"/>
<path d="M3490 3740 c-19 -4 15 -5 75 -2 61 3 112 6 114 8 8 7 -153 2 -189 -6z"/>
<path d="M3698 3743 c7 -3 16 -2 19 1 4 3 -2 6 -13 5 -11 0 -14 -3 -6 -6z"/>
<path d="M3755 3740 c3 -5 10 -10 16 -10 5 0 9 5 9 10 0 6 -7 10 -16 10 -8 0
-12 -4 -9 -10z"/>
<path d="M3825 3741 c-11 -4 18 -6 65 -4 116 6 131 11 35 11 -44 0 -89 -3
-100 -7z"/>
<path d="M4316 3742 c-2 -4 12 -6 32 -4 56 5 62 10 15 11 -23 1 -44 -3 -47 -7z"/>
<path d="M4258 3733 c7 -3 16 -2 19 1 4 3 -2 6 -13 5 -11 0 -14 -3 -6 -6z"/>
<path d="M4568 3733 c6 -2 18 -2 25 0 6 3 1 5 -13 5 -14 0 -19 -2 -12 -5z"/>
<path d="M4728 3733 c7 -3 16 -2 19 1 4 3 -2 6 -13 5 -11 0 -14 -3 -6 -6z"/>
<path d="M2258 3693 c12 -2 32 -2 45 0 12 2 2 4 -23 4 -25 0 -35 -2 -22 -4z"/>
<path d="M3458 3613 c12 -2 32 -2 45 0 12 2 2 4 -23 4 -25 0 -35 -2 -22 -4z"/>
<path d="M3658 3613 c7 -3 16 -2 19 1 4 3 -2 6 -13 5 -11 0 -14 -3 -6 -6z"/>
<path d="M4018 3613 c12 -2 32 -2 45 0 12 2 2 4 -23 4 -25 0 -35 -2 -22 -4z"/>
<path d="M4218 3613 c34 -2 90 -2 125 0 34 2 6 3 -63 3 -69 0 -97 -1 -62 -3z"/>
<path d="M4608 3613 c7 -3 16 -2 19 1 4 3 -2 6 -13 5 -11 0 -14 -3 -6 -6z"/>
<path d="M2266 3561 c6 -6 61 -13 130 -16 65 -3 113 -1 106 3 -7 5 -41 10 -75
10 -34 1 -87 5 -117 8 -40 5 -52 3 -44 -5z"/>
<path d="M2218 3553 c7 -3 16 -2 19 1 4 3 -2 6 -13 5 -11 0 -14 -3 -6 -6z"/>
<path d="M2538 3533 c12 -2 22 -9 22 -14 0 -5 8 -9 17 -9 15 0 14 2 -3 15 -10
8 -28 14 -39 13 -17 -1 -17 -1 3 -5z"/>
<path d="M3448 3493 c7 -3 16 -2 19 1 4 3 -2 6 -13 5 -11 0 -14 -3 -6 -6z"/>
<path d="M3658 3493 c6 -2 18 -2 25 0 6 3 1 5 -13 5 -14 0 -19 -2 -12 -5z"/>
<path d="M4038 3493 c23 -2 59 -2 80 0 20 2 1 4 -43 4 -44 0 -61 -2 -37 -4z"/>
<path d="M3538 3453 c12 -2 32 -2 45 0 12 2 2 4 -23 4 -25 0 -35 -2 -22 -4z"/>
<path d="M3658 3453 c7 -3 16 -2 19 1 4 3 -2 6 -13 5 -11 0 -14 -3 -6 -6z"/>
<path d="M3753 3453 c15 -2 37 -2 50 0 12 2 0 4 -28 4 -27 0 -38 -2 -22 -4z"/>
<path d="M4208 3453 c6 -2 18 -2 25 0 6 3 1 5 -13 5 -14 0 -19 -2 -12 -5z"/>
<path d="M4418 3453 c12 -2 32 -2 45 0 12 2 2 4 -23 4 -25 0 -35 -2 -22 -4z"/>
<path d="M2350 3380 c0 -5 5 -10 11 -10 5 0 7 5 4 10 -3 6 -8 10 -11 10 -2 0
-4 -4 -4 -10z"/>
<path d="M4040 3376 c0 -2 11 -6 25 -8 14 -3 25 -1 25 3 0 5 -11 9 -25 9 -14
0 -25 -2 -25 -4z"/>
<path d="M4263 3373 c31 -2 57 -9 57 -14 0 -6 -21 -9 -50 -8 -27 2 -53 0 -56
-4 -11 -11 99 -8 116 3 8 5 11 11 5 12 -5 1 19 4 55 8 51 5 38 7 -60 6 -69 0
-99 -1 -67 -3z"/>
<path d="M2740 3359 c0 -5 5 -7 10 -4 6 3 10 8 10 11 0 2 -4 4 -10 4 -5 0 -10
-5 -10 -11z"/>
<path d="M2870 3356 c0 -2 7 -7 16 -10 8 -3 12 -2 9 4 -6 10 -25 14 -25 6z"/>
<path d="M3516 3351 c-4 -5 3 -7 14 -4 23 6 26 13 6 13 -8 0 -17 -4 -20 -9z"/>
<path d="M4031 3344 c0 -11 3 -14 6 -6 3 7 2 16 -1 19 -3 4 -6 -2 -5 -13z"/>
<path d="M2165 3330 c3 -5 8 -10 11 -10 2 0 4 5 4 10 0 6 -5 10 -11 10 -5 0
-7 -4 -4 -10z"/>
<path d="M2917 3329 c7 -9 10 -18 7 -21 -3 -3 3 -5 13 -4 9 0 18 -5 18 -13 0
-8 10 -15 23 -16 12 -1 22 -1 22 0 0 1 -21 17 -47 35 -27 19 -42 27 -36 19z"/>
<path d="M4266 3319 c38 -6 71 -5 85 0 18 7 2 10 -61 9 l-85 0 61 -9z"/>
<path d="M3678 3313 c18 -2 45 -2 60 0 15 2 0 4 -33 4 -33 0 -45 -2 -27 -4z"/>
<path d="M3878 3313 c23 -2 61 -2 85 0 23 2 4 4 -43 4 -47 0 -66 -2 -42 -4z"/>
<path d="M2715 3300 c3 -5 11 -10 16 -10 6 0 7 5 4 10 -3 6 -11 10 -16 10 -6
0 -7 -4 -4 -10z"/>
<path d="M2768 3303 c6 -2 18 -2 25 0 6 3 1 5 -13 5 -14 0 -19 -2 -12 -5z"/>
<path d="M3040 3221 c0 -6 4 -13 10 -16 6 -3 7 1 4 9 -7 18 -14 21 -14 7z"/>
<path d="M2470 3210 c-18 -12 -2 -12 25 0 13 6 15 9 5 9 -8 0 -22 -4 -30 -9z"/>
<path d="M3693 3173 c15 -2 37 -2 50 0 12 2 0 4 -28 4 -27 0 -38 -2 -22 -4z"/>
<path d="M2833 3143 c9 -2 25 -2 35 0 9 3 1 5 -18 5 -19 0 -27 -2 -17 -5z"/>
<path d="M2898 3143 c6 -2 18 -2 25 0 6 3 1 5 -13 5 -14 0 -19 -2 -12 -5z"/>
<path d="M3002 3045 c7 -8 108 -9 115 -1 3 3 -22 6 -57 6 -35 0 -61 -2 -58 -5z"/>
<path d="M3318 3033 c12 -2 32 -2 45 0 12 2 2 4 -23 4 -25 0 -35 -2 -22 -4z"/>
<path d="M3431 3020 c-9 -5 -4 -7 13 -7 29 0 32 2 13 10 -8 3 -20 2 -26 -3z"/>
<path d="M3298 3013 c12 -2 32 -2 45 0 12 2 2 4 -23 4 -25 0 -35 -2 -22 -4z"/>
<path d="M3483 2996 c0 -8 11 -16 23 -19 14 -2 21 0 17 6 -4 6 0 8 8 5 41 -17
53 -19 29 -4 -14 8 -33 13 -42 10 -10 -3 -18 -1 -18 5 0 6 -4 11 -8 11 -5 0
-9 -6 -9 -14z"/>
<path d="M2870 2990 c0 -6 7 -10 15 -10 8 0 15 2 15 4 0 2 -7 6 -15 10 -8 3
-15 1 -15 -4z"/>
<path d="M3270 2930 c-18 -12 -2 -12 25 0 13 6 15 9 5 9 -8 0 -22 -4 -30 -9z"/>
<path d="M3415 2930 c-3 -5 -1 -10 4 -10 6 0 11 5 11 10 0 6 -2 10 -4 10 -3 0
-8 -4 -11 -10z"/>
<path d="M3038 2923 c23 -2 61 -2 85 0 23 2 4 4 -43 4 -47 0 -66 -2 -42 -4z"/>
<path d="M3348 2893 c7 -3 16 -2 19 1 4 3 -2 6 -13 5 -11 0 -14 -3 -6 -6z"/>
<path d="M3203 2873 c15 -2 39 -2 55 0 15 2 2 4 -28 4 -30 0 -43 -2 -27 -4z"/>
<path d="M3158 2853 c23 -2 61 -2 85 0 23 2 4 4 -43 4 -47 0 -66 -2 -42 -4z"/>
<path d="M3328 2853 c6 -2 18 -2 25 0 6 3 1 5 -13 5 -14 0 -19 -2 -12 -5z"/>
<path d="M3438 2853 c17 -2 47 -2 65 0 17 2 3 4 -33 4 -36 0 -50 -2 -32 -4z"/>
<path d="M5473 3763 c26 -2 67 -2 90 0 23 2 2 3 -48 3 -49 0 -68 -1 -42 -3z"/>
<path d="M6068 3763 c6 -3 12 -8 12 -13 0 -4 20 -10 44 -11 24 -2 42 -1 40 3
-2 3 2 9 8 11 7 3 -7 6 -32 6 -25 1 -54 3 -65 5 -11 2 -14 1 -7 -1z"/>
<path d="M6258 3763 c12 -2 32 -2 45 0 12 2 2 4 -23 4 -25 0 -35 -2 -22 -4z"/>
<path d="M6493 3763 c9 -2 23 -2 30 0 6 3 -1 5 -18 5 -16 0 -22 -2 -12 -5z"/>
<path d="M6590 3760 c0 -12 8 -12 35 0 18 8 17 9 -7 9 -16 1 -28 -3 -28 -9z"/>
<path d="M6763 3763 c9 -2 25 -2 35 0 9 3 1 5 -18 5 -19 0 -27 -2 -17 -5z"/>
<path d="M6908 3763 c18 -2 45 -2 60 0 15 2 0 4 -33 4 -33 0 -45 -2 -27 -4z"/>
<path d="M7265 3760 c17 -4 49 -10 73 -13 39 -5 41 -4 25 9 -10 8 -41 13 -73
13 -47 -1 -50 -2 -25 -9z"/>
<path d="M7440 3766 c0 -2 13 -6 29 -8 17 -2 28 -1 25 4 -5 8 -54 12 -54 4z"/>
<path d="M5458 3743 c12 -2 32 -2 45 0 12 2 2 4 -23 4 -25 0 -35 -2 -22 -4z"/>
<path d="M5698 3743 c12 -2 32 -2 45 0 12 2 2 4 -23 4 -25 0 -35 -2 -22 -4z"/>
<path d="M5858 3743 c12 -2 32 -2 45 0 12 2 2 4 -23 4 -25 0 -35 -2 -22 -4z"/>
<path d="M6300 3740 c36 -12 100 -12 100 0 0 6 -27 10 -62 9 -47 -1 -57 -3
-38 -9z"/>
<path d="M7058 3743 c12 -2 32 -2 45 0 12 2 2 4 -23 4 -25 0 -35 -2 -22 -4z"/>
<path d="M6208 3733 c6 -2 18 -2 25 0 6 3 1 5 -13 5 -14 0 -19 -2 -12 -5z"/>
<path d="M6588 3733 c6 -2 18 -2 25 0 6 3 1 5 -13 5 -14 0 -19 -2 -12 -5z"/>
<path d="M6728 3733 c7 -3 16 -2 19 1 4 3 -2 6 -13 5 -11 0 -14 -3 -6 -6z"/>
<path d="M6908 3733 c12 -2 30 -2 40 0 9 3 -1 5 -23 4 -22 0 -30 -2 -17 -4z"/>
<path d="M7880 3560 c-41 -6 -42 -7 -10 -8 19 0 58 3 85 8 47 7 48 7 10 7 -22
0 -60 -3 -85 -7z"/>
<path d="M8123 3563 c9 -2 23 -2 30 0 6 3 -1 5 -18 5 -16 0 -22 -2 -12 -5z"/>
<path d="M7695 3530 c-4 -6 -10 -8 -14 -6 -4 3 -13 1 -21 -5 -10 -6 2 -9 38
-9 48 0 52 2 38 15 -17 17 -32 19 -41 5z"/>
<path d="M7858 3513 c7 -3 16 -2 19 1 4 3 -2 6 -13 5 -11 0 -14 -3 -6 -6z"/>
<path d="M7565 3420 c-3 -5 -1 -10 4 -10 6 0 11 5 11 10 0 6 -2 10 -4 10 -3 0
-8 -4 -11 -10z"/>
<path d="M7500 3396 c0 -2 7 -7 16 -10 8 -3 12 -2 9 4 -6 10 -25 14 -25 6z"/>
<path d="M7458 3383 c7 -3 16 -2 19 1 4 3 -2 6 -13 5 -11 0 -14 -3 -6 -6z"/>
<path d="M7343 3343 c-12 -2 -27 -12 -34 -21 -11 -14 -11 -15 1 -4 8 6 22 12
31 12 10 0 21 5 24 10 3 6 5 9 3 9 -2 -1 -13 -4 -25 -6z"/>
<path d="M7382 3330 c-13 -10 -31 -17 -40 -14 -15 5 -15 4 1 -6 14 -9 23 -7
48 14 17 14 27 26 22 26 -4 -1 -18 -9 -31 -20z"/>
<path d="M7256 3290 c-18 -19 -18 -19 2 -17 12 0 19 3 17 6 -3 2 0 10 6 18 17
20 -3 14 -25 -7z"/>
<path d="M7596 3282 c-3 -5 8 -6 25 -4 16 2 29 6 29 8 0 8 -49 4 -54 -4z"/>
<path d="M7220 3249 c0 -5 5 -7 10 -4 6 3 10 8 10 11 0 2 -4 4 -10 4 -5 0 -10
-5 -10 -11z"/>
<path d="M7190 3220 c-6 -11 -8 -20 -6 -20 3 0 10 9 16 20 6 11 8 20 6 20 -3
0 -10 -9 -16 -20z"/>
<path d="M6658 3203 c12 -2 32 -2 45 0 12 2 2 4 -23 4 -25 0 -35 -2 -22 -4z"/>
<path d="M6498 3193 c7 -3 16 -2 19 1 4 3 -2 6 -13 5 -11 0 -14 -3 -6 -6z"/>
<path d="M6418 3173 c12 -2 32 -2 45 0 12 2 2 4 -23 4 -25 0 -35 -2 -22 -4z"/>
<path d="M7199 3147 c5 -5 19 -7 32 -5 20 3 19 5 -9 9 -20 3 -29 2 -23 -4z"/>
<path d="M7128 3043 c23 -2 61 -2 85 0 23 2 4 4 -43 4 -47 0 -66 -2 -42 -4z"/>
<path d="M6790 3024 c-73 -19 -142 -45 -136 -51 4 -5 45 7 121 35 22 8 72 18
110 22 70 7 70 7 15 8 -30 0 -80 -6 -110 -14z"/>
<path d="M6700 2970 c-9 -6 -10 -10 -3 -10 6 0 15 5 18 10 8 12 4 12 -15 0z"/>
<path d="M6608 2949 c-29 -21 -36 -39 -17 -39 5 0 7 5 3 11 -4 8 0 9 15 4 17
-5 20 -3 14 11 -4 10 -2 15 4 11 5 -3 10 0 10 8 0 8 -1 15 -1 15 -1 0 -13 -10
-28 -21z"/>
<path d="M6877 2933 c-6 -10 71 -8 80 1 3 3 -12 6 -35 6 -22 0 -43 -3 -45 -7z"/>
<path d="M7033 2923 c26 -2 68 -2 95 0 26 2 4 3 -48 3 -52 0 -74 -1 -47 -3z"/>
<path d="M7208 2923 c7 -3 16 -2 19 1 4 3 -2 6 -13 5 -11 0 -14 -3 -6 -6z"/>
<path d="M7248 2903 c6 -2 18 -2 25 0 6 3 1 5 -13 5 -14 0 -19 -2 -12 -5z"/>
<path d="M6683 2873 c9 -2 23 -2 30 0 6 3 -1 5 -18 5 -16 0 -22 -2 -12 -5z"/>
<path d="M6600 2860 c-13 -8 -12 -10 3 -10 9 0 17 5 17 10 0 12 -1 12 -20 0z"/>
<path d="M6678 2853 c23 -2 61 -2 85 0 23 2 4 4 -43 4 -47 0 -66 -2 -42 -4z"/>
<path d="M6868 2853 c17 -2 47 -2 65 0 17 2 3 4 -33 4 -36 0 -50 -2 -32 -4z"/>
<path d="M7098 2843 c7 -3 16 -2 19 1 4 3 -2 6 -13 5 -11 0 -14 -3 -6 -6z"/>
<path d="M6808 2713 c7 -3 16 -2 19 1 4 3 -2 6 -13 5 -11 0 -14 -3 -6 -6z"/>
<path d="M5818 3613 c34 -2 90 -2 125 0 34 2 6 3 -63 3 -69 0 -97 -1 -62 -3z"/>
<path d="M6168 3613 c7 -3 16 -2 19 1 4 3 -2 6 -13 5 -11 0 -14 -3 -6 -6z"/>
<path d="M6418 3613 c12 -2 32 -2 45 0 12 2 2 4 -23 4 -25 0 -35 -2 -22 -4z"/>
<path d="M6598 3613 c23 -2 61 -2 85 0 23 2 4 4 -43 4 -47 0 -66 -2 -42 -4z"/>
<path d="M6818 3613 c12 -2 32 -2 45 0 12 2 2 4 -23 4 -25 0 -35 -2 -22 -4z"/>
<path d="M6008 3493 c7 -3 16 -2 19 1 4 3 -2 6 -13 5 -11 0 -14 -3 -6 -6z"/>
<path d="M6288 3493 c6 -2 18 -2 25 0 6 3 1 5 -13 5 -14 0 -19 -2 -12 -5z"/>
<path d="M6733 3493 c9 -2 23 -2 30 0 6 3 -1 5 -18 5 -16 0 -22 -2 -12 -5z"/>
<path d="M6368 3453 c29 -2 74 -2 100 0 26 2 2 3 -53 3 -55 0 -76 -1 -47 -3z"/>
<path d="M6658 3453 c12 -2 32 -2 45 0 12 2 2 4 -23 4 -25 0 -35 -2 -22 -4z"/>
<path d="M5660 3366 c0 -8 4 -17 9 -20 5 -4 7 3 4 14 -6 23 -13 26 -13 6z"/>
<path d="M5823 3373 c37 -2 97 -2 135 0 37 2 6 3 -68 3 -74 0 -105 -1 -67 -3z"/>
<path d="M6278 3373 c68 -2 176 -2 240 0 64 1 9 3 -123 3 -132 0 -185 -2 -117
-3z"/>
<path d="M5955 3351 c3 -5 1 -12 -5 -16 -5 -3 -10 -11 -10 -16 0 -6 7 -4 15 5
17 17 20 36 4 36 -5 0 -8 -4 -4 -9z"/>
<path d="M6730 3349 c0 -5 5 -7 10 -4 6 3 10 8 10 11 0 2 -4 4 -10 4 -5 0 -10
-5 -10 -11z"/>
<path d="M5723 3343 c4 -7 -4 -15 -20 -21 -21 -8 2 -10 97 -9 119 0 121 1 39
6 -54 4 -93 12 -104 21 -11 8 -16 10 -12 3z"/>
<path d="M6508 3343 c12 -2 30 -2 40 0 9 3 -1 5 -23 4 -22 0 -30 -2 -17 -4z"/>
<path d="M6136 3325 c5 -12 25 -15 98 -14 83 1 87 2 46 10 -25 6 -64 7 -87 4
-28 -4 -43 -2 -43 4 0 6 -4 11 -10 11 -5 0 -7 -7 -4 -15z"/>
<path d="M6477 3323 c6 -14 53 -18 53 -4 0 5 -13 11 -29 13 -21 3 -28 1 -24
-9z"/>
<path d="M6640 3320 c0 -5 11 -10 25 -10 14 0 25 5 25 10 0 6 -11 10 -25 10
-14 0 -25 -4 -25 -10z"/>
<path d="M6378 3313 c12 -2 32 -2 45 0 12 2 2 4 -23 4 -25 0 -35 -2 -22 -4z"/>
<path d="M7838 3068 c9 -9 15 -9 24 0 9 9 7 12 -12 12 -19 0 -21 -3 -12 -12z"/>
</g>
</svg>
