<?xml version="1.0" standalone="no"?>
<!DOCTYPE svg PUBLIC "-//W3C//DTD SVG 20010904//EN"
 "http://www.w3.org/TR/2001/REC-SVG-20010904/DTD/svg10.dtd">
<svg version="1.0" xmlns="http://www.w3.org/2000/svg"
 width="1024.000000pt" height="1024.000000pt" viewBox="0 0 1024.000000 1024.000000"
 preserveAspectRatio="xMidYMid meet">

<g transform="translate(0.000000,1024.000000) scale(0.100000,-0.100000)"
fill="#000000" stroke="none">
<path d="M0 5120 l0 -5120 5120 0 5120 0 0 5120 0 5120 -5120 0 -5120 0 0
-5120z m5435 3809 c249 -21 533 -77 795 -155 377 -114 842 -350 1169 -594 694
-517 1201 -1278 1425 -2141 117 -450 141 -901 75 -1404 -50 -380 -177 -789
-359 -1160 -363 -738 -978 -1347 -1725 -1709 -381 -185 -699 -283 -1150 -355
-449 -72 -989 -45 -1469 75 -690 172 -1328 530 -1805 1014 -530 537 -881 1206
-1035 1971 -72 353 -85 791 -35 1144 32 222 100 516 162 700 240 707 697 1354
1277 1810 312 245 720 467 1100 600 305 106 662 183 965 208 97 8 501 6 610
-4z"/>
<path d="M4885 8544 c-768 -78 -1429 -351 -1990 -825 -114 -96 -338 -327 -432
-446 -437 -550 -671 -1098 -749 -1753 -23 -195 -23 -563 0 -755 34 -282 113
-592 217 -854 306 -768 880 -1395 1619 -1771 673 -341 1424 -456 2160 -329
860 148 1657 644 2178 1355 125 171 186 272 292 489 258 525 377 1058 356
1595 -27 694 -260 1344 -687 1915 -257 344 -489 568 -824 793 -445 301 -946
490 -1500 567 -114 16 -542 29 -640 19z m-115 -284 c0 -19 -25 -34 -41 -24
-13 8 -11 42 4 47 20 7 37 -4 37 -23z m880 -74 c0 -7 -9 -21 -20 -31 -16 -15
-22 -15 -35 -5 -20 17 -19 47 2 59 20 11 53 -3 53 -23z m-1106 8 c9 -8 16 -19
16 -24 0 -10 -29 -40 -39 -40 -13 0 -31 24 -31 40 0 16 18 40 31 40 4 0 15 -7
23 -16z m1555 -50 l23 -26 -24 -27 c-13 -14 -24 -27 -24 -29 -3 -5 -54 48 -54
55 0 9 42 53 50 53 3 0 17 -12 29 -26z m-1831 4 c16 -16 15 -43 -3 -58 -13
-10 -19 -10 -35 5 -24 22 -25 29 -4 49 19 19 26 20 42 4z m860 -37 c11 -7 15
-127 19 -627 2 -340 2 -633 -2 -652 l-6 -35 -83 5 c-210 13 -421 144 -520 321
-150 268 -115 567 91 788 96 103 246 180 385 198 86 11 102 11 116 2z m-1338
-90 c0 -28 -28 -47 -48 -34 -23 14 -26 38 -7 57 20 20 55 5 55 -23z m2119 -5
l23 -24 -23 -31 c-27 -36 -35 -38 -42 -11 -3 11 -12 20 -21 20 -22 0 -20 17 4
30 11 6 20 17 20 25 0 22 13 18 39 -9z m496 -68 c13 -27 33 -49 54 -60 47 -24
48 -26 7 -43 -30 -13 -42 -27 -61 -68 l-23 -52 -11 30 c-26 68 -53 95 -96 95
-27 0 -15 20 23 37 26 13 43 31 57 60 11 23 22 42 25 43 3 0 14 -19 25 -42z
m-2265 -78 c14 -14 35 -30 45 -36 18 -11 17 -13 -18 -27 -27 -12 -42 -27 -54
-54 l-16 -38 -11 26 c-15 37 -36 60 -63 70 -30 11 -29 20 10 44 17 11 38 34
46 50 13 28 15 28 25 10 6 -11 22 -31 36 -45z m1509 -65 c18 -25 29 -45 25
-45 -4 0 0 -8 8 -17 20 -23 58 -127 58 -156 -1 -12 -13 13 -27 56 -20 61 -28
75 -38 67 -10 -9 -12 -7 -9 7 3 10 -8 44 -25 76 -16 31 -29 57 -27 57 1 0 17
-20 35 -45z m1173 -4 l28 -29 -28 -29 -27 -30 -28 29 -28 28 23 30 c13 16 25
29 28 29 3 1 17 -12 32 -28z m-3352 -43 c0 -5 -4 -8 -8 -8 -5 0 -15 -11 -22
-25 l-13 -25 -28 32 -27 33 26 28 26 27 23 -27 c12 -16 22 -31 23 -35z m-257
-40 c13 -20 -6 -48 -34 -48 -22 0 -35 36 -18 56 15 18 38 15 52 -8z m575 -49
c13 -16 30 -29 38 -29 24 0 15 -19 -17 -35 -17 -9 -35 -29 -41 -46 -13 -38
-26 -37 -44 7 -10 23 -25 39 -44 46 -38 13 -38 22 -1 38 18 7 37 27 47 48 16
33 18 35 28 18 6 -10 22 -32 34 -47z m3252 27 c0 -3 -4 -8 -10 -11 -5 -3 -10
-1 -10 4 0 6 5 11 10 11 6 0 10 -2 10 -4z m-1326 -111 c9 -35 15 -79 15 -97
-1 -26 -3 -28 -5 -8 -11 72 -28 141 -35 146 -12 7 -11 24 0 24 5 0 16 -29 25
-65z m920 38 c-5 -5 -12 -12 -16 -18 -4 -6 -8 -2 -8 8 0 9 7 17 17 17 9 0 12
-3 7 -7z m597 -43 c36 -20 13 -76 -28 -68 -22 4 -29 43 -13 64 15 17 16 17 41
4z m-1178 -55 c18 -25 18 -26 -5 -55 -25 -32 -38 -37 -38 -16 0 7 -10 20 -22
28 l-21 14 24 26 c30 33 40 33 62 3z m-2562 -80 c81 -23 176 -80 148 -89 -130
-40 -192 -81 -244 -159 -90 -136 -84 -312 14 -441 46 -62 101 -101 181 -130
l61 -22 -38 -27 c-71 -49 -132 -69 -224 -75 -98 -5 -167 8 -247 46 -187 90
-305 334 -258 535 66 282 332 441 607 362z m2777 -16 l24 -29 -24 -29 c-24
-31 -38 -38 -38 -21 0 6 -9 19 -20 30 l-21 21 23 29 c13 16 25 29 28 29 3 0
15 -13 28 -30z m767 7 c209 -66 346 -295 314 -522 -26 -183 -165 -347 -338
-400 -114 -34 -295 -9 -393 56 -79 52 -79 50 5 132 57 56 79 86 94 128 68 185
19 344 -147 480 l-25 20 30 26 c41 35 78 54 160 81 58 19 85 23 160 19 50 -2
113 -11 140 -20z m-1308 -58 c-2 -13 -4 -3 -4 22 0 25 2 35 4 23 2 -13 2 -33
0 -45z m1683 22 c0 -11 -4 -20 -10 -20 -5 0 -10 9 -10 20 0 11 5 20 10 20 6 0
10 -9 10 -20z m-3185 -19 c0 -33 -30 -51 -51 -29 -13 13 -14 20 -4 37 16 31
55 25 55 -8z m1492 -83 c-3 -7 -5 -2 -5 12 0 14 2 19 5 13 2 -7 2 -19 0 -25z
m-1702 -68 c7 -33 54 -77 91 -86 34 -9 30 -17 -18 -39 -34 -16 -48 -31 -67
-69 l-23 -50 -27 55 c-23 48 -31 56 -73 69 -27 8 -48 17 -48 20 0 3 24 16 53
30 42 20 56 33 71 67 21 47 31 48 41 3z m2243 -53 c8 -22 25 -41 47 -53 19
-10 35 -21 35 -24 0 -3 -14 -11 -30 -18 -30 -14 -60 -57 -60 -87 0 -23 -17
-18 -24 8 -9 38 -44 75 -76 82 -38 8 -38 22 0 30 30 7 64 41 75 76 9 28 19 23
33 -14z m-3594 1 c8 -13 8 -23 0 -35 -17 -28 -42 -27 -55 1 -21 46 28 76 55
34z m3029 7 c-3 -9 -8 -14 -10 -11 -3 3 -2 9 2 15 9 16 15 13 8 -4z m-52 -91
c-11 -15 -21 -24 -21 -20 0 10 34 55 39 51 2 -2 -6 -16 -18 -31z m2009 -25 c0
-3 11 -12 25 -19 31 -17 31 -24 0 -38 -14 -7 -30 -23 -37 -37 -12 -27 -28 -33
-28 -11 0 8 -14 26 -32 41 l-32 27 26 22 c14 11 29 32 33 45 l7 24 19 -24 c10
-13 19 -27 19 -30z m-2040 -15 c0 -8 -19 -13 -24 -6 -3 5 1 9 9 9 8 0 15 -2
15 -3z m-50 -49 c-13 -14 -28 -25 -34 -25 -5 0 3 13 19 30 16 16 31 28 33 25
3 -3 -5 -16 -18 -30z m-70 -60 c0 -7 -63 -45 -75 -45 -5 0 8 11 30 25 44 27
45 27 45 20z m-1129 -71 c17 -35 32 -51 60 -63 22 -9 39 -19 39 -23 0 -4 -20
-16 -44 -26 -35 -16 -46 -27 -56 -58 -16 -50 -28 -63 -35 -38 -20 63 -35 82
-82 104 -30 14 -42 25 -33 28 58 18 84 38 102 79 10 24 21 43 23 43 2 0 13
-21 26 -46z m1574 -85 c26 -11 45 -23 42 -25 -2 -3 -24 -15 -48 -27 -41 -21
-53 -36 -77 -97 l-10 -25 -11 30 c-26 71 -39 84 -100 108 l-35 13 50 25 c39
19 54 34 73 73 l24 49 23 -52 c20 -44 30 -55 69 -72z m-3283 2 l27 -25 -29
-18 c-17 -10 -30 -24 -30 -32 0 -28 -19 -26 -34 3 -9 16 -25 32 -36 36 -26 8
-25 19 4 34 13 7 29 25 36 40 12 25 13 25 24 6 6 -10 23 -30 38 -44z m3636 7
c17 -17 15 -43 -4 -59 -31 -26 -70 25 -44 56 15 18 32 19 48 3z m-3899 -69
l23 -31 -21 -14 c-12 -9 -21 -22 -21 -30 0 -21 -18 -17 -25 5 -3 11 -15 23
-26 26 -10 4 -19 10 -19 15 0 5 9 11 19 15 11 3 23 15 26 26 9 26 18 24 44
-12z m5349 -54 l22 -26 -27 -34 c-26 -32 -28 -33 -35 -15 -4 11 -14 23 -23 26
-21 8 -19 19 8 48 28 31 29 31 55 1z m-2274 -10 c19 -19 10 -45 -15 -45 -25 0
-35 26 -19 45 15 18 15 18 34 0z m-1463 -97 c6 -13 23 -33 37 -45 l26 -22 -28
-12 c-15 -7 -33 -27 -40 -43 l-13 -31 -16 32 c-10 18 -29 39 -43 46 l-26 13
36 28 c20 15 36 34 36 42 0 22 18 17 31 -8z m768 -64 l-26 -26 -29 27 -28 26
29 24 30 24 25 -25 25 -24 -26 -26z m-1875 50 c19 -19 20 -25 3 -48 -18 -24
-51 -17 -55 12 -3 23 13 52 29 52 4 0 15 -7 23 -16z m4490 10 c20 -8 21 -47 2
-63 -30 -25 -71 24 -46 54 14 17 21 18 44 9z m593 -41 c3 -10 15 -25 26 -34
20 -17 20 -17 -4 -41 -13 -14 -29 -34 -36 -44 -11 -18 -12 -18 -12 4 -1 14
-10 27 -26 34 -24 11 -35 38 -16 38 6 0 18 14 28 30 20 34 31 38 40 13z
m-2362 -28 c0 -23 -5 -31 -21 -33 -30 -4 -48 21 -34 48 18 33 55 23 55 -15z
m573 -109 c29 -10 49 -22 45 -26 -4 -4 -29 -14 -55 -24 -47 -17 -57 -30 -94
-125 -9 -21 -11 -18 -28 34 -19 61 -51 89 -114 101 -49 9 -47 21 8 39 53 18
96 59 106 103 12 47 16 45 48 -19 29 -60 35 -65 84 -83z m1550 -81 c29 -11 52
-23 52 -27 0 -4 -18 -13 -40 -19 -51 -16 -68 -35 -85 -99 -8 -29 -16 -54 -18
-56 -2 -3 -12 22 -21 55 -18 65 -46 95 -96 106 -41 9 -38 20 10 34 53 16 73
39 90 103 l13 53 22 -65 c21 -63 23 -66 73 -85z m-5550 38 c3 -25 -1 -33 -19
-38 -33 -11 -56 17 -41 50 18 39 56 31 60 -12z m3024 16 c45 -23 140 -115 252
-242 66 -75 69 -77 90 -63 71 52 182 69 268 41 82 -25 146 -78 187 -155 l35
-66 63 4 c80 5 135 -10 195 -53 88 -64 137 -163 145 -290 l5 -80 -22 35 c-59
94 -156 160 -235 160 -49 0 -116 -30 -146 -64 -28 -32 -39 -33 -39 -3 0 33
-65 95 -107 103 -19 4 -53 1 -75 -5 -33 -10 -43 -10 -56 2 -127 106 -412 354
-497 433 -146 134 -156 140 -192 120 -15 -8 -82 -65 -148 -127 -66 -61 -207
-188 -313 -281 -189 -167 -194 -170 -219 -157 -35 19 -114 14 -150 -8 -45 -28
-89 -67 -103 -92 -10 -20 -14 -21 -28 -9 -37 29 -64 38 -114 38 -90 -1 -161
-44 -203 -123 l-20 -38 -3 50 c-6 98 46 226 111 274 56 43 120 60 190 54 34
-3 71 -9 82 -12 17 -5 22 2 38 54 21 73 85 156 148 191 37 21 57 25 124 25 71
0 87 -4 138 -32 56 -31 57 -31 71 -11 44 62 275 293 320 319 65 37 145 40 208
8z m2902 5 c20 -8 21 -48 1 -64 -33 -27 -64 27 -33 58 14 14 12 14 32 6z
m-4445 -48 l23 -25 -23 -30 c-26 -33 -49 -40 -49 -15 0 9 -9 18 -20 21 -27 7
-25 27 5 43 14 7 25 17 25 22 0 15 16 8 39 -16z m2991 -16 c0 -19 -25 -34 -41
-24 -13 8 -11 52 4 57 17 6 37 -12 37 -33z m-3611 -1 l31 -31 -25 -20 c-14
-11 -25 -26 -25 -34 0 -20 -19 -18 -27 4 -3 9 -15 24 -26 33 -20 17 -20 17 9
47 16 17 30 31 31 32 1 0 15 -14 32 -31z m1501 -12 c0 -6 -7 -18 -15 -28 -15
-16 -17 -15 -40 5 l-24 21 21 22 c20 22 23 22 40 6 10 -9 18 -21 18 -26z
m-1931 -5 c7 -16 23 -34 37 -40 33 -15 30 -26 -11 -51 -21 -12 -35 -28 -35
-40 0 -33 -20 -34 -31 -2 -6 17 -26 39 -47 52 l-37 21 34 17 c19 10 39 32 47
50 15 36 26 35 43 -7z m1522 16 c23 -28 23 -28 -1 -56 l-19 -22 -25 25 -25 25
22 24 c28 30 25 30 48 4z m3144 -18 c4 -12 1 -28 -6 -36 -16 -20 -53 -14 -57
9 -8 41 51 66 63 27z m-290 -107 c10 -43 43 -81 80 -93 42 -14 45 -27 8 -36
-48 -11 -72 -33 -83 -74 -6 -22 -14 -40 -19 -40 -4 0 -13 17 -19 38 -14 46
-34 65 -85 82 -42 13 -41 25 3 35 35 8 76 53 85 95 8 35 20 32 30 -7z m935
-33 c0 -5 9 -18 21 -29 17 -16 18 -20 6 -28 -8 -4 -19 -18 -26 -30 -11 -21
-11 -21 -42 10 l-32 31 22 14 c11 8 21 21 21 28 0 8 7 14 15 14 8 0 15 -4 15
-10z m-5578 -41 c17 -29 17 -31 -4 -59 l-21 -29 -27 29 -28 30 27 30 c14 16
28 29 31 30 3 0 13 -14 22 -31z m1057 -6 c12 -23 -4 -53 -29 -53 -25 0 -41 29
-29 52 12 23 45 23 58 1z m1701 -123 c0 -107 -12 -151 -49 -184 -29 -26 -27
-45 18 -134 21 -42 46 -108 55 -147 19 -80 35 -225 26 -225 -7 0 -131 152
-169 208 -12 17 -26 32 -30 32 -5 0 -11 -35 -14 -77 -15 -198 -119 -387 -247
-451 -44 -21 -45 -22 -48 -3 -2 11 19 74 46 140 27 67 46 121 43 121 -4 0 -47
-40 -96 -90 -49 -49 -95 -90 -102 -90 -6 0 -25 16 -41 36 l-30 36 29 47 c15
25 37 71 49 101 l20 55 -72 -78 c-40 -43 -77 -77 -81 -77 -11 0 -147 123 -147
132 0 3 102 98 228 209 125 112 292 263 372 335 211 192 224 204 233 204 4 0
7 -45 7 -100z m-2228 31 c15 -13 14 -17 -15 -52 -18 -21 -35 -39 -38 -39 -4 0
-10 11 -13 25 -4 14 -13 25 -21 25 -24 0 -29 22 -8 39 12 9 26 27 33 41 l13
24 16 -24 c9 -13 24 -31 33 -39z m839 -1 c23 -13 25 -43 3 -61 -31 -26 -70 25
-44 56 15 18 16 18 41 5z m2808 -14 l22 -24 -26 -26 -26 -26 -24 27 -24 28 21
23 c27 28 29 27 57 -2z m1685 1 c8 -12 5 -21 -8 -36 -24 -26 -28 -26 -44 0
-11 18 -11 24 4 40 20 22 33 21 48 -4z m-6064 -98 c0 -5 -12 -21 -26 -36 -19
-19 -28 -24 -31 -15 -3 7 -14 22 -25 32 l-21 19 24 29 24 30 28 -26 c15 -14
27 -29 27 -33z m5261 -3 c6 -13 22 -30 35 -37 30 -16 30 -27 0 -41 -14 -6 -30
-24 -37 -39 -12 -31 -29 -39 -29 -13 0 9 -14 29 -31 45 l-31 29 25 20 c14 11
29 29 32 40 9 27 23 25 36 -4z m-4147 -59 c7 -37 38 -71 74 -82 31 -9 28 -17
-16 -40 -27 -15 -41 -31 -52 -62 -8 -24 -17 -43 -20 -43 -3 0 -14 19 -25 43
-15 31 -31 47 -62 62 -23 11 -42 23 -43 26 0 3 18 13 41 22 33 13 44 24 61 66
24 56 33 57 42 8z m3676 -104 c0 -7 -4 -13 -10 -13 -5 0 -16 -12 -23 -27 -14
-26 -15 -26 -21 -5 -4 12 -16 27 -27 33 -19 10 -19 11 8 43 l28 33 22 -26 c12
-14 22 -32 23 -38z m775 29 c9 -23 -21 -49 -42 -36 -24 15 -26 29 -8 47 18 18
40 13 50 -11z m-2284 -32 c14 0 39 -26 32 -34 -3 -3 2 -8 11 -12 9 -3 16 -11
16 -16 0 -13 -99 84 -100 97 0 5 7 -1 16 -13 8 -12 20 -22 25 -22z m-2901 4
c8 -14 22 -30 32 -35 25 -13 23 -24 -7 -37 -13 -6 -27 -23 -31 -37 -8 -32 -18
-32 -32 -1 -6 14 -22 32 -36 41 l-25 16 37 39 c20 21 40 39 43 39 3 1 12 -11
19 -25z m2957 -14 c18 -16 29 -30 24 -30 -5 0 -23 14 -39 30 -17 17 -28 30
-25 30 3 0 21 -13 40 -30z m2477 -34 c8 -20 28 -42 45 -51 39 -20 39 -30 1
-44 -21 -7 -36 -22 -45 -46 -19 -44 -28 -44 -40 -2 -7 21 -20 37 -42 47 -18 8
-33 18 -33 22 0 3 16 15 35 27 24 14 37 30 41 51 8 39 20 38 38 -4z m-4355
-25 c13 -24 -8 -55 -35 -49 -20 3 -30 29 -20 54 8 20 43 17 55 -5z m1970 -25
c14 -14 19 -26 13 -26 -6 0 -14 5 -17 10 -4 6 -10 8 -15 5 -10 -6 -64 25 -56
32 2 3 17 -3 33 -13 l28 -18 -25 28 c-21 24 -22 27 -5 18 11 -5 31 -22 44 -36z
m2642 -26 c24 -14 24 -32 -1 -55 -16 -15 -22 -15 -35 -5 -26 22 -19 61 13 69
2 1 12 -4 23 -9z m-3871 -4 c0 -2 -7 -7 -16 -10 -8 -3 -12 -2 -9 4 6 10 25 14
25 6z m1274 -15 c4 -5 -3 -7 -14 -4 -23 6 -26 13 -6 13 8 0 17 -4 20 -9z m436
-31 c0 -11 -7 -20 -15 -20 -18 0 -19 12 -3 28 16 16 18 15 18 -8z m-3002 -21
c48 -21 123 -94 142 -138 15 -37 19 -38 65 -7 54 37 140 59 199 51 57 -7 133
-41 207 -92 l51 -35 52 36 c74 51 115 65 174 62 29 -2 52 0 52 3 0 3 10 12 23
20 21 13 21 13 7 -4 -18 -22 -229 -201 -322 -274 l-68 -53 -107 87 c-60 48
-119 91 -133 97 -47 18 -82 0 -217 -109 -72 -60 -155 -125 -184 -146 l-54 -37
39 35 39 35 -29 25 c-16 14 -39 25 -51 25 -29 0 -29 8 -1 32 27 23 59 32 98
26 33 -5 34 -4 20 21 -13 26 -81 51 -136 51 -43 0 -115 -28 -129 -50 -4 -6
-17 6 -31 26 -37 54 -46 61 -101 77 -58 17 -103 11 -155 -21 -35 -22 -78 -66
-78 -81 0 -4 -9 -16 -20 -26 -20 -18 -29 -8 -9 12 5 5 12 40 14 76 6 98 44
161 122 201 40 20 113 21 160 1 l37 -16 32 35 c74 80 183 101 292 55z m4332
-4 c19 -10 50 -34 68 -54 29 -31 35 -34 52 -23 59 37 173 22 228 -29 46 -43
64 -84 70 -157 l5 -64 -35 35 c-78 77 -165 92 -254 43 -51 -27 -94 -83 -94
-121 0 -12 -5 -15 -22 -9 -13 4 -43 7 -68 7 -85 -1 -189 -87 -144 -120 10 -7
14 -13 10 -13 -12 0 -116 75 -246 179 -125 99 -143 106 -208 72 -20 -11 -79
-49 -131 -85 -52 -36 -102 -66 -111 -66 -14 0 -68 40 -200 148 -68 56 -137
126 -117 119 10 -4 27 -2 38 4 26 13 126 13 162 0 16 -6 49 -27 73 -47 l43
-36 33 25 c50 38 147 85 202 97 75 17 161 -7 243 -66 21 -15 22 -14 41 28 22
50 75 103 135 136 35 19 54 22 117 19 47 -2 88 -10 110 -22z m-3255 -5 c-3 -5
-12 -10 -18 -10 -7 0 -6 4 3 10 19 12 23 12 15 0z m1835 0 c0 -5 -2 -10 -4
-10 -3 0 -8 5 -11 10 -3 6 -1 10 4 10 6 0 11 -4 11 -10z m-1745 -30 c-3 -5
-16 -15 -28 -21 -22 -12 -22 -12 -3 10 19 21 43 30 31 11z m1816 -37 c13 -16
12 -17 -3 -4 -10 7 -18 15 -18 17 0 8 8 3 21 -13z m-2141 -13 c0 -11 -7 -20
-15 -20 -13 0 -14 4 -5 20 6 11 13 20 15 20 3 0 5 -9 5 -20z m2467 -26 c-3 -3
-12 -4 -19 -1 -8 3 -5 6 6 6 11 1 17 -2 13 -5z m-4384 -47 c13 -21 13 -25 -4
-46 l-18 -22 -22 20 c-21 19 -21 20 -3 45 23 31 28 32 47 3z m2127 -96 c17
-33 11 -71 -21 -127 l-30 -53 31 -71 c41 -94 51 -184 33 -309 -8 -53 -16 -117
-20 -143 -3 -27 -9 -48 -12 -48 -13 0 -50 123 -67 220 -25 145 -23 144 -76 54
-25 -44 -64 -114 -86 -157 l-41 -78 -6 38 c-9 51 -9 56 -2 73 11 29 17 81 8
76 -4 -3 -28 -31 -52 -63 -24 -32 -46 -60 -49 -63 -3 -3 -27 -32 -55 -65 -27
-33 -62 -73 -78 -90 -16 -16 -41 -52 -57 -78 -23 -40 -28 -45 -33 -28 -8 31
100 237 163 312 30 35 88 99 130 143 l75 79 -84 -64 c-109 -83 -241 -179 -247
-179 -10 0 -99 -74 -97 -81 2 -5 -3 -6 -11 -3 -7 3 -33 -10 -57 -28 -24 -19
-63 -43 -86 -54 -23 -10 -43 -22 -43 -26 0 -11 7 -10 33 3 21 10 21 9 -2 -10
-13 -12 -17 -21 -10 -21 7 0 21 7 31 17 10 9 21 14 23 11 3 -3 -9 -15 -27 -26
-33 -21 -33 -21 -42 -2 -12 26 -18 25 -54 -5 -203 -170 523 538 817 797 42 37
79 67 83 67 4 1 12 -8 18 -18z m-1916 -17 c9 -8 16 -19 16 -24 0 -10 -29 -40
-39 -40 -27 0 -43 63 -18 73 20 9 25 8 41 -9z m554 -55 c-17 -10 -28 -2 -21
17 4 11 8 12 20 3 11 -10 11 -14 1 -20z m3152 12 c0 -10 -7 -58 -16 -107 -22
-126 -15 -173 41 -275 88 -157 175 -318 175 -322 0 -3 -19 13 -41 34 -39 36
-52 44 -72 40 -5 -1 -6 3 -3 8 3 5 -9 22 -27 38 -65 58 -116 139 -151 237 -6
16 -14 7 -43 -50 -79 -152 -203 -299 -203 -241 0 12 12 56 45 167 13 45 12 43
-151 -118 -91 -89 -200 -187 -242 -217 -202 -145 -262 -186 -327 -221 l-70
-38 115 124 c196 211 942 960 956 960 8 0 14 -8 14 -19z m248 -22 c15 -11 81
-59 147 -106 66 -48 160 -120 209 -162 156 -132 404 -360 410 -377 4 -10 -12
-2 -36 18 -24 19 -93 69 -155 111 -157 106 -346 261 -496 406 -106 103 -153
168 -79 110z m-3678 -8 c0 -5 -7 -12 -16 -15 -14 -5 -15 -4 -4 9 14 17 20 19
20 6z m120 -22 c0 -5 -7 -9 -15 -9 -15 0 -20 12 -9 23 8 8 24 -1 24 -14z
m5350 -23 c43 -22 107 -82 126 -118 13 -25 16 -26 73 -21 150 14 243 -107 225
-290 -7 -69 -7 -69 -20 -38 -26 63 -78 123 -129 149 -66 35 -166 36 -239 4
-56 -26 -66 -27 -66 -9 0 18 -49 64 -83 76 -39 15 -68 14 -121 -4 -37 -13 -49
-13 -66 -3 -27 17 -40 62 -37 131 1 31 4 52 5 47 2 -6 21 9 43 34 25 28 53 48
76 55 55 15 171 8 213 -13z m-5541 0 c-2 -2 -17 -6 -34 -10 -22 -5 -26 -4 -15
4 14 9 59 15 49 6z m944 -80 c-15 -39 -15 -54 -5 -104 18 -85 15 -117 -10
-145 -33 -35 -133 -117 -208 -170 -36 -26 -71 -52 -78 -58 -7 -6 -19 -9 -27
-7 -11 2 -4 28 31 113 25 61 48 117 51 125 4 8 -16 -6 -43 -32 -26 -27 -52
-48 -56 -48 -4 0 -26 -17 -51 -37 -24 -21 -59 -49 -77 -63 -19 -14 -68 -52
-110 -86 -41 -33 -110 -85 -153 -115 -43 -30 -115 -80 -160 -112 -71 -50 -211
-127 -271 -150 -16 -6 -15 -3 5 15 59 54 157 135 359 293 240 189 535 429 724
588 90 76 109 74 79 -7z m3470 34 c-2 -19 -6 -71 -9 -116 -7 -84 4 -119 57
-196 37 -52 18 -48 -58 11 -127 99 -217 185 -211 202 8 21 189 140 207 137 12
-3 15 -13 14 -38z m-4303 26 c0 -2 -7 -7 -16 -10 -8 -3 -12 -2 -9 4 6 10 25
14 25 6z m205 -6 c-3 -5 -12 -10 -18 -10 -7 0 -6 4 3 10 19 12 23 12 15 0z
m-44 -15 c16 -9 34 -13 39 -10 5 3 7 0 4 -8 -3 -8 3 -22 12 -32 19 -19 36
-103 22 -111 -4 -3 -22 5 -39 17 -27 19 -37 21 -77 13 -37 -7 -51 -16 -67 -41
-18 -29 -24 -32 -66 -31 -65 2 -130 -43 -175 -120 -1 -2 -19 9 -40 23 -52 35
-134 58 -181 49 -108 -19 -202 -112 -204 -201 0 -27 -1 -27 -9 -6 -5 12 -12
56 -16 96 -11 122 29 204 123 251 53 27 172 16 226 -20 14 -9 25 -8 54 7 38
19 81 17 120 -7 30 -19 30 -19 37 24 12 63 16 72 54 97 45 29 136 34 183 10z
m-221 -9 c0 -3 -4 -8 -10 -11 -5 -3 -10 -1 -10 4 0 6 5 11 10 11 6 0 10 -2 10
-4z m-165 -16 c4 -7 -3 -8 -22 -4 -24 6 -26 5 -16 -7 10 -12 8 -15 -7 -15 -15
0 -16 4 -9 18 11 20 44 24 54 8z m4945 -14 c0 -2 -7 -7 -16 -10 -8 -3 -12 -2
-9 4 6 10 25 14 25 6z m-4895 -26 c-3 -5 -14 -10 -23 -10 -15 0 -15 2 -2 10
20 13 33 13 25 0z m92 -12 c-3 -8 -6 -5 -6 6 -1 11 2 17 5 13 3 -3 4 -12 1
-19z m-189 -13 c-6 -14 -13 -23 -15 -21 -5 5 15 46 22 46 3 0 -1 -11 -7 -25z
m177 -6 c4 -17 4 -33 1 -36 -3 -4 -6 3 -6 15 0 14 -5 20 -14 16 -8 -3 -23 -1
-33 5 -15 9 -13 10 11 5 25 -6 28 -4 23 10 -4 9 -2 16 3 16 4 0 11 -14 15 -31z
m2592 -1 c-3 -8 -6 -5 -6 6 -1 11 2 17 5 13 3 -3 4 -12 1 -19z m2228 12 c3 -5
1 -10 -4 -10 -6 0 -11 5 -11 10 0 6 2 10 4 10 3 0 8 -4 11 -10z m-4458 -32
c-3 -8 -6 -5 -6 6 -1 11 2 17 5 13 3 -3 4 -12 1 -19z m123 -26 c0 -5 -15 -19
-32 -32 l-33 -23 29 31 c31 34 36 37 36 24z m2090 -2 c0 -3 -6 -14 -12 -23
-12 -16 -13 -15 -14 6 -1 14 4 24 12 24 8 0 14 -3 14 -7z m2415 0 c3 -5 -3
-10 -15 -10 -12 0 -18 5 -15 10 3 6 10 10 15 10 5 0 12 -4 15 -10z m-4745 -40
c0 -5 -7 -10 -15 -10 -8 0 -15 5 -15 10 0 6 7 10 15 10 8 0 15 -4 15 -10z
m2280 -33 c0 -2 -10 -12 -22 -23 l-23 -19 19 23 c18 21 26 27 26 19z m-2340
-82 c0 -8 -6 -15 -14 -15 -8 0 -16 7 -20 15 -4 10 1 15 14 15 11 0 20 -7 20
-15z m1734 -11 c3 -8 2 -12 -4 -9 -6 3 -10 10 -10 16 0 14 7 11 14 -7z m3181
6 c3 -6 -1 -7 -9 -4 -18 7 -21 14 -7 14 6 0 13 -4 16 -10z m292 -12 c-3 -8 -6
-5 -6 6 -1 11 2 17 5 13 3 -3 4 -12 1 -19z m-624 -18 c4 0 5 6 0 13 -6 11 16
-2 72 -40 11 -7 15 -13 9 -13 -6 0 -24 10 -39 21 -19 16 -29 19 -34 10 -5 -8
-13 -4 -26 11 -11 13 -13 17 -5 11 8 -7 18 -13 23 -13z m-4820 -31 c-7 -7 -12
-3 -15 16 -5 25 -4 25 10 11 12 -11 13 -19 5 -27z m2047 -41 c10 -21 15 -38
11 -38 -5 0 -12 -10 -18 -22 -10 -22 -10 -22 -27 10 -10 19 -15 36 -12 40 3 3
6 1 6 -4 0 -6 6 -19 14 -29 13 -18 14 -16 14 19 0 27 -3 34 -9 25 -9 -15 -9
-15 -13 27 -1 6 -8 20 -16 30 -13 17 -12 17 9 -1 12 -11 31 -37 41 -57z m3175
42 c10 -11 16 -20 13 -20 -3 0 -13 9 -23 20 -10 11 -16 20 -13 20 3 0 13 -9
23 -20z m229 5 c3 -9 0 -15 -9 -15 -9 0 -12 6 -9 15 4 8 7 15 9 15 2 0 5 -7 9
-15z m-557 -40 c8 -5 20 -16 28 -22 7 -7 20 -13 27 -14 10 0 10 -2 1 -6 -14
-5 -112 66 -113 81 0 5 10 1 22 -10 12 -10 28 -23 35 -29z m810 29 c-3 -3 -12
-4 -19 -1 -8 3 -5 6 6 6 11 1 17 -2 13 -5z m-6037 -8 c0 -3 -4 -8 -10 -11 -5
-3 -10 -1 -10 4 0 6 5 11 10 11 6 0 10 -2 10 -4z m533 -49 c-13 -11 -26 -17
-29 -14 -3 3 4 10 15 16 13 8 18 17 14 28 -6 15 -5 16 9 3 13 -13 13 -16 -9
-33z m-493 25 c0 -13 -12 -22 -22 -16 -10 6 -1 24 13 24 5 0 9 -4 9 -8z m5273
-22 c14 0 77 -45 77 -54 0 -6 -5 -5 -12 2 -14 14 -32 16 -23 2 4 -6 -1 -7 -11
-3 -12 5 -15 3 -9 -6 6 -10 3 -11 -13 -2 -28 15 -35 28 -21 37 7 4 9 3 6 -3
-4 -6 4 -10 18 -10 31 0 24 12 -20 33 -19 9 -35 21 -35 27 0 5 8 3 18 -6 10
-10 22 -17 25 -17z m-4383 0 c-11 -11 -23 -20 -27 -20 -3 0 2 9 12 20 10 11
22 20 27 20 4 0 -1 -9 -12 -20z m1057 -2 c-3 -8 -6 -5 -6 6 -1 11 2 17 5 13 3
-3 4 -12 1 -19z m-1867 -19 c0 -10 -4 -19 -9 -19 -10 0 -21 36 -14 44 10 10
23 -5 23 -25z m1895 -87 c-3 -3 -5 1 -5 9 0 12 -2 11 -11 -1 -8 -11 -9 -8 -4
13 4 21 3 27 -6 21 -9 -5 -10 -2 -6 10 4 10 7 23 8 29 1 7 7 -8 15 -32 8 -25
12 -47 9 -49z m-1516 76 c-2 -2 -17 -14 -34 -28 l-30 -25 24 28 c14 15 29 27
34 27 6 0 8 -1 6 -2z m1921 -27 c6 -17 9 -35 5 -41 -4 -6 1 -21 11 -33 16 -18
14 -18 -11 3 -17 14 -32 26 -34 28 -3 1 1 8 7 14 15 15 16 38 2 38 -5 0 -10
-7 -10 -15 0 -8 -4 -15 -10 -15 -6 0 -5 10 2 25 15 32 23 32 38 -4z m2390 -57
c0 -11 -38 17 -70 52 l-35 38 53 -43 c28 -24 52 -45 52 -47z m-4766 51 c4 -10
-1 -15 -14 -15 -13 0 -18 5 -14 15 4 8 10 15 14 15 4 0 10 -7 14 -15z m5953 9
c-3 -3 -12 -4 -19 -1 -8 3 -5 6 6 6 11 1 17 -2 13 -5z m46 -1 c-7 -2 -19 -2
-25 0 -7 3 -2 5 12 5 14 0 19 -2 13 -5z m-4897 -31 c-17 -16 -18 -16 -5 5 7
12 15 20 18 17 3 -2 -3 -12 -13 -22z m4292 5 c17 -13 28 -28 24 -32 -4 -5 1
-5 10 -2 13 4 15 2 11 -10 -5 -13 -10 -12 -28 11 -19 24 -35 32 -70 35 -7 1
10 18 21 21 0 0 14 -11 32 -23z m302 2 l25 -20 -32 16 c-18 8 -33 18 -33 20 0
10 16 4 40 -16z m-4792 -14 c-3 -3 -9 2 -12 12 -6 14 -5 15 5 6 7 -7 10 -15 7
-18z m4417 15 c3 -5 1 -10 -4 -10 -6 0 -11 5 -11 10 0 6 2 10 4 10 3 0 8 -4
11 -10z m684 1 c8 -5 -3 -8 -33 -7 -25 0 -46 4 -46 9 0 10 62 9 79 -2z m-5846
-8 c-7 -2 -19 -2 -25 0 -7 3 -2 5 12 5 14 0 19 -2 13 -5z m3715 -6 c14 4 14 3
2 -5 -16 -12 -30 -7 -29 11 0 9 2 9 5 0 3 -7 13 -9 22 -6z m2275 -1 c7 -17
-40 -29 -50 -13 -3 5 -1 7 4 4 6 -4 16 0 23 8 15 18 17 18 23 1z m-766 -13
c-4 -3 -1 -13 6 -22 11 -14 10 -14 -5 -2 -21 15 -23 31 -6 31 6 0 8 -3 5 -7z
m-5408 -31 c-45 -33 -105 -72 -112 -72 -4 0 -7 10 -7 21 0 19 2 20 16 8 13
-11 17 -10 25 4 6 9 15 17 22 17 7 0 23 9 37 20 14 11 29 20 34 20 5 0 -2 -8
-15 -18z m276 -2 c3 -5 1 -10 -4 -10 -6 0 -11 5 -11 10 0 6 2 10 4 10 3 0 8
-4 11 -10z m805 7 c0 -2 -15 -13 -32 -26 l-33 -22 28 25 c26 24 37 31 37 23z
m900 -37 c0 -13 -1 -13 -10 0 -5 8 -10 22 -10 30 0 13 1 13 10 0 5 -8 10 -22
10 -30z m3603 -30 c73 -49 93 -67 82 -73 -9 -4 -13 -12 -10 -17 8 -13 65 -40
65 -31 0 4 -12 14 -27 21 -17 8 -23 14 -15 17 13 5 114 -58 106 -66 -2 -3 10
-11 27 -18 18 -7 29 -16 26 -20 -4 -3 -13 0 -22 7 -9 7 -19 10 -22 6 -12 -11
20 -27 43 -21 13 3 31 -6 53 -25 18 -17 46 -37 62 -45 47 -25 33 -27 -16 -3
-24 12 -41 26 -38 31 4 6 -1 8 -11 4 -24 -9 -42 2 -25 15 10 7 7 8 -10 4 -16
-3 -37 4 -65 23 -23 15 -45 30 -51 32 -5 2 -38 22 -72 44 -60 38 -80 65 -48
65 8 0 12 -6 9 -14 -7 -19 8 -27 23 -11 8 9 0 19 -38 41 -27 16 -49 33 -49 37
0 12 -20 -2 -20 -14 0 -5 12 -14 26 -20 15 -5 24 -12 21 -15 -9 -9 -96 49 -90
59 3 5 9 3 13 -3 5 -8 15 -10 26 -5 18 7 18 7 -1 16 -22 9 -76 52 -59 47 5 -2
54 -32 107 -68z m-4272 31 c-6 -10 -9 -20 -6 -22 2 -2 -8 -5 -21 -5 -13 -1
-24 2 -24 7 0 5 6 9 14 9 7 0 19 7 26 15 17 21 23 19 11 -4z m2530 -28 c11
-25 18 -54 17 -62 -2 -9 -13 12 -24 47 -11 34 -19 62 -17 62 2 0 13 -21 24
-47z m1614 37 c3 -6 -1 -7 -9 -4 -18 7 -21 14 -7 14 6 0 13 -4 16 -10z m-3443
-24 c7 4 8 2 4 -5 -4 -6 -12 -8 -18 -5 -8 5 -9 1 -4 -12 18 -42 16 -57 -3 -24
-10 19 -15 37 -10 38 5 2 10 11 10 20 1 15 2 15 6 -1 2 -9 9 -14 15 -11z
m-627 4 c3 -6 -1 -7 -9 -4 -18 7 -21 14 -7 14 6 0 13 -4 16 -10z m4832 -12
c-3 -8 -6 -5 -6 6 -1 11 2 17 5 13 3 -3 4 -12 1 -19z m-5231 -29 c-42 -37 -59
-38 -20 -2 16 15 28 30 27 35 -2 4 4 5 12 2 10 -4 5 -13 -19 -35z m1058 25 c3
-8 2 -12 -4 -9 -6 3 -10 -2 -10 -11 0 -10 -3 -15 -6 -11 -6 5 4 47 11 47 1 0
6 -7 9 -16z m1682 -32 c-15 -15 -15 -15 -4 10 7 15 15 23 17 17 2 -6 -4 -18
-13 -27z m1500 16 c0 -16 -1 -16 -19 -1 -16 15 -19 15 -27 3 -6 -8 -10 -10
-10 -4 0 16 9 22 33 20 14 0 23 -7 23 -18z m1024 12 c0 -5 -5 -10 -11 -10 -5
0 -7 5 -4 10 3 6 8 10 11 10 2 0 4 -4 4 -10z m-2467 -21 c-4 -15 -9 -17 -17
-9 -8 8 -7 13 4 20 8 5 16 10 17 10 0 0 -1 -9 -4 -21z m41 -1 c10 -39 7 -44
-9 -14 -17 33 -18 36 -6 36 5 0 11 -10 15 -22z m-3179 2 c-3 -5 -20 -19 -38
-30 l-32 -22 35 31 c35 32 46 38 35 21z m300 0 c-3 -5 -12 -10 -18 -10 -7 0
-6 4 3 10 19 12 23 12 15 0z m396 -22 c-11 -12 -27 -32 -36 -43 -24 -30 -5 5
23 43 14 18 27 31 29 28 3 -2 -5 -15 -16 -28z m2353 16 c3 -8 2 -12 -4 -9 -6
3 -10 10 -10 16 0 14 7 11 14 -7z m-2254 -31 c-11 -17 -11 -17 -6 0 3 10 6 24
7 30 0 9 2 9 5 0 3 -7 0 -20 -6 -30z m630 2 c0 -5 -5 -3 -10 5 -5 8 -10 20
-10 25 0 6 5 3 10 -5 5 -8 10 -19 10 -25z m1440 15 c0 -5 -5 -10 -11 -10 -5 0
-7 5 -4 10 3 6 8 10 11 10 2 0 4 -4 4 -10z m-2610 -12 c0 -9 4 -8 10 2 5 8 10
11 10 5 -1 -20 -27 -44 -47 -42 -18 1 -19 4 -10 24 11 24 37 32 37 11z m4353
-12 c25 -28 21 -29 -13 -4 -16 12 -30 23 -30 25 0 9 27 -4 43 -21z m-3213 -11
c-13 -15 -35 -11 -24 6 3 5 10 7 15 4 5 -4 9 -1 9 6 0 7 3 9 6 6 4 -4 1 -13
-6 -22z m2627 9 c3 -8 12 -13 20 -10 8 3 11 2 8 -3 -3 -5 -1 -12 4 -15 5 -3
11 1 15 9 8 22 27 18 64 -15 45 -42 40 -47 -9 -8 -33 26 -42 30 -49 18 -5 -9
-4 -20 3 -30 6 -8 -2 -4 -18 10 -49 41 -66 60 -55 60 6 0 13 -7 17 -16z
m-3477 1 c0 -2 -10 -10 -22 -16 -21 -11 -22 -11 -9 4 13 16 31 23 31 12z m519
-35 c0 -10 -3 -8 -9 5 -12 27 -12 43 0 25 5 -8 9 -22 9 -30z m1741 4 c-8 -8
-23 -20 -34 -26 -18 -9 -17 -7 4 15 27 28 51 37 30 11z m-1390 -19 c14 -19 14
-19 -2 -6 -10 7 -18 18 -18 24 0 6 1 8 3 6 1 -2 9 -13 17 -24z m30 -10 c0 -5
-5 -3 -10 5 -5 8 -10 20 -10 25 0 6 5 3 10 -5 5 -8 10 -19 10 -25z m3219 28
c-3 -20 2 -26 11 -13 6 9 10 10 10 3 0 -19 -20 -26 -36 -12 -12 10 -12 14 -2
20 16 11 18 11 17 2z m-4445 -28 c-10 -8 -23 -14 -29 -14 -5 -1 1 8 15 19 14
10 27 17 29 14 3 -2 -4 -11 -15 -19z m546 17 c0 -5 -12 -14 -27 -21 l-28 -12
25 21 c29 22 30 23 30 12z m3357 -44 c-16 -10 -24 -2 -30 28 l-5 26 23 -23
c14 -15 18 -27 12 -31z m-3484 27 c-3 -9 -8 -14 -10 -11 -3 3 -2 9 2 15 9 16
15 13 8 -4z m2052 -17 c5 -4 0 -6 -12 -6 -13 1 -19 7 -16 15 3 8 8 10 12 6 3
-4 10 -11 16 -15z m505 18 c0 -3 -4 -8 -10 -11 -5 -3 -10 -1 -10 4 0 6 5 11
10 11 6 0 10 -2 10 -4z m-2094 -30 c18 5 18 5 0 -6 -15 -10 -21 -9 -35 6 -14
16 -14 17 0 6 9 -7 25 -10 35 -6z m3114 -28 c0 -4 -8 -3 -18 3 -10 7 -19 18
-19 25 0 11 5 10 19 -3 10 -9 18 -20 18 -25z m500 32 c5 0 15 -10 21 -22 11
-22 11 -22 -7 -7 -10 9 -28 22 -39 28 -17 10 -17 12 -2 7 10 -3 23 -6 27 -6z
m-4740 -9 c0 -5 -7 -12 -16 -15 -14 -5 -15 -4 -4 9 14 17 20 19 20 6z m950 5
c0 -2 -8 -10 -17 -17 -16 -13 -17 -12 -4 4 13 16 21 21 21 13z m-540 -16 c0
-5 -4 -10 -9 -10 -4 0 -26 -12 -47 -26 l-39 -26 29 31 c16 16 33 28 38 25 4
-3 8 0 8 5 0 6 5 11 10 11 6 0 10 -4 10 -10z m2297 4 c-3 -3 -12 -4 -19 -1 -8
3 -5 6 6 6 11 1 17 -2 13 -5z m1473 -4 c8 -5 12 -11 9 -14 -3 -3 -14 1 -25 9
-21 16 -8 20 16 5z m-3025 -14 c12 -12 12 -15 -1 -20 -24 -9 -31 -7 -14 4 13
8 13 10 -1 10 -16 0 -34 -26 -31 -42 1 -5 -2 -8 -8 -8 -5 0 -10 13 -10 30 0
21 4 28 14 24 8 -3 17 -1 21 5 8 14 14 14 30 -3z m3068 -10 c4 -10 1 -13 -8
-9 -8 3 -12 9 -9 14 7 12 11 11 17 -5z m-4088 -6 c-3 -5 -12 -10 -18 -10 -7 0
-6 4 3 10 19 12 23 12 15 0z m714 -44 c1 7 10 14 21 17 18 5 18 4 3 -19 -8
-13 -19 -24 -23 -24 -10 0 -20 27 -19 48 1 10 4 7 9 -8 4 -14 8 -20 9 -14z
m-769 10 c0 -2 -7 -7 -16 -10 -8 -3 -12 -2 -9 4 6 10 25 14 25 6z m3183 -255
c231 -1 357 -5 357 -11 0 -5 -18 -10 -40 -10 -22 0 -70 -5 -107 -10 -38 -6
-99 -14 -138 -19 -60 -7 -43 -9 115 -11 102 -1 210 -3 240 -5 30 -2 80 -4 110
-4 54 0 54 0 32 -16 -16 -12 -34 -15 -60 -11 -29 5 -533 -16 -627 -26 -11 -1
120 -5 290 -9 618 -15 576 -24 -133 -29 l-674 -5 -19 -24 c-24 -29 -24 -56 -1
-79 17 -17 47 -19 348 -25 181 -4 388 -12 459 -17 76 -6 229 -8 371 -4 l241 7
7 -27 c3 -14 2 -35 -3 -45 -6 -10 -7 -21 -4 -25 3 -3 -1 -6 -10 -6 -8 0 -22
-7 -30 -15 -12 -12 -16 -12 -20 -1 -3 7 -1 19 4 27 6 9 9 10 9 2 0 -7 7 -10
16 -6 13 5 13 7 2 14 -12 8 -4 13 15 10 4 0 7 12 7 28 l0 30 -132 -5 c-73 -3
-135 -8 -138 -12 -3 -4 -90 -8 -195 -10 -310 -5 -353 -19 -70 -23 342 -4 344
-4 357 -17 9 -9 9 -12 -3 -13 -7 0 -45 -2 -84 -4 -38 -1 -142 -6 -230 -9 -277
-11 -385 -18 -390 -26 -3 -4 21 -7 53 -7 100 1 222 -7 222 -15 0 -4 -48 -7
-107 -7 -60 1 -238 -3 -396 -8 -269 -7 -290 -9 -303 -27 -18 -25 -17 -56 2
-81 14 -19 30 -20 372 -26 196 -4 432 -7 525 -8 102 -1 167 -5 167 -11 0 -10
-13 -11 -82 -10 -21 0 -38 -5 -38 -10 0 -6 -7 -10 -15 -10 -8 0 -15 4 -15 9 0
5 -16 5 -37 1 -21 -5 -84 -10 -140 -12 -56 -2 -99 -6 -95 -9 12 -11 292 -17
292 -6 0 5 6 4 14 -2 9 -8 33 -10 60 -7 40 4 67 -6 54 -20 -3 -2 -61 -6 -129
-9 -340 -14 -574 -33 -448 -36 468 -11 465 -24 -9 -33 -417 -8 -444 -9 -467
-28 -34 -27 -33 -70 1 -97 25 -20 39 -21 269 -21 305 0 936 -12 931 -17 -2 -3
-76 -4 -163 -4 -199 2 -424 -9 -418 -20 3 -4 69 -8 148 -8 78 -1 173 -4 210
-7 46 -3 73 -1 83 7 10 8 14 8 14 0 0 -6 9 -11 20 -11 25 0 26 -17 3 -24 -10
-2 -47 -4 -83 -4 -36 0 -103 -3 -150 -6 -127 -10 -246 -14 -438 -15 -113 -1
-171 -4 -167 -11 4 -6 108 -11 273 -11 366 -2 233 -15 -238 -24 -201 -3 -375
-8 -387 -11 -31 -6 -56 -56 -44 -86 20 -52 23 -53 330 -55 258 -1 683 -15 851
-28 36 -3 88 -2 115 2 42 5 46 7 25 14 -23 6 -23 7 8 8 23 1 31 -3 26 -11 -5
-8 0 -9 14 -6 12 4 20 2 16 -3 -3 -5 -23 -9 -45 -9 -22 0 -38 -4 -35 -9 8 -13
-95 -22 -111 -10 -7 7 -13 8 -13 3 0 -5 -16 -10 -35 -11 -19 -2 -35 1 -35 6 0
6 -10 8 -22 5 -13 -3 -149 -10 -303 -16 -154 -6 -284 -14 -289 -19 -9 -8 231
-15 288 -9 10 1 30 -1 44 -5 l25 -6 -28 -15 c-17 -9 -40 -12 -56 -9 -15 4 -81
1 -146 -5 -65 -6 -223 -15 -352 -19 -228 -7 -234 -8 -252 -30 -22 -27 -25 -70
-6 -95 19 -26 78 -35 223 -36 72 0 185 -3 250 -6 116 -7 120 -8 120 -29 0 -20
-5 -22 -35 -20 -20 1 -25 0 -12 -2 13 -3 31 -12 40 -20 14 -14 13 -15 -8 -8
-13 4 -21 3 -18 -1 3 -5 -36 -10 -86 -11 -51 -1 -123 -7 -162 -14 -38 -6 -110
-13 -160 -15 -49 -3 -100 -7 -112 -10 -35 -7 -63 -44 -64 -83 -1 -20 -3 -28
-6 -17 -4 15 -7 16 -14 5 -7 -12 -9 -12 -10 1 0 10 -3 8 -9 -5 -7 -16 -9 -13
-9 16 -1 57 -34 80 -123 85 -40 3 -121 12 -180 20 -59 8 -150 18 -203 22 -102
8 -125 23 -48 33 l48 6 -52 1 c-40 2 -53 6 -53 17 0 9 6 18 14 21 7 3 131 8
274 12 257 7 261 8 286 31 28 27 34 67 13 95 -16 22 -80 37 -133 29 -22 -3
-112 0 -200 7 -87 7 -253 13 -369 13 -115 1 -183 2 -150 4 33 2 80 6 105 9 39
6 42 8 20 14 -15 4 26 10 105 15 184 11 132 22 -137 30 -123 4 -249 11 -280
15 -32 5 -71 5 -87 0 -20 -6 -32 -5 -35 3 -4 9 -8 8 -12 -2 -5 -11 -8 -11 -15
0 -6 10 -9 11 -9 2 0 -15 -38 -17 -59 -4 -23 15 4 23 92 27 317 17 582 26 834
27 l291 2 26 24 c34 32 34 73 2 99 -23 17 -53 19 -428 27 -596 11 -714 21
-283 24 193 1 341 6 330 10 -11 5 -150 12 -310 16 -470 12 -455 11 -471 32
-13 17 -15 17 -28 1 -16 -22 -46 -24 -46 -3 0 9 9 15 23 15 13 0 26 3 30 6 3
3 83 5 179 5 241 -1 291 13 88 25 l-155 9 100 6 c55 4 255 8 445 9 190 1 356
5 369 9 13 3 33 18 44 32 16 23 17 30 6 50 -7 13 -19 29 -28 35 -10 8 -150 14
-446 19 -236 4 -421 11 -410 16 11 4 92 8 180 9 88 1 180 5 205 9 45 7 45 7
-30 14 -41 4 -182 11 -313 16 -131 4 -241 11 -244 15 -4 3 -2 11 4 17 8 8 20
9 43 1 18 -7 40 -8 53 -3 12 5 77 9 144 10 143 2 217 19 88 20 -44 1 -116 5
-160 10 -44 6 -120 12 -168 15 -49 2 -90 6 -93 8 -5 5 684 18 947 18 102 0
178 4 192 11 48 22 52 73 9 105 -10 7 -121 13 -316 17 -166 4 -317 10 -336 16
-30 8 -24 9 45 10 52 1 75 4 66 10 -16 10 -114 18 -346 26 -192 7 -319 16
-324 21 -17 17 41 21 349 24 267 3 243 11 -95 31 -274 17 -357 17 -363 2 -5
-16 -23 -17 -19 -1 1 7 -11 15 -28 20 -16 4 71 5 195 3 139 -3 319 1 470 10
135 8 347 15 471 15 203 0 227 2 241 18 36 41 32 74 -13 97 -23 13 -105 15
-486 16 -252 1 -485 5 -518 9 -44 5 -5 8 140 10 179 2 377 14 300 19 -95 5
-473 23 -545 26 -53 2 -87 -1 -92 -7 -3 -6 -5 0 -5 14 2 21 6 25 27 22 48 -6
565 10 525 17 -70 12 -270 19 -255 9 10 -7 -1 -10 -37 -10 -58 0 -72 16 -20
23 19 2 8 4 -27 5 -33 1 -56 5 -52 10 10 10 672 19 1236 16 256 -1 626 -3 823
-3z m-3648 -41 c10 -11 16 -20 13 -20 -3 0 -13 9 -23 20 -10 11 -16 20 -13 20
3 0 13 -9 23 -20z m4930 -5 c30 -30 31 -54 4 -89 -33 -41 -89 -34 -115 15 -11
21 -12 34 -4 48 29 56 75 66 115 26z m-4121 -16 c36 -42 33 -55 -18 -81 -28
-15 -30 -14 -53 12 -28 34 -28 34 -1 70 28 38 40 38 72 -1z m453 25 c-3 -3
-12 -4 -19 -1 -8 3 -5 6 6 6 11 1 17 -2 13 -5z m3257 -2 c2 -4 -12 -6 -32 -4
-56 5 -62 10 -15 11 23 1 44 -3 47 -7z m-4563 -29 c-18 -62 3 -108 39 -85 24
14 27 0 4 -19 -13 -11 -21 -6 -56 28 l-41 41 24 31 c30 38 40 39 30 4z m1127
-4 c-6 -4 -7 -16 -3 -29 5 -15 4 -20 -4 -16 -12 8 -15 59 -4 69 4 4 10 2 14
-5 4 -7 3 -15 -3 -19z m47 11 c3 -6 -1 -7 -9 -4 -18 7 -21 14 -7 14 6 0 13 -4
16 -10z m185 -2 c0 -5 -9 -7 -19 -3 -15 4 -19 1 -16 -12 5 -32 -6 -35 -31 -8
-20 22 -29 25 -51 18 -37 -13 -39 -29 -6 -41 28 -10 28 -10 3 -11 -14 0 -32 4
-40 9 -20 13 -2 42 31 50 39 9 129 8 129 -2z m3230 -2 c0 -6 4 -5 9 3 5 7 14
10 20 7 16 -10 14 -39 -5 -62 -15 -19 -15 -18 -11 4 5 23 -8 31 -16 10 -3 -7
-6 -2 -7 12 l-1 25 -9 -23 c-7 -17 -16 -22 -41 -20 -40 3 -44 12 -18 37 22 21
79 26 79 7z m-155 -4 c20 -14 13 -27 -15 -28 -22 -1 -26 3 -23 18 6 19 21 23
38 10z m-2995 -17 c-33 -19 -56 -19 -64 0 -4 12 4 15 42 15 46 -1 46 -1 22
-15z m2918 8 c-20 -3 -28 -10 -28 -24 0 -10 -4 -19 -10 -19 -5 0 -10 9 -10 21
0 13 -4 18 -12 13 -7 -4 -8 -3 -4 4 4 7 26 11 49 11 30 -2 34 -3 15 -6z m1111
-42 c-11 -16 -14 -17 -27 -5 -12 13 -12 17 4 35 15 17 19 18 26 5 5 -9 4 -23
-3 -35z m-5378 2 c-9 -16 -10 -15 -9 9 2 16 6 24 11 19 5 -5 5 -17 -2 -28z
m5389 -26 c-13 -12 -18 -14 -11 -4 8 9 10 17 5 17 -5 0 -2 4 6 10 25 16 25 1
0 -23z m-3887 -14 c-7 -2 -19 -2 -25 0 -7 3 -2 5 12 5 14 0 19 -2 13 -5z
m3595 -136 c31 -28 31 -98 0 -127 -34 -32 -67 -36 -107 -14 -30 16 -37 25 -39
57 -4 42 15 52 20 10 3 -30 23 -39 63 -29 17 4 22 11 18 26 -4 16 -2 19 11 14
12 -5 15 -2 9 12 -5 12 -3 15 6 9 18 -11 4 36 -15 51 -8 6 -14 14 -14 18 0 9
19 -2 48 -27z m-4523 -22 c54 -54 13 -155 -58 -141 -39 7 -77 48 -77 82 0 34
51 84 85 84 14 0 37 -11 50 -25z m365 -4 c0 -5 -8 -8 -17 -7 -9 0 -23 -10 -30
-24 -9 -17 -13 -20 -13 -8 0 9 7 24 16 32 17 17 44 21 44 7z m3666 -7 c13 -11
15 -17 7 -20 -16 -7 -17 -34 -2 -34 5 0 7 -4 4 -10 -3 -5 -11 -10 -16 -10 -6
0 -7 5 -4 10 3 6 -1 10 -10 10 -15 0 -15 1 0 16 19 20 14 40 -9 36 -9 -2 -16
2 -16 8 0 15 23 12 46 -6z m-59 0 c-3 -3 -12 -4 -19 -1 -8 3 -5 6 6 6 11 1 17
-2 13 -5z m-270 -26 c-3 -8 -6 -5 -6 6 -1 11 2 17 5 13 3 -3 4 -12 1 -19z
m-3170 6 c-3 -3 -12 -4 -19 -1 -8 3 -5 6 6 6 11 1 17 -2 13 -5z m70 -29 c12
-19 18 -35 13 -35 -13 0 -60 46 -60 59 0 22 26 9 47 -24z m3381 28 c-15 -2
-42 -2 -60 0 -18 2 -6 4 27 4 33 0 48 -2 33 -4z m-4445 -38 c18 -25 18 -26 -5
-55 -25 -32 -38 -37 -38 -16 0 7 -10 20 -22 29 l-23 15 24 26 c30 32 41 32 64
1z m4136 14 c24 -9 29 -14 19 -20 -20 -13 -38 -11 -38 5 0 8 -6 17 -12 19 -25
10 0 7 31 -4z m294 4 c-13 -2 -35 -2 -50 0 -16 2 -5 4 22 4 28 0 40 -2 28 -4z
m981 -19 c18 -25 18 -26 -3 -45 -12 -11 -21 -24 -21 -30 0 -6 -14 3 -31 21
l-31 31 23 23 c31 31 40 31 63 0z m-964 -9 c11 -13 7 -15 -26 -14 -31 2 -33 3
-11 6 15 2 25 9 22 14 -10 14 1 10 15 -6z m-3219 -4 c-8 -5 -10 -14 -6 -22 6
-9 3 -11 -9 -6 -10 4 -22 7 -27 7 -5 0 -9 4 -9 9 0 9 21 18 50 20 12 1 13 -1
1 -8z m2949 -11 c0 -5 -2 -10 -4 -10 -3 0 -8 5 -11 10 -3 6 -1 10 4 10 6 0 11
-4 11 -10z m-433 -56 c-3 -3 -12 -4 -19 -1 -8 3 -5 6 6 6 11 1 17 -2 13 -5z
m-3500 -256 l-32 -34 -30 34 c-29 34 -29 35 -9 51 11 9 23 24 27 34 6 16 11
14 41 -17 l35 -34 -32 -34z m660 96 c-3 -3 -12 -4 -19 -1 -8 3 -5 6 6 6 11 1
17 -2 13 -5z m76 -1 c-13 -2 -33 -2 -45 0 -13 2 -3 4 22 4 25 0 35 -2 23 -4z
m240 0 c-13 -2 -33 -2 -45 0 -13 2 -3 4 22 4 25 0 35 -2 23 -4z m2720 0 c-7
-2 -19 -2 -25 0 -7 3 -2 5 12 5 14 0 19 -2 13 -5z m170 0 c-13 -2 -35 -2 -50
0 -16 2 -5 4 22 4 28 0 40 -2 28 -4z m600 0 c-7 -2 -19 -2 -25 0 -7 3 -2 5 12
5 14 0 19 -2 13 -5z m466 -35 l29 -32 -24 -19 c-13 -10 -24 -25 -24 -33 0 -21
-18 -17 -31 9 -7 12 -19 27 -28 34 -14 10 -13 15 13 42 17 17 31 31 33 31 2 0
16 -14 32 -32z m-4592 10 c-2 -7 0 -21 5 -30 5 -11 5 -18 0 -18 -11 0 -23 40
-16 52 8 13 16 9 11 -4z m3350 -7 c10 -16 9 -20 -6 -24 -10 -2 -26 2 -37 11
-18 13 -17 14 10 8 26 -6 28 -5 17 8 -8 9 -9 16 -5 16 5 0 15 -9 21 -19z m206
12 c-7 -2 -13 -11 -13 -18 0 -7 -8 -12 -17 -10 -10 2 -20 4 -23 4 -8 2 44 29
55 29 6 0 4 -2 -2 -5z m70 -38 c-3 -8 -9 -15 -14 -15 -4 0 -5 7 -2 17 4 11 3
14 -5 9 -7 -4 -12 -2 -12 3 0 6 -5 11 -10 11 -7 0 -7 -6 0 -19 7 -15 7 -19 -5
-17 -23 3 -27 13 -14 34 11 17 15 18 40 5 18 -9 26 -19 22 -28z m559 9 c-9
-16 -10 -14 -9 8 1 15 6 23 11 18 4 -4 4 -16 -2 -26z m-355 10 c13 -2 23 2 23
7 0 6 5 7 11 4 16 -10 -20 -32 -63 -38 -20 -2 -39 -2 -42 1 -9 8 28 40 39 34
5 -3 19 -7 32 -8z m89 -11 c-3 -8 -6 -17 -6 -19 0 -2 -7 -4 -15 -4 -8 0 -15 7
-15 15 0 8 5 15 11 15 5 0 7 4 4 10 -3 6 1 7 10 4 9 -4 14 -13 11 -21z m-3631
-16 c11 -2 -5 -4 -35 -4 -30 0 -48 2 -40 5 8 3 19 12 24 20 8 14 10 14 20 0 6
-9 20 -18 31 -21z m115 11 c0 -4 -13 -8 -29 -8 -16 0 -37 -3 -45 -6 -12 -5
-15 -2 -10 10 4 11 18 15 45 14 21 -1 39 -5 39 -10z m53 -20 c3 -10 7 -10 20
1 15 12 17 11 17 -3 0 -10 -5 -14 -11 -10 -8 4 -9 -1 -4 -17 6 -22 6 -22 -6
-7 -8 10 -23 24 -34 32 -17 13 -17 15 -3 16 9 0 18 -6 21 -12z m2914 6 c-3 -3
-12 -4 -19 -1 -8 3 -5 6 6 6 11 1 17 -2 13 -5z m740 -10 c-3 -3 -12 -4 -19 -1
-8 3 -5 6 6 6 11 1 17 -2 13 -5z m-773 -19 c-10 -8 -26 -14 -34 -15 -8 0 -4 6
10 14 34 19 48 20 24 1z m-29 -43 c-3 -3 -11 0 -18 7 -9 10 -8 11 6 5 10 -3
15 -9 12 -12z m-3445 -167 l23 -25 -23 -25 c-29 -31 -31 -31 -53 0 -17 24 -17
26 0 50 22 31 24 31 53 0z m4508 0 l23 -24 -22 -30 -22 -30 -24 25 c-28 30
-28 29 -5 59 21 30 22 30 50 0z m-3531 -11 c-3 -3 -12 -4 -19 -1 -8 3 -5 6 6
6 11 1 17 -2 13 -5z m40 0 c-3 -3 -12 -4 -19 -1 -8 3 -5 6 6 6 11 1 17 -2 13
-5z m60 0 c-3 -3 -12 -4 -19 -1 -8 3 -5 6 6 6 11 1 17 -2 13 -5z m-644 -29
c-3 -9 -8 -14 -10 -11 -3 3 -2 9 2 15 9 16 15 13 8 -4z m3004 -1 c-3 -3 -12
-4 -19 -1 -8 3 -5 6 6 6 11 1 17 -2 13 -5z m575 -16 c-7 -7 -12 -8 -12 -2 0
14 12 26 19 19 2 -3 -1 -11 -7 -17z m-3152 -8 c0 -14 -15 -19 -29 -10 -17 10
-5 31 14 23 8 -3 15 -9 15 -13z m2755 0 c-3 -5 -10 -10 -16 -10 -5 0 -9 5 -9
10 0 6 7 10 16 10 8 0 12 -4 9 -10z m185 -11 c0 -5 -7 -9 -15 -9 -15 0 -20 12
-9 23 8 8 24 -1 24 -14z m-3117 4 c-7 -2 -19 -2 -25 0 -7 3 -2 5 12 5 14 0 19
-2 13 -5z m3326 -24 c-15 -9 -32 -2 -24 11 3 5 13 6 21 3 12 -4 13 -8 3 -14z
m-3544 1 c-3 -5 -12 -10 -18 -10 -7 0 -6 4 3 10 19 12 23 12 15 0z m263 3
c-10 -2 -26 -2 -35 0 -10 3 -2 5 17 5 19 0 27 -2 18 -5z m3239 -19 c-3 -3 -12
-4 -19 -1 -8 3 -5 6 6 6 11 1 17 -2 13 -5z m-44 -11 c-7 -2 -21 -2 -30 0 -10
3 -4 5 12 5 17 0 24 -2 18 -5z m-2846 -9 c-3 -3 -12 -4 -19 -1 -8 3 -5 6 6 6
11 1 17 -2 13 -5z m2316 -1 c-24 -2 -62 -2 -85 0 -24 2 -5 4 42 4 47 0 66 -2
43 -4z m-3161 -150 c23 -20 22 -32 -3 -62 l-20 -25 -24 30 -23 29 21 23 c25
26 25 27 49 5z m4048 -3 l20 -20 -22 -30 -22 -30 -23 22 c-27 26 -28 35 -6 60
21 23 28 23 53 -2z m-903 -26 c-3 -3 -12 -4 -19 -1 -8 3 -5 6 6 6 11 1 17 -2
13 -5z m-2587 -19 c-6 -8 -8 -20 -4 -27 6 -10 4 -10 -9 0 -13 11 -14 17 -4 27
16 19 33 19 17 0z m2884 -20 c-4 -8 -7 -15 -9 -15 -1 0 -19 -7 -39 -15 -20 -8
-36 -13 -36 -10 0 2 16 11 35 19 19 8 35 20 35 25 0 6 4 11 10 11 5 0 7 -7 4
-15z m-54 -5 c-8 -5 -19 -10 -25 -10 -5 0 -3 5 5 10 8 5 20 10 25 10 6 0 3 -5
-5 -10z m-143 -66 c-3 -3 -12 -4 -19 -1 -8 3 -5 6 6 6 11 1 17 -2 13 -5z
m-130 -10 c-3 -3 -12 -4 -19 -1 -8 3 -5 6 6 6 11 1 17 -2 13 -5z m595 -178
l-28 -32 -27 29 c-15 16 -27 31 -27 32 0 1 12 16 27 32 l28 30 27 -30 28 -29
-28 -32z m-3374 59 c27 -31 27 -31 -2 -65 l-23 -28 -27 30 c-14 17 -26 31 -26
33 0 6 45 55 51 55 3 0 15 -11 27 -25z m439 -83 c18 -10 21 -19 18 -53 -2 -23
-12 -50 -21 -60 -40 -44 -124 -6 -124 56 0 59 68 90 127 57z m2171 -2 c28 -26
28 -35 -3 -65 -19 -20 -34 -25 -72 -25 -45 1 -47 2 -28 15 10 9 24 14 30 12 5
-2 17 4 25 13 8 9 22 20 30 23 8 4 2 5 -13 2 -21 -4 -27 -2 -21 6 4 8 3 9 -4
5 -6 -4 -9 -13 -5 -21 6 -17 -17 -12 -50 10 -16 11 -14 13 18 19 20 4 46 4 58
0 12 -3 19 -3 15 1 -4 5 -25 11 -45 15 l-38 8 41 1 c28 1 47 -5 62 -19z m359
-2 c33 -31 32 -90 -3 -117 -32 -25 -46 -26 -84 -6 -47 24 -57 94 -18 128 28
24 77 22 105 -5z m-2270 -35 c-3 -10 -5 -4 -5 12 0 17 2 24 5 18 2 -7 2 -21 0
-30z m1680 -229 c-3 -3 -12 -4 -19 -1 -8 3 -5 6 6 6 11 1 17 -2 13 -5z m0 -30
c-3 -3 -12 -4 -19 -1 -8 3 -5 6 6 6 11 1 17 -2 13 -5z m-1498 -42 c14 -11 13
-11 -6 -2 -13 6 -23 18 -22 28 0 14 2 14 6 2 4 -8 13 -21 22 -28z m1331 13
c10 -12 7 -14 -25 -13 -36 1 -36 2 -13 14 12 7 24 13 24 14 1 0 7 -7 14 -15z
m230 -14 c0 -5 -7 -12 -16 -15 -14 -5 -15 -4 -4 9 14 17 20 19 20 6z m-914
-29 c-10 -2 -22 0 -28 6 -6 6 0 7 19 4 21 -5 23 -7 9 -10z m-353 1 c-7 -2 -19
-2 -25 0 -7 3 -2 5 12 5 14 0 19 -2 13 -5z m1210 0 c-13 -2 -33 -2 -45 0 -13
2 -3 4 22 4 25 0 35 -2 23 -4z m-712 -48 c5 4 6 -1 2 -10 -5 -13 -7 -14 -14
-3 -5 7 -8 18 -8 23 0 6 3 4 6 -3 2 -6 9 -10 14 -7z"/>
<path d="M7785 4330 c3 -5 11 -10 16 -10 6 0 7 5 4 10 -3 6 -11 10 -16 10 -6
0 -7 -4 -4 -10z"/>
<path d="M4418 2613 c12 -2 30 -2 40 0 9 3 -1 5 -23 4 -22 0 -30 -2 -17 -4z"/>
<path d="M2216 3894 c-3 -9 -2 -22 2 -31 6 -10 9 -5 9 16 0 35 -2 38 -11 15z"/>
<path d="M7685 3880 c-3 -5 -2 -10 4 -10 5 0 13 5 16 10 3 6 2 10 -4 10 -5 0
-13 -4 -16 -10z"/>
<path d="M6050 2360 c-14 -10 -22 -21 -19 -24 3 -3 16 5 29 19 28 30 24 32
-10 5z"/>
</g>
</svg>
