<?xml version="1.0" standalone="no"?>
<!DOCTYPE svg PUBLIC "-//W3C//DTD SVG 20010904//EN"
 "http://www.w3.org/TR/2001/REC-SVG-20010904/DTD/svg10.dtd">
<svg version="1.0" xmlns="http://www.w3.org/2000/svg"
 width="1024.000000pt" height="1024.000000pt" viewBox="0 0 1024.000000 1024.000000"
 preserveAspectRatio="xMidYMid meet">

<g transform="translate(0.000000,1024.000000) scale(0.100000,-0.100000)"
fill="#000000" stroke="none">
<path d="M4745 9065 c-389 -37 -743 -121 -1082 -255 -735 -289 -1281 -703
-1782 -1349 -449 -578 -704 -1209 -793 -1956 -17 -146 -17 -674 0 -815 73
-593 242 -1097 523 -1562 152 -251 275 -414 493 -656 477 -528 1066 -909 1747
-1131 410 -133 781 -191 1226 -191 482 0 842 58 1294 210 564 189 1079 507
1523 940 291 285 488 533 677 857 368 626 546 1327 526 2058 -21 735 -226
1376 -645 2020 -329 505 -829 976 -1372 1290 -485 281 -986 455 -1517 525
-206 28 -615 35 -818 15z m133 -439 c2 -10 -1 -23 -7 -29 -16 -16 -44 14 -35
37 8 22 38 17 42 -8z m485 10 c3 -8 -1 -22 -8 -33 -13 -17 -15 -17 -31 -1 -9
9 -14 24 -11 32 8 20 43 21 50 2z m-1038 -96 c0 -20 -6 -26 -27 -28 -24 -3
-28 0 -28 21 0 30 9 39 35 35 14 -2 20 -10 20 -28z m1531 -16 c-5 -13 -10 -14
-18 -6 -6 6 -8 18 -4 28 5 13 10 14 18 6 6 -6 8 -18 4 -28z m274 -59 c17 -20
4 -65 -18 -65 -22 0 -42 19 -42 40 0 35 38 51 60 25z m-785 -59 c326 -69 635
-295 806 -591 120 -206 183 -499 159 -734 -25 -232 -94 -422 -224 -611 -62
-91 -208 -241 -295 -303 -111 -80 -350 -187 -417 -187 -14 0 -34 15 -54 40
-18 23 -31 42 -29 43 2 1 45 16 94 32 303 100 548 315 685 600 161 334 160
695 -3 1020 -50 101 -124 210 -172 255 -44 41 -37 24 17 -42 58 -70 164 -261
193 -347 43 -131 55 -206 55 -366 0 -175 -14 -262 -64 -392 -89 -233 -205
-391 -395 -537 -119 -92 -342 -188 -430 -185 -14 0 15 11 64 25 242 66 469
225 606 425 86 127 99 154 169 354 49 142 52 410 7 587 -27 104 -97 250 -177
371 -83 126 -240 262 -389 336 -124 63 -341 122 -438 120 -45 -1 -42 -2 37
-19 152 -32 370 -103 370 -122 0 -4 -24 3 -52 16 -29 13 -107 38 -173 57 -108
30 -133 33 -250 34 -85 0 -137 -4 -150 -12 -18 -11 -14 -13 30 -13 28 -1 68
-8 90 -16 22 -7 29 -11 15 -9 -14 3 -56 7 -95 10 -69 4 -69 4 -15 -5 83 -13
165 -37 220 -65 55 -28 59 -35 31 -52 -22 -14 -44 -93 -35 -131 4 -15 16 -37
27 -49 20 -23 20 -23 1 -23 -40 0 -116 -33 -149 -65 -49 -45 -46 -71 14 -131
36 -36 53 -64 65 -103 21 -73 21 -226 -1 -305 -14 -54 -25 -70 -90 -132 -98
-96 -98 -115 3 -194 55 -43 64 -55 64 -83 0 -18 -8 -43 -17 -57 -9 -13 -13
-25 -7 -27 35 -12 77 -49 90 -78 30 -72 -27 -176 -106 -192 -17 -3 -30 -8 -30
-11 0 -2 15 -22 34 -43 37 -40 53 -92 42 -137 -4 -15 -10 -43 -15 -63 -5 -24
-33 -66 -82 -121 -41 -47 -96 -111 -122 -142 -27 -31 -56 -56 -65 -56 -31 0
-194 61 -281 105 -335 168 -585 504 -657 883 -20 104 -22 327 -4 422 37 193
95 344 194 494 175 270 482 471 811 531 105 19 378 14 490 -9z m-1290 -48 l25
-22 -22 -23 c-26 -28 -33 -28 -60 -3 l-22 20 24 25 c13 14 25 25 27 25 1 0 14
-10 28 -22z m2380 -38 c0 -18 -6 -26 -21 -28 -26 -4 -40 24 -23 45 18 21 44
11 44 -17z m-2731 -52 c14 -22 -12 -52 -37 -42 -17 6 -23 44 -10 58 11 11 35
3 47 -16z m1364 -5 c-10 -2 -26 -2 -35 0 -10 3 -2 5 17 5 19 0 27 -2 18 -5z
m82 -13 c11 -7 5 -8 -20 -4 -43 8 -51 14 -19 14 13 0 31 -5 39 -10z m-63 -26
c-3 -3 -12 -4 -19 -1 -8 3 -5 6 6 6 11 1 17 -2 13 -5z m84 -25 c27 -12 48 -23
46 -25 -3 -4 -109 34 -116 42 -11 11 25 2 70 -17z m1459 -13 c28 -35 -11 -93
-47 -70 -36 22 -23 84 17 84 10 0 23 -7 30 -14z m342 -146 c22 -87 59 -151
107 -185 43 -32 180 -78 256 -88 37 -4 26 -8 -90 -36 -49 -12 -110 -32 -134
-44 -82 -41 -125 -130 -151 -312 l-13 -90 -17 90 c-50 269 -92 315 -335 364
-98 20 -98 20 20 46 211 46 271 106 312 311 l17 89 8 -50 c5 -27 13 -70 20
-95z m-3497 100 c0 -16 -6 -26 -18 -28 -19 -4 -32 20 -23 44 9 25 41 13 41
-16z m2091 17 c104 -45 273 -200 365 -334 30 -44 103 -193 94 -193 -3 0 -22
36 -44 79 -83 169 -246 341 -411 435 -48 28 -50 34 -4 13z m-1918 -176 c8 -49
-50 -70 -70 -26 -9 20 -8 28 6 44 22 25 60 14 64 -18z m2706 20 c8 -13 -20
-45 -32 -37 -20 12 -14 46 7 46 11 0 22 -4 25 -9z m-3246 -113 c7 -7 12 -21
12 -33 0 -44 -60 -63 -80 -26 -14 27 -13 37 6 55 18 19 45 21 62 4z m2602 -11
c37 -18 70 -74 70 -119 0 -54 -49 -107 -105 -114 -102 -13 -186 97 -141 185
33 64 103 83 176 48z m-2822 -178 c4 -34 -20 -54 -47 -39 -23 12 -29 55 -8 64
28 11 52 1 55 -25z m474 -119 c14 -14 47 -33 74 -42 l48 -15 -39 -13 c-79 -26
-106 -57 -130 -150 l-12 -45 -7 47 c-12 78 -49 119 -131 149 l-30 11 41 16
c22 10 51 24 63 33 27 20 61 84 62 119 1 17 6 8 18 -29 9 -30 28 -66 43 -81z
m248 39 c0 -14 -7 -19 -25 -19 -20 0 -25 5 -25 24 0 13 6 26 13 29 17 6 37
-12 37 -34z m2419 -69 c0 -10 -3 -8 -9 5 -12 27 -12 43 0 25 5 -8 9 -22 9 -30z
m67 -100 c7 -41 15 -129 18 -195 4 -124 3 -116 -14 70 -5 61 -17 135 -25 165
-25 93 -27 109 -9 70 9 -19 22 -69 30 -110z m-3331 -121 c49 -97 93 -126 245
-164 l85 -22 -60 -12 c-123 -26 -168 -44 -217 -91 -49 -48 -57 -68 -87 -215
l-17 -80 -13 75 c-17 96 -45 172 -79 212 -35 41 -110 75 -199 89 -40 6 -73 16
-73 20 0 5 8 9 17 9 39 0 183 52 222 80 52 38 85 106 109 220 l17 81 16 -84
c9 -46 24 -99 34 -118z m3293 46 c0 -16 -6 4 -13 45 -17 97 -17 134 1 50 7
-36 13 -78 12 -95z m-721 123 c28 -26 30 -61 3 -88 -37 -37 -94 -20 -105 31
-6 24 -2 36 16 55 28 30 56 31 86 2z m-2349 -91 c4 -20 -25 -34 -40 -19 -15
15 -1 44 19 40 10 -2 19 -11 21 -21z m2725 -77 c21 -23 27 -40 27 -74 0 -39
-5 -48 -37 -75 -59 -48 -125 -38 -164 26 -23 38 -21 82 7 122 36 51 121 52
167 1z m1859 -125 c38 -95 93 -137 235 -179 83 -25 83 -26 -20 -46 -114 -23
-166 -56 -199 -128 -24 -54 -47 -143 -48 -186 0 -45 -7 -28 -25 59 -37 182
-84 227 -280 266 l-60 11 90 27 c180 54 220 96 253 262 l16 83 13 -69 c7 -39
18 -83 25 -100z m-232 131 c6 -8 10 -25 8 -38 -2 -18 -9 -23 -33 -23 -24 0
-31 5 -33 23 -4 25 13 52 33 52 7 0 18 -7 25 -14z m-1273 -153 c-5 -159 -23
-259 -61 -345 -24 -56 -29 -46 -6 12 36 91 60 239 60 369 0 67 3 121 6 121 4
0 4 -71 1 -157z m578 108 c13 -42 -27 -70 -54 -37 -9 11 -10 20 -1 35 13 26
47 27 55 2z m-539 -243 c-3 -40 -13 -95 -21 -123 -8 -27 -13 -36 -10 -20 3 17
10 72 17 123 6 50 14 92 16 92 3 0 2 -33 -2 -72z m-2588 -47 c-13 -14 -24 -28
-26 -30 -1 -3 -16 9 -32 26 l-30 31 28 30 27 30 28 -30 28 -30 -23 -27z m3252
54 c0 -18 -5 -25 -20 -25 -15 0 -20 7 -20 25 0 18 5 25 20 25 15 0 20 -7 20
-25z m-140 -5 c0 -6 12 -23 26 -37 l27 -26 -27 -20 c-14 -10 -26 -25 -26 -33
0 -8 -4 -14 -10 -14 -5 0 -10 5 -10 10 0 6 -11 22 -25 36 l-26 26 28 33 c29
35 43 43 43 25z m-3409 -272 c14 -11 43 -25 65 -33 l39 -13 -30 -7 c-70 -17
-110 -60 -130 -140 -7 -29 -7 -29 -20 20 -14 53 -69 115 -103 115 -37 0 -30
13 21 39 51 25 66 44 88 106 l11 30 16 -49 c10 -27 28 -58 43 -68z m-1027 33
c9 -58 51 -146 82 -170 28 -22 112 -56 188 -75 l49 -13 -72 -18 c-39 -11 -95
-30 -124 -44 -65 -32 -89 -72 -119 -201 l-22 -95 -13 80 c-19 115 -56 183
-117 216 -27 15 -77 33 -110 39 -34 7 -65 15 -70 18 -4 2 32 17 80 33 49 16
104 38 122 49 39 24 79 103 95 190 12 64 20 61 31 -9z m3846 -13 c-47 -128
-184 -324 -284 -409 -80 -68 -182 -139 -200 -139 -6 0 16 18 49 39 80 52 177
137 240 211 64 76 154 225 186 307 13 34 25 58 27 54 1 -5 -7 -33 -18 -63z
m945 35 c9 -38 51 -80 93 -94 l35 -11 -46 -20 c-36 -16 -51 -30 -67 -62 -11
-23 -20 -52 -20 -65 0 -34 -17 -16 -24 26 -8 50 -42 91 -91 108 -34 11 -37 15
-20 20 63 21 79 31 96 59 10 17 19 41 19 54 0 30 16 20 25 -15z m-1029 -98
c-36 -61 -43 -58 -9 4 16 27 30 48 32 46 2 -2 -9 -25 -23 -50z m-45 -78 c-10
-9 -11 -8 -5 6 3 10 9 15 12 12 3 -3 0 -11 -7 -18z m-2331 -57 c0 -6 10 -21
23 -34 l23 -23 -28 -32 -28 -31 -29 32 -29 33 24 24 c13 13 24 28 24 32 0 5 5
9 10 9 6 0 10 -5 10 -10z m2958 -2 c30 -30 0 -75 -43 -64 -25 6 -32 27 -19 60
7 19 45 21 62 4z m-700 -60 c-12 -18 -41 -50 -63 -72 -71 -69 -248 -186 -262
-172 -3 2 14 14 37 26 75 38 207 139 256 195 54 62 66 71 32 23z m2162 -11 c0
-10 11 -42 25 -70 30 -63 70 -92 179 -129 44 -15 74 -29 66 -31 -8 -3 -42 -12
-75 -22 -131 -37 -170 -80 -196 -215 l-13 -65 -13 64 c-28 135 -71 182 -203
217 -70 19 -98 34 -62 34 36 0 177 58 200 83 26 27 72 129 72 160 0 18 2 19
10 7 5 -8 10 -23 10 -33z m-545 -87 c0 -18 -6 -26 -21 -28 -23 -3 -37 18 -27
44 10 25 48 13 48 -16z m-4120 -145 c323 -68 570 -410 526 -729 -39 -281 -234
-504 -501 -573 -101 -26 -251 -30 -352 -9 -121 26 -257 101 -329 181 -30 33
-30 48 -1 22 61 -56 204 -80 309 -53 88 22 133 47 206 116 192 179 221 482 66
693 -99 136 -233 202 -393 196 -74 -4 -92 -9 -157 -42 l-74 -39 35 37 c84 89
235 174 351 200 85 18 227 18 314 0z m3788 -1 c89 -21 199 -72 275 -129 54
-41 118 -103 97 -93 -5 2 -37 17 -70 32 -119 57 -276 44 -396 -33 -60 -38
-142 -130 -173 -194 -29 -59 -56 -170 -56 -235 0 -71 30 -193 63 -255 36 -69
123 -162 191 -205 64 -41 179 -67 262 -59 58 6 147 38 160 58 3 5 10 9 15 9
33 0 -88 -102 -171 -145 -102 -52 -185 -69 -335 -70 -127 0 -147 3 -220 28
-155 53 -275 147 -366 285 -172 262 -128 608 106 838 97 95 198 146 350 178
51 10 202 5 268 -10z m-3119 -40 c20 -19 5 -54 -24 -54 -27 0 -37 40 -14 57
22 16 19 16 38 -3z m2204 -48 c2 -10 -1 -23 -7 -29 -16 -16 -44 14 -35 37 8
22 38 17 42 -8z m-4313 -102 c33 -33 -4 -92 -42 -68 -10 6 -19 20 -21 31 -3
20 21 53 38 53 5 0 16 -7 25 -16z m3276 -179 c47 -55 134 -158 194 -230 60
-71 111 -132 115 -135 3 -3 89 -102 190 -220 102 -118 187 -217 190 -220 3 -3
66 -72 140 -155 208 -232 237 -263 494 -525 262 -267 393 -403 587 -610 70
-74 167 -176 216 -227 l89 -92 -24 -43 c-13 -24 -30 -53 -38 -65 -18 -29 -2
-37 24 -12 12 11 22 17 22 13 0 -11 -61 -104 -69 -104 -3 1 -44 49 -91 108
-47 58 -118 146 -159 195 l-73 89 -23 -37 -22 -38 -34 59 c-18 33 -75 126
-126 208 -51 82 -91 151 -89 153 2 2 15 -1 29 -6 36 -14 40 -1 11 36 -30 39
-233 217 -333 293 -40 30 -107 82 -150 115 -42 33 -164 123 -271 200 -263 191
-287 211 -341 285 -26 36 -48 68 -48 72 -1 3 32 -16 72 -42 89 -60 94 -51 38
64 -73 150 -290 432 -530 685 l-70 75 -20 -45 c-11 -24 -21 -53 -21 -64 0 -11
30 -58 68 -105 104 -130 211 -280 200 -280 -3 0 -49 52 -103 115 -54 63 -101
115 -104 115 -3 0 -91 -53 -110 -67 -8 -6 25 -69 66 -124 l43 -59 -26 -107
c-19 -80 -24 -115 -17 -133 9 -23 99 -168 113 -180 12 -11 252 -365 264 -390
7 -13 6 -13 -6 0 -7 8 -38 35 -68 60 -87 71 -129 109 -215 193 l-80 79 -52
-29 c-29 -15 -53 -31 -53 -34 0 -7 75 -115 108 -154 13 -16 66 -75 116 -130
167 -181 227 -257 345 -433 48 -71 60 -98 55 -115 -4 -12 -41 -87 -82 -167
-64 -124 -71 -141 -46 -119 16 14 38 32 48 40 24 17 25 18 -51 -98 -87 -134
-94 -163 -28 -125 19 12 35 19 35 16 0 -9 -87 -118 -117 -147 l-30 -28 -43 57
c-38 50 -40 55 -19 49 13 -4 32 -9 42 -11 9 -3 17 0 17 6 0 17 -39 90 -74 140
-48 68 -52 78 -18 46 48 -45 39 -13 -21 73 -73 104 -76 112 -29 67 23 -22 44
-37 48 -33 6 5 -35 87 -147 295 -31 57 -35 60 -43 40 -6 -13 -45 -95 -89 -182
-53 -107 -72 -155 -59 -145 11 8 35 25 53 39 l34 25 -38 -50 c-53 -70 -97
-139 -91 -144 2 -3 10 1 16 7 32 32 25 5 -14 -51 -57 -81 -93 -145 -86 -153 4
-3 19 1 35 9 15 8 41 17 58 21 l29 7 -19 -22 c-11 -13 -28 -32 -37 -43 -10
-11 -18 -23 -18 -28 0 -22 -19 -2 -58 61 -44 72 -55 102 -22 62 17 -20 20 -20
20 -5 0 19 -71 153 -101 193 -29 36 -22 47 7 12 28 -34 61 -44 45 -14 -65 119
-195 343 -200 343 -3 0 -21 -26 -38 -58 -18 -31 -62 -99 -98 -150 -63 -89 -64
-92 -33 -76 18 9 47 26 63 38 l30 21 -15 -22 c-8 -12 -44 -65 -80 -117 -36
-52 -67 -95 -70 -96 -6 0 -81 143 -77 147 2 1 17 -11 34 -27 18 -17 35 -30 39
-30 19 0 -11 96 -61 198 -30 63 -54 116 -52 118 2 2 25 -26 52 -61 27 -36 51
-65 53 -65 12 0 -11 58 -154 388 -10 23 -21 42 -25 42 -3 0 -21 -30 -39 -67
-19 -38 -59 -104 -89 -148 -30 -44 -70 -102 -88 -129 -40 -59 -43 -78 -5 -45
15 14 36 32 47 40 18 13 18 12 -2 -21 -12 -19 -56 -78 -99 -133 -42 -54 -74
-100 -71 -103 3 -3 18 3 33 13 25 16 27 16 18 1 -5 -10 -38 -49 -72 -87 -34
-38 -62 -72 -62 -76 0 -3 21 -3 46 1 44 6 46 6 35 -14 -6 -11 -58 -65 -116
-120 -112 -106 -112 -105 -31 -117 l47 -7 -28 -30 c-15 -17 -64 -57 -107 -90
l-79 -60 -22 44 c-22 45 -23 60 -3 40 36 -36 37 5 2 60 l-27 42 27 -17 c25
-17 26 -17 26 0 0 10 -25 60 -55 112 -30 51 -55 96 -55 99 0 4 14 -9 31 -27
59 -65 48 -27 -36 124 -28 50 -56 101 -63 115 -18 34 -41 64 -45 59 -2 -2 -41
-60 -87 -129 -45 -69 -91 -138 -102 -153 -29 -42 -15 -44 39 -5 26 19 54 37
60 42 7 4 -11 -26 -40 -66 -58 -82 -127 -207 -127 -232 0 -15 3 -15 30 -1 48
25 56 17 20 -20 -34 -35 -50 -43 -50 -26 0 5 -16 33 -35 62 -37 56 -39 74 -4
43 22 -19 22 -19 14 6 -4 14 -34 65 -66 113 -32 49 -59 91 -59 94 0 4 13 -6
30 -22 44 -43 49 -22 10 50 -29 53 -32 67 -23 87 14 29 213 238 592 623 291
295 675 704 881 940 58 66 107 122 110 125 3 3 46 52 95 110 49 58 104 121
121 140 60 66 353 411 416 490 35 43 66 78 69 77 3 -1 44 -47 90 -102z m-993
-33 c4 -29 -26 -42 -44 -18 -17 24 -6 48 20 44 13 -2 22 -12 24 -26z m1677
-22 c0 -16 -6 -26 -18 -28 -19 -4 -32 20 -23 44 9 25 41 13 41 -16z m-4078
-10 c29 -13 41 -12 97 3 52 14 110 17 307 17 235 0 243 -1 266 -22 13 -12 23
-25 23 -30 0 -4 -202 -8 -450 -8 -312 0 -450 3 -450 11 0 6 5 19 11 30 9 18
18 20 87 17 42 -3 92 -11 109 -18z m6507 4 c69 -16 78 -16 115 0 24 9 69 16
106 16 58 0 66 -3 81 -25 9 -14 15 -28 12 -30 -3 -3 -209 -4 -459 -3 l-454 3
27 28 27 27 235 0 c181 0 253 -4 310 -16z m-3876 -36 c-4 -27 -33 -36 -42 -13
-8 22 1 35 25 35 15 0 20 -6 17 -22z m2980 -30 c7 -7 12 -24 12 -38 0 -48 -45
-67 -82 -33 -20 18 -23 36 -8 64 12 22 59 26 78 7z m-1411 -107 l22 -28 -25
-24 -25 -23 -25 26 -26 25 24 26 c12 14 25 25 28 25 3 1 15 -12 27 -27z
m-4085 -3 c54 -18 136 -85 160 -131 17 -32 22 -59 22 -113 l0 -71 91 -7 c49
-4 216 -10 370 -12 154 -3 284 -9 289 -14 25 -24 -17 -29 -287 -31 -155 0
-377 -4 -494 -8 l-212 -6 -7 50 c-8 64 -34 114 -79 153 -54 48 -94 65 -167 70
l-68 5 6 41 c11 83 12 84 52 89 60 8 288 -3 324 -15z m293 6 c37 -17 77 -70
94 -124 l11 -35 107 0 c120 0 183 -17 223 -60 l23 -25 -119 0 c-65 0 -163 3
-216 7 l-98 6 0 38 c0 44 -12 74 -56 146 -42 66 -33 78 31 47z m5848 10 c3 -3
-12 -33 -33 -66 -25 -37 -41 -77 -45 -106 -4 -26 -8 -52 -10 -58 -5 -18 -435
-34 -435 -16 0 14 43 50 75 63 17 7 85 12 159 13 l129 1 13 44 c14 49 55 97
99 117 35 15 40 16 48 8z m597 -15 c4 -8 10 -37 14 -65 l6 -51 -67 -6 c-146
-12 -232 -87 -249 -215 l-7 -53 -461 7 c-497 7 -541 10 -526 34 8 13 62 16
347 21 186 4 352 7 368 8 l30 1 0 78 c0 51 6 87 17 107 24 45 85 103 126 121
71 31 387 41 402 13z m-4407 -19 c9 -11 17 -24 17 -29 0 -9 -39 -46 -43 -40
-1 2 -10 14 -20 26 -18 21 -18 22 0 41 23 26 25 26 46 2z m-1365 -51 l28 -31
-28 -28 -28 -28 -30 29 -30 30 28 29 c15 16 28 29 30 30 1 0 15 -14 30 -31z
m312 -14 c0 -8 -7 -15 -15 -15 -8 0 -15 7 -15 15 0 8 7 15 15 15 8 0 15 -7 15
-15z m3865 -15 c0 -8 -8 -16 -17 -18 -13 -2 -18 3 -18 18 0 15 5 20 18 18 9
-2 17 -10 17 -18z m-2810 -105 c0 -11 -8 -21 -17 -23 -14 -3 -18 3 -18 23 0
20 4 26 18 23 9 -2 17 -12 17 -23z m1740 0 c0 -13 -8 -21 -22 -23 -17 -3 -23
2 -23 16 0 10 3 22 7 26 13 13 38 1 38 -19z m-4315 -53 c45 -24 80 -84 64
-109 -10 -16 -34 -18 -243 -21 -127 -1 -231 0 -231 4 0 23 38 76 70 98 54 36
92 44 205 45 79 1 108 -3 135 -17z m7170 -14 c51 -26 100 -77 100 -106 0 -9
-57 -12 -237 -10 l-238 3 -3 33 c-2 19 4 44 13 59 29 43 68 54 195 51 102 -3
121 -6 170 -30z m-6314 -250 c16 -24 41 -56 56 -73 16 -16 28 -33 28 -37 0
-12 153 -109 182 -115 15 -3 28 -8 28 -12 0 -3 -290 -8 -645 -9 l-645 -4 0 21
0 21 529 0 c297 0 532 4 535 9 3 5 -2 15 -11 22 -13 11 -115 15 -535 17 -508
2 -518 3 -518 22 0 20 9 20 506 20 399 0 505 3 502 12 -8 23 -79 27 -545 29
-445 2 -463 3 -463 21 0 18 17 18 454 16 301 -2 452 0 449 7 -27 47 -8 45
-465 45 -374 0 -428 2 -428 15 0 13 60 15 479 15 l478 0 29 -42z m6144 27 c0
-13 -56 -15 -445 -15 -429 0 -445 -1 -455 -19 -5 -11 -10 -22 -10 -25 0 -3
205 -6 455 -6 449 0 455 0 455 -20 0 -20 -5 -20 -452 -18 -464 2 -558 -3 -558
-28 0 -12 51 -14 313 -14 173 0 402 -3 511 -7 171 -5 196 -8 194 -22 -3 -14
-60 -16 -533 -16 -449 0 -534 -2 -555 -15 -25 -14 -25 -15 25 -21 28 -4 276
-8 553 -8 l502 -1 0 -21 0 -21 -650 3 c-357 2 -650 7 -650 11 0 3 23 14 50 23
98 33 204 122 252 212 l23 43 487 0 c427 0 488 -2 488 -15z m-4586 -37 c13
-19 14 -25 2 -43 -26 -39 -76 -26 -76 19 0 46 48 62 74 24z m2090 6 c30 -30
13 -74 -29 -74 -46 0 -60 48 -23 74 28 20 33 20 52 0z m-2354 -224 c0 -6 -40
-10 -102 -9 -67 0 -96 3 -83 9 29 12 185 12 185 0z m2760 0 c0 -6 -41 -10
-104 -10 -59 0 -108 4 -111 10 -4 6 33 10 104 10 67 0 111 -4 111 -10z m-3555
-72 c26 -26 -33 -28 -751 -28 l-744 0 0 21 0 21 744 -3 c409 -2 747 -7 751
-11z m733 -5 c3 -10 -35 -13 -167 -13 -97 0 -172 4 -176 10 -7 11 82 17 234
16 74 -1 106 -5 109 -13z m2920 10 c141 -11 90 -24 -85 -21 -122 2 -167 6
-171 16 -4 14 114 16 256 5z m1961 1 c19 -4 31 -13 31 -23 0 -15 -62 -16 -727
-13 -401 1 -738 5 -750 7 -50 11 -18 24 65 28 167 6 1350 7 1381 1z m-5666
-81 c4 -3 2 -12 -4 -20 -9 -10 -53 -13 -193 -13 -271 0 -466 -11 -466 -25 0
-21 73 -25 334 -19 255 7 287 4 249 -27 -12 -10 -60 -15 -180 -17 -133 -3
-163 -6 -163 -18 0 -11 26 -14 145 -14 84 0 145 -4 145 -9 0 -19 -45 -41 -82
-41 -20 0 -40 -4 -43 -10 -4 -6 7 -10 24 -10 53 0 59 9 -200 -265 -41 -44
-113 -120 -159 -170 -138 -147 -214 -225 -219 -225 -8 0 -72 120 -64 120 4 0
14 -7 24 -16 31 -28 39 -10 13 31 -14 22 -51 87 -82 144 -32 58 -63 106 -69
108 -8 3 -99 -125 -198 -280 l-19 -31 47 26 47 26 -17 -31 c-23 -46 -95 -129
-104 -120 -8 10 -89 245 -89 261 0 8 20 13 53 14 l52 2 -50 3 c-58 5 -75 16
-75 49 0 22 4 24 57 24 73 0 59 18 -17 22 l-55 3 -12 50 c-6 28 -12 60 -12 73
l-1 22 273 1 c149 0 281 4 292 8 26 11 -167 21 -392 21 -140 0 -183 3 -183 13
0 6 -3 22 -6 35 l-6 22 278 0 c184 0 274 4 264 10 -9 6 -111 10 -236 10 -122
0 -242 3 -268 6 -43 6 -46 9 -46 35 l0 29 298 1 c377 1 475 12 198 22 -110 4
-268 7 -352 7 l-152 0 -4 33 -4 34 331 7 c184 4 334 11 340 17 5 5 -118 9
-333 9 l-342 0 0 30 0 30 223 3 c502 6 1204 7 1210 0z m727 -7 c0 -21 -23 -26
-119 -26 -75 0 -91 3 -106 20 -18 20 -17 20 103 20 98 0 122 -3 122 -14z
m3020 4 c0 -19 -41 -30 -118 -30 -65 0 -84 4 -103 20 l-24 19 123 1 c72 0 122
-4 122 -10z m1623 3 l328 -6 -3 -26 -3 -26 -340 -5 c-187 -3 -332 -8 -322 -12
10 -5 162 -11 338 -15 l320 -6 -3 -31 -3 -31 -245 -6 c-135 -3 -290 -7 -344
-8 -55 0 -96 -4 -92 -8 4 -5 157 -10 339 -13 l332 -5 -3 -24 c-1 -14 -3 -26
-5 -27 -1 -1 -117 -6 -257 -10 -140 -4 -266 -11 -280 -15 -14 -4 100 -8 253
-8 l278 -1 -3 -32 -3 -33 -250 -6 c-340 -8 -327 -8 -320 -19 4 -6 108 -10 281
-10 312 0 283 10 263 -93 l-12 -57 -56 -1 c-91 -2 -119 -17 -33 -18 l73 -1 -3
-32 c-3 -32 -4 -33 -63 -39 l-60 -6 54 -1 54 -2 -7 -37 c-3 -21 -21 -85 -39
-142 l-34 -104 -20 20 c-30 30 -105 134 -101 139 3 2 20 -7 38 -21 18 -14 35
-23 37 -21 9 9 -187 306 -201 306 -6 0 -33 -39 -60 -88 -27 -48 -64 -113 -83
-145 -19 -32 -33 -61 -30 -63 3 -3 17 2 31 12 15 9 28 15 31 13 2 -2 -12 -31
-32 -63 l-36 -58 -63 64 c-135 136 -554 583 -554 590 0 5 17 8 38 8 27 0 33 3
22 10 -8 5 -32 10 -52 10 -26 0 -45 7 -60 23 l-23 22 158 3 c124 2 157 5 157
16 0 11 -35 15 -167 18 -173 5 -203 10 -203 34 0 11 52 13 304 11 167 -1 308
1 312 6 23 22 -33 28 -337 34 -307 5 -359 10 -359 34 0 11 599 12 1123 2z
m-5037 -154 c129 -148 174 -203 174 -212 0 -4 -11 -30 -25 -58 l-26 -50 -78
93 c-43 51 -87 101 -98 110 -19 17 -20 16 -36 -35 -25 -81 -22 -95 38 -170
l55 -67 -61 -98 c-92 -144 -176 -258 -396 -529 -63 -78 -83 -96 -83 -73 0 14
-100 180 -108 180 -9 -1 -175 -251 -169 -256 2 -3 17 0 32 6 15 6 29 9 32 7 4
-4 -44 -67 -131 -170 l-59 -70 -39 83 c-21 46 -38 84 -38 86 0 2 9 -5 20 -16
27 -27 43 -26 35 3 -3 12 -31 73 -61 135 l-54 113 158 168 c86 91 206 221 267
286 60 66 143 156 185 200 155 165 370 407 370 418 0 19 22 0 96 -84z m334 81
c-1 -8 -48 -60 -55 -60 -8 0 -54 53 -55 62 0 4 25 7 55 5 30 -1 55 -4 55 -7z
m3021 -8 c-5 -9 -19 -26 -30 -36 -21 -19 -22 -19 -51 9 -17 16 -30 32 -30 37
0 4 27 8 60 8 55 0 60 -2 51 -18z m400 -79 c46 -54 110 -127 143 -163 33 -36
78 -85 100 -110 23 -25 65 -72 95 -105 48 -53 243 -254 500 -517 l85 -87 -52
-109 c-49 -103 -63 -152 -43 -152 5 0 14 7 21 15 20 24 23 10 5 -19 -17 -25
-35 -35 -35 -18 0 4 -53 101 -118 215 -115 201 -123 212 -253 350 -199 211
-233 247 -273 300 -39 53 -44 67 -21 67 27 0 16 20 -53 93 -116 124 -153 164
-167 183 -12 17 -14 15 -23 -20 -10 -34 -8 -44 18 -90 45 -82 46 -90 5 -130
-39 -39 -40 -48 -21 -156 8 -41 13 -76 12 -77 -4 -5 -256 342 -256 352 0 6
240 275 246 275 1 0 40 -44 85 -97z m-1231 -33 c14 -10 79 -52 144 -94 155
-101 299 -210 387 -295 l70 -68 -5 -59 -6 -59 58 -42 c82 -59 232 -193 267
-239 17 -21 60 -83 97 -137 l67 -99 -14 -38 c-7 -21 -20 -51 -29 -68 -20 -38
-9 -48 22 -20 l25 23 -28 -50 c-15 -27 -30 -54 -34 -58 -16 -16 -230 233 -316
368 l-39 60 79 -72 c44 -40 81 -71 83 -69 6 7 -52 142 -74 172 -13 18 -76 76
-141 130 -152 127 -313 273 -313 284 0 4 18 7 40 7 22 -1 43 2 47 6 7 8 -57
72 -317 320 -129 124 -149 151 -70 97z m210 -545 c-37 -92 -70 -147 -70 -117
0 20 104 245 108 233 2 -6 -15 -59 -38 -116z m10 -141 c0 -4 -25 -55 -57 -115
-52 -102 -77 -138 -88 -128 -5 5 77 169 109 216 19 30 36 42 36 27z m1295
-129 c28 -24 72 -63 99 -87 l49 -43 -29 -53 c-16 -28 -31 -52 -34 -51 -7 0
-216 266 -242 308 l-21 33 64 -32 c35 -18 87 -52 114 -75z m-5367 -92 c11 -39
18 -74 15 -77 -10 -10 -33 7 -53 38 -19 31 -19 35 -3 75 9 22 17 40 18 39 2
-2 12 -35 23 -75z m6291 28 c10 -31 8 -37 -15 -68 -14 -18 -29 -31 -33 -29 -4
3 -1 37 8 75 17 74 21 77 40 22z m-1849 -192 c85 -104 87 -111 17 -55 -43 34
-90 95 -132 171 l-27 50 28 -32 c16 -17 67 -78 114 -134z m-429 84 c-69 -84
-77 -93 -84 -87 -14 14 -6 41 24 82 24 33 37 42 61 42 l30 0 -31 -37z m-2046
-167 c-20 -30 -80 -69 -97 -64 -6 2 15 31 47 64 45 44 60 55 63 42 2 -9 -4
-28 -13 -42z m429 32 c-9 -15 -71 -94 -95 -120 -14 -17 -16 -16 -32 17 -16 34
-16 35 5 35 11 0 40 18 64 40 42 39 73 53 58 28z m1906 -106 c-4 -2 -24 4 -44
12 -37 15 -56 47 -56 89 1 18 10 11 55 -38 30 -33 50 -61 45 -63z m-348 12
c-2 -14 -8 -27 -12 -29 -8 -5 -100 95 -100 108 0 3 26 -9 58 -25 51 -27 58
-34 54 -54z m631 -114 c106 -54 257 -158 257 -177 0 -6 -10 -24 -23 -39 l-23
-26 -120 80 c-98 65 -127 90 -159 138 -47 69 -49 74 -38 74 4 0 52 -22 106
-50z m1260 -57 c3 -5 -4 -32 -15 -60 l-21 -53 -23 43 c-13 23 -40 73 -59 110
l-36 68 75 -50 c41 -28 77 -54 79 -58z m-5355 -24 l-42 -80 -17 33 c-28 51
-24 64 34 97 28 17 55 31 60 31 4 0 -11 -36 -35 -81z m5295 -126 c5 -10 20
-30 34 -44 16 -18 25 -42 30 -80 l5 -54 -59 80 c-32 44 -74 102 -92 128 l-33
49 53 -31 c29 -16 57 -38 62 -48z m-5222 35 c-40 -66 -154 -218 -159 -213 -2
2 -1 24 2 49 6 36 13 49 37 63 20 12 29 25 29 43 0 20 11 32 53 57 28 18 54
32 55 33 2 0 -5 -15 -17 -32z m3522 -165 c92 -3 166 -8 164 -10 -2 -2 -67 -10
-143 -18 -188 -19 -593 -69 -590 -72 5 -5 416 -23 741 -33 363 -10 607 -21
603 -26 -5 -5 -648 -43 -908 -54 -135 -5 -281 -12 -325 -16 -88 -6 -318 -33
-323 -38 -1 -2 32 -9 75 -15 188 -28 455 -51 818 -71 215 -11 431 -25 480 -29
l90 -8 -135 -2 c-159 -1 -882 -28 -990 -36 -143 -11 -365 -37 -379 -45 -18
-10 174 -55 294 -69 203 -24 312 -30 1153 -65 166 -7 304 -15 307 -18 3 -3
-165 -8 -372 -12 -669 -12 -1072 -26 -1213 -41 -141 -14 -273 -35 -266 -42 20
-20 542 -52 871 -54 237 0 762 -23 771 -32 4 -4 -31 -7 -77 -7 -151 0 -681
-20 -834 -31 -155 -11 -433 -44 -441 -52 -10 -10 273 -31 691 -52 160 -8 340
-18 400 -22 108 -7 109 -7 50 -14 -108 -13 -394 -29 -705 -39 -168 -6 -352
-15 -410 -21 -123 -11 -331 -49 -325 -59 5 -8 100 -24 235 -40 47 -5 213 -17
370 -25 308 -16 462 -26 458 -31 -2 -1 -106 -7 -233 -13 -570 -29 -760 -43
-809 -60 -30 -12 304 -72 489 -90 l80 -7 -75 -8 c-133 -15 -518 -21 -805 -13
-301 8 -388 19 -250 31 178 16 497 74 473 87 -32 17 -230 32 -823 60 -132 6
-241 12 -243 14 -5 4 150 15 463 30 165 8 320 18 345 20 127 15 280 40 280 46
0 11 -209 48 -330 59 -63 5 -290 17 -505 25 -344 13 -665 32 -673 39 -5 5 184
16 528 31 312 14 419 21 618 41 34 4 61 9 58 11 -9 10 -279 42 -436 52 -153
10 -681 29 -900 32 l-95 2 70 8 c99 11 592 29 813 29 296 0 715 24 827 47 27
5 28 6 9 13 -36 14 -257 39 -427 50 -141 8 -981 28 -1377 31 -240 2 -53 16
455 34 689 24 971 44 1135 81 125 28 145 35 129 44 -55 31 -805 75 -1369 81
-203 2 -61 16 395 39 439 21 642 38 820 65 87 14 129 25 99 25 -5 0 -38 5 -74
10 -122 17 -305 30 -645 45 -394 18 -857 44 -862 49 -5 5 252 15 647 26 317 9
731 28 737 34 4 4 -426 55 -597 71 -85 8 -159 16 -165 17 -69 14 1771 24 2088
11z m-3021 -265 c11 -30 55 -61 103 -73 l30 -7 -46 -14 c-55 -16 -76 -38 -94
-96 l-13 -43 -11 40 c-15 58 -37 83 -81 96 -47 14 -51 24 -12 32 44 9 80 44
93 90 9 30 14 36 16 22 2 -11 9 -32 15 -47z m4214 -36 c14 -13 39 -26 55 -29
32 -6 50 -23 24 -23 -9 0 -33 -9 -54 -19 -37 -20 -52 -42 -66 -106 -7 -29 -7
-29 -20 18 -15 61 -47 94 -99 105 -33 7 -37 10 -21 16 76 27 103 48 116 92
l14 45 12 -38 c7 -21 25 -48 39 -61z m-4628 10 c3 -17 -2 -22 -17 -22 -14 0
-21 6 -21 18 0 38 33 41 38 4z m4996 12 c8 -20 -1 -34 -20 -34 -8 0 -14 10
-14 25 0 28 24 34 34 9z"/>
<path d="M4380 7883 c-31 -11 -60 -47 -60 -75 0 -30 14 -38 24 -13 7 18 69 20
83 3 16 -21 21 -54 11 -72 -9 -16 -7 -16 10 -7 82 44 62 142 -33 164 -11 3
-27 3 -35 0z"/>
<path d="M4670 7649 c-60 -24 -100 -85 -100 -151 l0 -43 20 40 c27 55 74 85
133 85 40 0 53 -5 85 -34 32 -30 37 -40 37 -79 0 -54 -25 -94 -76 -119 l-34
-18 28 0 c91 0 176 118 147 206 -15 43 -53 90 -91 109 -32 17 -111 19 -149 4z"/>
<path d="M4183 7518 c-28 -14 -51 -62 -45 -95 5 -26 5 -26 21 -5 38 50 99 59
141 20 18 -17 21 -29 17 -64 -6 -53 3 -56 28 -11 23 44 13 100 -25 139 -23 22
-37 28 -72 27 -24 0 -53 -5 -65 -11z"/>
<path d="M4100 7149 c-58 -23 -104 -106 -82 -145 8 -14 10 -13 16 7 21 81 169
80 211 -1 17 -32 21 -130 5 -130 -5 0 -10 -5 -10 -11 0 -20 42 15 62 52 10 18
18 51 18 72 0 107 -123 194 -220 156z"/>
<path d="M4563 6955 c-22 -16 -39 -67 -28 -85 4 -7 16 -3 32 10 33 26 58 25
77 -2 12 -16 13 -25 4 -35 -21 -26 1 -25 26 0 33 33 33 71 1 102 -28 29 -79
33 -112 10z"/>
<path d="M4439 6641 c-34 -34 -39 -45 -39 -85 0 -25 5 -46 10 -46 6 0 10 7 10
16 0 9 14 29 31 45 26 24 40 29 83 29 53 0 84 -15 118 -55 22 -25 24 -104 3
-131 -20 -27 -19 -37 4 -24 33 17 63 76 63 126 0 94 -80 164 -188 164 -52 0
-59 -3 -95 -39z"/>
<path d="M5271 7471 c-15 -27 -3 -51 25 -51 28 0 42 25 27 49 -15 24 -40 25
-52 2z"/>
<path d="M5702 7232 c-11 -25 -11 -25 4 -10 9 9 15 21 13 27 -2 6 -10 -2 -17
-17z"/>
<path d="M1650 4351 c0 -14 171 -20 359 -13 125 4 163 8 131 13 -64 11 -490
11 -490 0z"/>
<path d="M2133 4173 c32 -2 81 -2 110 0 29 2 3 3 -58 3 -60 0 -84 -1 -52 -3z"/>
<path d="M8030 4350 c-10 -6 69 -10 233 -10 163 0 246 3 242 10 -8 13 -455 13
-475 0z"/>
<path d="M7938 4173 c29 -2 74 -2 100 0 26 2 2 3 -53 3 -55 0 -76 -1 -47 -3z"/>
</g>
</svg>
